%TF.GenerationSoftware,KiCad,Pcbnew,8.0.0*%
%TF.CreationDate,2024-03-06T15:24:16+01:00*%
%TF.ProjectId,EffectsPaddleBoard,45666665-6374-4735-9061-64646c65426f,rev?*%
%TF.SameCoordinates,Original*%
%TF.FileFunction,Legend,Top*%
%TF.FilePolarity,Positive*%
%FSLAX46Y46*%
G04 Gerber Fmt 4.6, Leading zero omitted, Abs format (unit mm)*
G04 Created by KiCad (PCBNEW 8.0.0) date 2024-03-06 15:24:16*
%MOMM*%
%LPD*%
G01*
G04 APERTURE LIST*
%ADD10C,0.160000*%
%ADD11C,0.150000*%
%ADD12C,0.100000*%
%ADD13C,0.120000*%
%ADD14C,0.250000*%
G04 APERTURE END LIST*
D10*
G36*
X156012665Y-85535898D02*
G01*
X154874885Y-85535898D01*
X154874885Y-84911403D01*
X154963775Y-84911403D01*
X154965312Y-85384153D01*
X154977257Y-85412992D01*
X154999329Y-85435064D01*
X155028168Y-85447009D01*
X155059382Y-85447009D01*
X155088221Y-85435064D01*
X155110293Y-85412992D01*
X155122238Y-85384153D01*
X155123775Y-85368546D01*
X155123291Y-85219825D01*
X155859382Y-85218438D01*
X155888221Y-85206493D01*
X155910293Y-85184421D01*
X155922238Y-85155582D01*
X155922238Y-85124368D01*
X155910293Y-85095529D01*
X155888221Y-85073457D01*
X155859382Y-85061512D01*
X155843775Y-85059975D01*
X155122776Y-85061333D01*
X155122238Y-84895796D01*
X155110293Y-84866957D01*
X155088221Y-84844885D01*
X155059382Y-84832940D01*
X155028168Y-84832940D01*
X154999329Y-84844885D01*
X154977257Y-84866957D01*
X154965312Y-84895796D01*
X154963775Y-84911403D01*
X154874885Y-84911403D01*
X154874885Y-84720843D01*
X154963774Y-84720843D01*
X154969833Y-84751465D01*
X154987147Y-84777436D01*
X155013083Y-84794806D01*
X155043691Y-84800928D01*
X155074313Y-84794869D01*
X155088151Y-84787491D01*
X155443924Y-84549499D01*
X155813238Y-84794870D01*
X155843859Y-84800928D01*
X155874467Y-84794806D01*
X155900403Y-84777436D01*
X155917718Y-84751465D01*
X155923776Y-84720843D01*
X155917654Y-84690235D01*
X155900285Y-84664299D01*
X155888151Y-84654363D01*
X155586633Y-84454035D01*
X155900285Y-84244221D01*
X155917654Y-84218285D01*
X155923776Y-84187677D01*
X155917718Y-84157055D01*
X155900403Y-84131084D01*
X155874467Y-84113714D01*
X155843859Y-84107592D01*
X155813238Y-84113650D01*
X155799399Y-84121029D01*
X155443625Y-84359021D01*
X155074313Y-84113651D01*
X155043691Y-84107592D01*
X155013083Y-84113714D01*
X154987147Y-84131084D01*
X154969833Y-84157055D01*
X154963774Y-84187677D01*
X154969896Y-84218285D01*
X154987266Y-84244221D01*
X154999399Y-84254157D01*
X155300916Y-84454484D01*
X154987266Y-84664299D01*
X154969896Y-84690235D01*
X154963774Y-84720843D01*
X154874885Y-84720843D01*
X154874885Y-84018703D01*
X156012665Y-84018703D01*
X156012665Y-85535898D01*
G37*
G36*
X168555947Y-86750158D02*
G01*
X168609661Y-86802549D01*
X168638156Y-86857431D01*
X168672940Y-86991484D01*
X168674065Y-87086531D01*
X168641871Y-87220351D01*
X168613134Y-87280085D01*
X168559289Y-87335290D01*
X168476743Y-87363845D01*
X168375590Y-87364600D01*
X168374382Y-86723188D01*
X168469669Y-86722477D01*
X168555947Y-86750158D01*
G37*
G36*
X169808240Y-86745427D02*
G01*
X169861353Y-86797232D01*
X169891955Y-86915170D01*
X169893299Y-87161943D01*
X169863110Y-87287433D01*
X169813154Y-87338649D01*
X169764462Y-87363930D01*
X169649797Y-87364979D01*
X169602285Y-87342122D01*
X169549173Y-87290317D01*
X169518570Y-87172377D01*
X169517226Y-86925605D01*
X169547415Y-86800116D01*
X169597371Y-86748900D01*
X169646063Y-86723619D01*
X169760729Y-86722570D01*
X169808240Y-86745427D01*
G37*
G36*
X170140819Y-87803141D02*
G01*
X163214101Y-87803141D01*
X163214101Y-87634335D01*
X165587167Y-87634335D01*
X165593289Y-87664943D01*
X165610659Y-87690879D01*
X165636630Y-87708193D01*
X165667252Y-87714252D01*
X165697860Y-87708130D01*
X165723796Y-87690760D01*
X165733732Y-87678627D01*
X166320482Y-86796156D01*
X166501453Y-86796156D01*
X166502538Y-86860968D01*
X166502081Y-86862340D01*
X166502709Y-86871177D01*
X166502990Y-86887953D01*
X166504090Y-86890609D01*
X166504294Y-86893477D01*
X166509899Y-86908123D01*
X166549370Y-86984145D01*
X166553031Y-86992983D01*
X166555557Y-86996061D01*
X166556349Y-86997586D01*
X166557943Y-86998968D01*
X166562980Y-87005106D01*
X166603059Y-87043449D01*
X166608595Y-87049832D01*
X166611915Y-87051922D01*
X166613198Y-87053149D01*
X166615148Y-87053956D01*
X166621867Y-87058186D01*
X166694083Y-87092927D01*
X166699663Y-87097062D01*
X166711371Y-87101244D01*
X166712704Y-87101886D01*
X166713280Y-87101926D01*
X166714431Y-87102338D01*
X166853268Y-87135737D01*
X166913282Y-87164610D01*
X166933905Y-87184339D01*
X166958884Y-87232450D01*
X166959533Y-87271223D01*
X166936808Y-87318462D01*
X166917079Y-87339084D01*
X166869280Y-87363901D01*
X166712285Y-87365072D01*
X166591459Y-87326308D01*
X166560322Y-87328520D01*
X166532403Y-87342480D01*
X166511952Y-87366062D01*
X166502081Y-87395674D01*
X166504293Y-87426811D01*
X166518253Y-87454730D01*
X166541835Y-87475181D01*
X166556155Y-87481575D01*
X166670622Y-87518299D01*
X166680132Y-87522238D01*
X166684125Y-87522631D01*
X166685733Y-87523147D01*
X166687841Y-87522997D01*
X166695739Y-87523775D01*
X166874102Y-87522444D01*
X166876209Y-87523147D01*
X166887494Y-87522344D01*
X166901822Y-87522238D01*
X166904478Y-87521137D01*
X166907345Y-87520934D01*
X166921992Y-87515329D01*
X166998015Y-87475857D01*
X167006853Y-87472197D01*
X167009929Y-87469672D01*
X167011455Y-87468880D01*
X167012839Y-87467283D01*
X167018975Y-87462248D01*
X167057318Y-87422168D01*
X167063701Y-87416633D01*
X167065791Y-87413312D01*
X167067019Y-87412029D01*
X167067827Y-87410077D01*
X167072055Y-87403361D01*
X167104004Y-87336949D01*
X167105114Y-87335840D01*
X167108680Y-87327229D01*
X167115755Y-87312524D01*
X167115958Y-87309657D01*
X167117059Y-87307001D01*
X167118596Y-87291394D01*
X167117510Y-87226580D01*
X167117968Y-87225209D01*
X167117339Y-87216371D01*
X167117059Y-87199596D01*
X167115958Y-87196939D01*
X167115755Y-87194073D01*
X167110150Y-87179426D01*
X167070677Y-87103400D01*
X167067018Y-87094567D01*
X167064494Y-87091491D01*
X167063701Y-87089964D01*
X167062103Y-87088578D01*
X167057069Y-87082444D01*
X167016986Y-87044095D01*
X167011455Y-87037718D01*
X167008137Y-87035629D01*
X167006852Y-87034400D01*
X167004897Y-87033590D01*
X166998183Y-87029364D01*
X166925964Y-86994620D01*
X166920386Y-86990487D01*
X166908681Y-86986305D01*
X166907346Y-86985663D01*
X166906768Y-86985621D01*
X166905618Y-86985211D01*
X166766780Y-86951811D01*
X166706766Y-86922939D01*
X166686145Y-86903211D01*
X166661164Y-86855097D01*
X166660515Y-86816326D01*
X166683241Y-86769088D01*
X166702970Y-86748465D01*
X166750769Y-86723648D01*
X166907764Y-86722477D01*
X167028590Y-86761242D01*
X167059726Y-86759030D01*
X167087645Y-86745070D01*
X167108097Y-86721488D01*
X167117968Y-86691876D01*
X167115756Y-86660740D01*
X167108769Y-86646766D01*
X167225319Y-86646766D01*
X167227438Y-86662305D01*
X167418530Y-87458405D01*
X167420015Y-87469581D01*
X167422061Y-87473114D01*
X167423025Y-87477131D01*
X167429833Y-87486539D01*
X167435655Y-87496595D01*
X167438915Y-87499090D01*
X167441324Y-87502419D01*
X167451222Y-87508510D01*
X167460442Y-87515567D01*
X167464408Y-87516624D01*
X167467909Y-87518779D01*
X167479382Y-87520617D01*
X167490602Y-87523610D01*
X167494674Y-87523068D01*
X167498730Y-87523719D01*
X167510026Y-87521029D01*
X167521545Y-87519499D01*
X167525101Y-87517439D01*
X167529095Y-87516489D01*
X167538501Y-87509681D01*
X167548559Y-87503859D01*
X167551056Y-87500596D01*
X167554383Y-87498189D01*
X167560472Y-87488294D01*
X167567531Y-87479072D01*
X167569689Y-87473317D01*
X167570743Y-87471605D01*
X167571050Y-87469688D01*
X167573038Y-87464388D01*
X167648123Y-87179923D01*
X167723733Y-87460601D01*
X167725497Y-87471605D01*
X167727632Y-87475074D01*
X167728709Y-87479072D01*
X167735768Y-87488295D01*
X167741857Y-87498189D01*
X167745182Y-87500595D01*
X167747681Y-87503860D01*
X167757745Y-87509686D01*
X167767145Y-87516489D01*
X167771135Y-87517439D01*
X167774695Y-87519500D01*
X167786219Y-87521030D01*
X167797510Y-87523719D01*
X167801565Y-87523069D01*
X167805638Y-87523610D01*
X167816861Y-87520617D01*
X167828331Y-87518779D01*
X167831828Y-87516626D01*
X167835798Y-87515568D01*
X167845026Y-87508504D01*
X167854915Y-87502419D01*
X167857321Y-87499093D01*
X167860586Y-87496595D01*
X167866412Y-87486531D01*
X167873215Y-87477131D01*
X167875216Y-87471324D01*
X167876225Y-87469582D01*
X167876480Y-87467655D01*
X167878325Y-87462305D01*
X168070922Y-86646766D01*
X168070443Y-86643775D01*
X168215740Y-86643775D01*
X168217277Y-87459382D01*
X168229222Y-87488221D01*
X168251294Y-87510293D01*
X168280133Y-87522238D01*
X168295740Y-87523775D01*
X168485174Y-87522362D01*
X168496222Y-87523147D01*
X168500165Y-87522250D01*
X168501823Y-87522238D01*
X168503774Y-87521429D01*
X168511514Y-87519670D01*
X168614213Y-87484143D01*
X168616110Y-87484143D01*
X168625715Y-87480164D01*
X168640120Y-87475181D01*
X168642292Y-87473297D01*
X168644948Y-87472197D01*
X168657071Y-87462248D01*
X168732280Y-87385139D01*
X168739892Y-87378538D01*
X168742025Y-87375148D01*
X168743210Y-87373934D01*
X168744018Y-87371982D01*
X168748246Y-87365266D01*
X168782987Y-87293049D01*
X168787122Y-87287470D01*
X168791304Y-87275761D01*
X168791946Y-87274429D01*
X168791986Y-87273852D01*
X168792398Y-87272702D01*
X168828063Y-87124450D01*
X168831346Y-87116525D01*
X168832299Y-87106840D01*
X168832789Y-87104807D01*
X168832615Y-87103638D01*
X168832883Y-87100918D01*
X168831580Y-86990863D01*
X168832789Y-86982743D01*
X168831371Y-86973159D01*
X168831346Y-86971025D01*
X168830894Y-86969934D01*
X168830494Y-86967229D01*
X168792489Y-86820764D01*
X168791946Y-86813121D01*
X168787472Y-86801430D01*
X168787122Y-86800080D01*
X168786777Y-86799615D01*
X168786341Y-86798474D01*
X168746871Y-86722453D01*
X168743210Y-86713614D01*
X168740683Y-86710536D01*
X168739892Y-86709011D01*
X168738296Y-86707626D01*
X168733261Y-86701492D01*
X168674088Y-86643775D01*
X169015740Y-86643775D01*
X169017277Y-87459382D01*
X169029222Y-87488221D01*
X169051294Y-87510293D01*
X169080133Y-87522238D01*
X169111347Y-87522238D01*
X169140186Y-87510293D01*
X169162258Y-87488221D01*
X169174203Y-87459382D01*
X169175740Y-87443775D01*
X169174735Y-86910441D01*
X169358596Y-86910441D01*
X169360020Y-87172055D01*
X169358690Y-87180997D01*
X169360121Y-87190676D01*
X169360133Y-87192715D01*
X169360584Y-87193805D01*
X169360985Y-87196511D01*
X169398229Y-87340043D01*
X169398229Y-87345096D01*
X169401738Y-87353568D01*
X169404357Y-87363660D01*
X169407897Y-87368439D01*
X169410174Y-87373934D01*
X169420123Y-87386057D01*
X169497229Y-87461266D01*
X169503833Y-87468880D01*
X169507222Y-87471013D01*
X169508436Y-87472197D01*
X169510386Y-87473005D01*
X169517105Y-87477234D01*
X169583517Y-87509183D01*
X169584627Y-87510293D01*
X169593236Y-87513858D01*
X169607943Y-87520934D01*
X169610809Y-87521137D01*
X169613466Y-87522238D01*
X169629073Y-87523775D01*
X169769478Y-87522490D01*
X169771448Y-87523147D01*
X169782342Y-87522372D01*
X169797061Y-87522238D01*
X169799717Y-87521137D01*
X169802584Y-87520934D01*
X169817231Y-87515329D01*
X169893251Y-87475858D01*
X169902090Y-87472198D01*
X169905168Y-87469671D01*
X169906693Y-87468880D01*
X169908075Y-87467285D01*
X169914213Y-87462249D01*
X169983545Y-87391166D01*
X169987587Y-87388741D01*
X169992884Y-87381590D01*
X170000352Y-87373935D01*
X170002628Y-87368440D01*
X170006170Y-87363660D01*
X170011446Y-87348892D01*
X170047110Y-87200639D01*
X170050393Y-87192715D01*
X170051346Y-87183030D01*
X170051836Y-87180997D01*
X170051662Y-87179828D01*
X170051930Y-87177108D01*
X170050505Y-86915493D01*
X170051836Y-86906552D01*
X170050404Y-86896868D01*
X170050393Y-86894834D01*
X170049942Y-86893745D01*
X170049542Y-86891039D01*
X170012299Y-86747509D01*
X170012299Y-86742452D01*
X170008787Y-86733974D01*
X170006170Y-86723889D01*
X170002628Y-86719109D01*
X170000352Y-86713614D01*
X169990403Y-86701491D01*
X169913294Y-86626281D01*
X169906693Y-86618670D01*
X169903303Y-86616536D01*
X169902089Y-86615352D01*
X169900137Y-86614543D01*
X169893421Y-86610316D01*
X169827009Y-86578366D01*
X169825900Y-86577257D01*
X169817289Y-86573690D01*
X169802584Y-86566616D01*
X169799717Y-86566412D01*
X169797061Y-86565312D01*
X169781454Y-86563775D01*
X169641048Y-86565059D01*
X169639079Y-86564403D01*
X169628184Y-86565177D01*
X169613466Y-86565312D01*
X169610809Y-86566412D01*
X169607943Y-86566616D01*
X169593296Y-86572221D01*
X169517275Y-86611690D01*
X169508436Y-86615352D01*
X169505358Y-86617878D01*
X169503833Y-86618670D01*
X169502448Y-86620265D01*
X169496314Y-86625301D01*
X169426980Y-86696383D01*
X169422940Y-86698808D01*
X169417644Y-86705954D01*
X169410174Y-86713614D01*
X169407897Y-86719110D01*
X169404357Y-86723889D01*
X169399081Y-86738657D01*
X169363415Y-86886908D01*
X169360133Y-86894834D01*
X169359179Y-86904518D01*
X169358690Y-86906552D01*
X169358863Y-86907720D01*
X169358596Y-86910441D01*
X169174735Y-86910441D01*
X169174203Y-86628168D01*
X169162258Y-86599329D01*
X169140186Y-86577257D01*
X169111347Y-86565312D01*
X169080133Y-86565312D01*
X169051294Y-86577257D01*
X169029222Y-86599329D01*
X169017277Y-86628168D01*
X169015740Y-86643775D01*
X168674088Y-86643775D01*
X168664506Y-86634429D01*
X168663702Y-86632820D01*
X168656078Y-86626209D01*
X168644948Y-86615352D01*
X168642290Y-86614251D01*
X168640120Y-86612369D01*
X168625800Y-86605975D01*
X168511332Y-86569250D01*
X168501823Y-86565312D01*
X168497829Y-86564918D01*
X168496222Y-86564403D01*
X168494113Y-86564552D01*
X168486216Y-86563775D01*
X168280133Y-86565312D01*
X168251294Y-86577257D01*
X168229222Y-86599329D01*
X168217277Y-86628168D01*
X168215740Y-86643775D01*
X168070443Y-86643775D01*
X168065982Y-86615945D01*
X168049622Y-86589361D01*
X168024334Y-86571061D01*
X167993969Y-86563831D01*
X167963148Y-86568772D01*
X167936563Y-86585131D01*
X167918264Y-86610419D01*
X167913153Y-86625246D01*
X167796229Y-87120354D01*
X167725182Y-86856614D01*
X167723844Y-86846539D01*
X167721271Y-86842095D01*
X167719912Y-86837049D01*
X167713499Y-86828670D01*
X167708205Y-86819526D01*
X167704087Y-86816374D01*
X167700940Y-86812262D01*
X167691804Y-86806973D01*
X167683417Y-86800553D01*
X167678409Y-86799217D01*
X167673926Y-86796622D01*
X167663459Y-86795231D01*
X167653257Y-86792511D01*
X167648119Y-86793193D01*
X167642983Y-86792511D01*
X167632787Y-86795229D01*
X167622314Y-86796621D01*
X167617824Y-86799220D01*
X167612823Y-86800554D01*
X167604445Y-86806966D01*
X167595300Y-86812261D01*
X167592149Y-86816377D01*
X167588036Y-86819526D01*
X167582744Y-86828664D01*
X167576328Y-86837049D01*
X167573453Y-86844713D01*
X167572396Y-86846540D01*
X167572191Y-86848078D01*
X167570821Y-86851733D01*
X167500158Y-87119437D01*
X167377977Y-86610419D01*
X167359678Y-86585131D01*
X167333093Y-86568771D01*
X167302272Y-86563831D01*
X167271907Y-86571061D01*
X167246619Y-86589360D01*
X167230259Y-86615945D01*
X167225319Y-86646766D01*
X167108769Y-86646766D01*
X167101796Y-86632821D01*
X167078214Y-86612369D01*
X167063894Y-86605975D01*
X166949428Y-86569251D01*
X166939918Y-86565312D01*
X166935924Y-86564918D01*
X166934317Y-86564403D01*
X166932208Y-86564552D01*
X166924311Y-86563775D01*
X166745946Y-86565105D01*
X166743840Y-86564403D01*
X166732554Y-86565205D01*
X166718227Y-86565312D01*
X166715570Y-86566412D01*
X166712704Y-86566616D01*
X166698057Y-86572221D01*
X166622031Y-86611693D01*
X166613198Y-86615353D01*
X166610122Y-86617876D01*
X166608595Y-86618670D01*
X166607209Y-86620267D01*
X166601075Y-86625302D01*
X166562726Y-86665384D01*
X166556349Y-86670916D01*
X166554260Y-86674233D01*
X166553031Y-86675519D01*
X166552221Y-86677473D01*
X166547995Y-86684188D01*
X166516044Y-86750600D01*
X166514935Y-86751710D01*
X166511370Y-86760315D01*
X166504294Y-86775025D01*
X166504090Y-86777892D01*
X166502990Y-86780549D01*
X166501453Y-86796156D01*
X166320482Y-86796156D01*
X166426824Y-86636218D01*
X166432882Y-86605597D01*
X166426761Y-86574988D01*
X166409391Y-86549052D01*
X166383419Y-86531738D01*
X166352798Y-86525680D01*
X166322190Y-86531802D01*
X166296254Y-86549171D01*
X166286318Y-86561304D01*
X165593226Y-87603713D01*
X165587167Y-87634335D01*
X163214101Y-87634335D01*
X163214101Y-86659382D01*
X163302990Y-86659382D01*
X163314935Y-86688221D01*
X163337007Y-86710293D01*
X163365846Y-86722238D01*
X163381453Y-86723775D01*
X163530173Y-86723291D01*
X163531561Y-87459382D01*
X163543506Y-87488221D01*
X163565578Y-87510293D01*
X163594417Y-87522238D01*
X163625631Y-87522238D01*
X163654470Y-87510293D01*
X163676542Y-87488221D01*
X163688487Y-87459382D01*
X163690024Y-87443775D01*
X163688665Y-86722776D01*
X163854203Y-86722238D01*
X163883042Y-86710293D01*
X163905114Y-86688221D01*
X163917059Y-86659382D01*
X163917059Y-86643775D01*
X164025263Y-86643775D01*
X164026800Y-87459382D01*
X164038745Y-87488221D01*
X164060817Y-87510293D01*
X164089656Y-87522238D01*
X164120870Y-87522238D01*
X164149709Y-87510293D01*
X164171781Y-87488221D01*
X164183726Y-87459382D01*
X164185263Y-87443775D01*
X164184427Y-87000584D01*
X164299538Y-87245727D01*
X164303523Y-87256685D01*
X164305905Y-87259286D01*
X164307427Y-87262527D01*
X164316393Y-87270738D01*
X164324605Y-87279705D01*
X164327824Y-87281207D01*
X164330447Y-87283609D01*
X164341877Y-87287765D01*
X164352891Y-87292905D01*
X164356440Y-87293061D01*
X164359782Y-87294276D01*
X164371929Y-87293741D01*
X164384076Y-87294276D01*
X164387417Y-87293061D01*
X164390967Y-87292905D01*
X164401980Y-87287765D01*
X164413411Y-87283609D01*
X164416033Y-87281207D01*
X164419253Y-87279705D01*
X164427464Y-87270738D01*
X164436431Y-87262527D01*
X164439079Y-87258055D01*
X164440335Y-87256685D01*
X164441039Y-87254747D01*
X164444424Y-87249034D01*
X164559269Y-87001400D01*
X164560133Y-87459382D01*
X164572078Y-87488221D01*
X164594150Y-87510293D01*
X164622989Y-87522238D01*
X164654203Y-87522238D01*
X164683042Y-87510293D01*
X164705114Y-87488221D01*
X164717059Y-87459382D01*
X164718596Y-87443775D01*
X164717375Y-86796156D01*
X164901453Y-86796156D01*
X164902538Y-86860968D01*
X164902081Y-86862340D01*
X164902709Y-86871177D01*
X164902990Y-86887953D01*
X164904090Y-86890609D01*
X164904294Y-86893477D01*
X164909899Y-86908123D01*
X164949370Y-86984145D01*
X164953031Y-86992983D01*
X164955557Y-86996061D01*
X164956349Y-86997586D01*
X164957943Y-86998968D01*
X164962980Y-87005106D01*
X165003059Y-87043449D01*
X165008595Y-87049832D01*
X165011915Y-87051922D01*
X165013198Y-87053149D01*
X165015148Y-87053956D01*
X165021867Y-87058186D01*
X165094083Y-87092927D01*
X165099663Y-87097062D01*
X165111371Y-87101244D01*
X165112704Y-87101886D01*
X165113280Y-87101926D01*
X165114431Y-87102338D01*
X165253268Y-87135737D01*
X165313282Y-87164610D01*
X165333905Y-87184339D01*
X165358884Y-87232450D01*
X165359533Y-87271223D01*
X165336808Y-87318462D01*
X165317079Y-87339084D01*
X165269280Y-87363901D01*
X165112285Y-87365072D01*
X164991459Y-87326308D01*
X164960322Y-87328520D01*
X164932403Y-87342480D01*
X164911952Y-87366062D01*
X164902081Y-87395674D01*
X164904293Y-87426811D01*
X164918253Y-87454730D01*
X164941835Y-87475181D01*
X164956155Y-87481575D01*
X165070622Y-87518299D01*
X165080132Y-87522238D01*
X165084125Y-87522631D01*
X165085733Y-87523147D01*
X165087841Y-87522997D01*
X165095739Y-87523775D01*
X165274102Y-87522444D01*
X165276209Y-87523147D01*
X165287494Y-87522344D01*
X165301822Y-87522238D01*
X165304478Y-87521137D01*
X165307345Y-87520934D01*
X165321992Y-87515329D01*
X165398015Y-87475857D01*
X165406853Y-87472197D01*
X165409929Y-87469672D01*
X165411455Y-87468880D01*
X165412839Y-87467283D01*
X165418975Y-87462248D01*
X165457318Y-87422168D01*
X165463701Y-87416633D01*
X165465791Y-87413312D01*
X165467019Y-87412029D01*
X165467827Y-87410077D01*
X165472055Y-87403361D01*
X165504004Y-87336949D01*
X165505114Y-87335840D01*
X165508680Y-87327229D01*
X165515755Y-87312524D01*
X165515958Y-87309657D01*
X165517059Y-87307001D01*
X165518596Y-87291394D01*
X165517510Y-87226580D01*
X165517968Y-87225209D01*
X165517339Y-87216371D01*
X165517059Y-87199596D01*
X165515958Y-87196939D01*
X165515755Y-87194073D01*
X165510150Y-87179426D01*
X165470677Y-87103400D01*
X165467018Y-87094567D01*
X165464494Y-87091491D01*
X165463701Y-87089964D01*
X165462103Y-87088578D01*
X165457069Y-87082444D01*
X165416986Y-87044095D01*
X165411455Y-87037718D01*
X165408137Y-87035629D01*
X165406852Y-87034400D01*
X165404897Y-87033590D01*
X165398183Y-87029364D01*
X165325964Y-86994620D01*
X165320386Y-86990487D01*
X165308681Y-86986305D01*
X165307346Y-86985663D01*
X165306768Y-86985621D01*
X165305618Y-86985211D01*
X165166780Y-86951811D01*
X165106766Y-86922939D01*
X165086145Y-86903211D01*
X165061164Y-86855097D01*
X165060515Y-86816326D01*
X165083241Y-86769088D01*
X165102970Y-86748465D01*
X165150769Y-86723648D01*
X165307764Y-86722477D01*
X165428590Y-86761242D01*
X165459726Y-86759030D01*
X165487645Y-86745070D01*
X165508097Y-86721488D01*
X165517968Y-86691876D01*
X165515756Y-86660740D01*
X165501796Y-86632821D01*
X165478214Y-86612369D01*
X165463894Y-86605975D01*
X165349428Y-86569251D01*
X165339918Y-86565312D01*
X165335924Y-86564918D01*
X165334317Y-86564403D01*
X165332208Y-86564552D01*
X165324311Y-86563775D01*
X165145946Y-86565105D01*
X165143840Y-86564403D01*
X165132554Y-86565205D01*
X165118227Y-86565312D01*
X165115570Y-86566412D01*
X165112704Y-86566616D01*
X165098057Y-86572221D01*
X165022031Y-86611693D01*
X165013198Y-86615353D01*
X165010122Y-86617876D01*
X165008595Y-86618670D01*
X165007209Y-86620267D01*
X165001075Y-86625302D01*
X164962726Y-86665384D01*
X164956349Y-86670916D01*
X164954260Y-86674233D01*
X164953031Y-86675519D01*
X164952221Y-86677473D01*
X164947995Y-86684188D01*
X164916044Y-86750600D01*
X164914935Y-86751710D01*
X164911370Y-86760315D01*
X164904294Y-86775025D01*
X164904090Y-86777892D01*
X164902990Y-86780549D01*
X164901453Y-86796156D01*
X164717375Y-86796156D01*
X164717090Y-86644790D01*
X164717669Y-86631628D01*
X164717062Y-86629959D01*
X164717059Y-86628168D01*
X164711750Y-86615350D01*
X164707002Y-86602293D01*
X164705796Y-86600976D01*
X164705114Y-86599329D01*
X164695297Y-86589512D01*
X164685920Y-86579273D01*
X164684303Y-86578518D01*
X164683042Y-86577257D01*
X164670215Y-86571944D01*
X164657634Y-86566073D01*
X164655851Y-86565994D01*
X164654203Y-86565312D01*
X164640324Y-86565312D01*
X164626449Y-86564702D01*
X164624771Y-86565312D01*
X164622989Y-86565312D01*
X164610171Y-86570620D01*
X164597114Y-86575369D01*
X164595797Y-86576574D01*
X164594150Y-86577257D01*
X164584333Y-86587073D01*
X164574094Y-86596451D01*
X164572841Y-86598565D01*
X164572078Y-86599329D01*
X164571354Y-86601075D01*
X164566101Y-86609944D01*
X164372310Y-87027798D01*
X164176752Y-86611331D01*
X164171781Y-86599329D01*
X164170528Y-86598076D01*
X164169765Y-86596451D01*
X164159525Y-86587073D01*
X164149709Y-86577257D01*
X164148061Y-86576574D01*
X164146745Y-86575369D01*
X164133687Y-86570620D01*
X164120870Y-86565312D01*
X164119088Y-86565312D01*
X164117410Y-86564702D01*
X164103535Y-86565312D01*
X164089656Y-86565312D01*
X164088007Y-86565994D01*
X164086225Y-86566073D01*
X164073643Y-86571944D01*
X164060817Y-86577257D01*
X164059555Y-86578518D01*
X164057939Y-86579273D01*
X164048561Y-86589512D01*
X164038745Y-86599329D01*
X164038062Y-86600976D01*
X164036857Y-86602293D01*
X164032108Y-86615350D01*
X164026800Y-86628168D01*
X164026559Y-86630612D01*
X164026190Y-86631628D01*
X164026273Y-86633518D01*
X164025263Y-86643775D01*
X163917059Y-86643775D01*
X163917059Y-86628168D01*
X163905114Y-86599329D01*
X163883042Y-86577257D01*
X163854203Y-86565312D01*
X163838596Y-86563775D01*
X163365846Y-86565312D01*
X163337007Y-86577257D01*
X163314935Y-86599329D01*
X163302990Y-86628168D01*
X163302990Y-86659382D01*
X163214101Y-86659382D01*
X163214101Y-86436791D01*
X170140819Y-86436791D01*
X170140819Y-87803141D01*
G37*
G36*
X164365470Y-91250158D02*
G01*
X164419184Y-91302549D01*
X164447679Y-91357431D01*
X164482463Y-91491484D01*
X164483588Y-91586531D01*
X164451394Y-91720351D01*
X164422657Y-91780085D01*
X164368812Y-91835290D01*
X164286266Y-91863845D01*
X164185113Y-91864600D01*
X164183905Y-91223188D01*
X164279192Y-91222477D01*
X164365470Y-91250158D01*
G37*
G36*
X165074152Y-92112664D02*
G01*
X163214101Y-92112664D01*
X163214101Y-91159382D01*
X163302990Y-91159382D01*
X163314935Y-91188221D01*
X163337007Y-91210293D01*
X163365846Y-91222238D01*
X163381453Y-91223775D01*
X163530173Y-91223291D01*
X163531561Y-91959382D01*
X163543506Y-91988221D01*
X163565578Y-92010293D01*
X163594417Y-92022238D01*
X163625631Y-92022238D01*
X163654470Y-92010293D01*
X163676542Y-91988221D01*
X163688487Y-91959382D01*
X163690024Y-91943775D01*
X163688665Y-91222776D01*
X163854203Y-91222238D01*
X163883042Y-91210293D01*
X163905114Y-91188221D01*
X163917059Y-91159382D01*
X163917059Y-91143775D01*
X164025263Y-91143775D01*
X164026800Y-91959382D01*
X164038745Y-91988221D01*
X164060817Y-92010293D01*
X164089656Y-92022238D01*
X164105263Y-92023775D01*
X164294697Y-92022362D01*
X164305745Y-92023147D01*
X164309688Y-92022250D01*
X164311346Y-92022238D01*
X164313297Y-92021429D01*
X164321037Y-92019670D01*
X164423736Y-91984143D01*
X164425633Y-91984143D01*
X164435238Y-91980164D01*
X164449643Y-91975181D01*
X164451815Y-91973297D01*
X164454471Y-91972197D01*
X164466594Y-91962248D01*
X164541803Y-91885139D01*
X164549415Y-91878538D01*
X164551548Y-91875148D01*
X164552733Y-91873934D01*
X164553541Y-91871982D01*
X164557769Y-91865266D01*
X164592510Y-91793049D01*
X164596645Y-91787470D01*
X164600827Y-91775761D01*
X164601469Y-91774429D01*
X164601509Y-91773852D01*
X164601921Y-91772702D01*
X164637586Y-91624450D01*
X164640869Y-91616525D01*
X164641822Y-91606840D01*
X164642312Y-91604807D01*
X164642138Y-91603638D01*
X164642406Y-91600918D01*
X164641103Y-91490863D01*
X164642312Y-91482743D01*
X164640894Y-91473159D01*
X164640869Y-91471025D01*
X164640417Y-91469934D01*
X164640017Y-91467229D01*
X164602012Y-91320764D01*
X164601469Y-91313121D01*
X164596995Y-91301430D01*
X164596645Y-91300080D01*
X164596300Y-91299615D01*
X164595864Y-91298474D01*
X164556394Y-91222453D01*
X164552733Y-91213614D01*
X164550206Y-91210536D01*
X164549415Y-91209011D01*
X164547819Y-91207626D01*
X164542784Y-91201492D01*
X164483611Y-91143775D01*
X164825263Y-91143775D01*
X164826800Y-91959382D01*
X164838745Y-91988221D01*
X164860817Y-92010293D01*
X164889656Y-92022238D01*
X164920870Y-92022238D01*
X164949709Y-92010293D01*
X164971781Y-91988221D01*
X164983726Y-91959382D01*
X164985263Y-91943775D01*
X164983726Y-91128168D01*
X164971781Y-91099329D01*
X164949709Y-91077257D01*
X164920870Y-91065312D01*
X164889656Y-91065312D01*
X164860817Y-91077257D01*
X164838745Y-91099329D01*
X164826800Y-91128168D01*
X164825263Y-91143775D01*
X164483611Y-91143775D01*
X164474029Y-91134429D01*
X164473225Y-91132820D01*
X164465601Y-91126209D01*
X164454471Y-91115352D01*
X164451813Y-91114251D01*
X164449643Y-91112369D01*
X164435323Y-91105975D01*
X164320855Y-91069250D01*
X164311346Y-91065312D01*
X164307352Y-91064918D01*
X164305745Y-91064403D01*
X164303636Y-91064552D01*
X164295739Y-91063775D01*
X164089656Y-91065312D01*
X164060817Y-91077257D01*
X164038745Y-91099329D01*
X164026800Y-91128168D01*
X164025263Y-91143775D01*
X163917059Y-91143775D01*
X163917059Y-91128168D01*
X163905114Y-91099329D01*
X163883042Y-91077257D01*
X163854203Y-91065312D01*
X163838596Y-91063775D01*
X163365846Y-91065312D01*
X163337007Y-91077257D01*
X163314935Y-91099329D01*
X163302990Y-91128168D01*
X163302990Y-91159382D01*
X163214101Y-91159382D01*
X163214101Y-90974886D01*
X165074152Y-90974886D01*
X165074152Y-92112664D01*
G37*
G36*
X129227287Y-99395427D02*
G01*
X129280400Y-99447232D01*
X129311002Y-99565170D01*
X129312346Y-99811943D01*
X129282157Y-99937433D01*
X129232201Y-99988649D01*
X129183509Y-100013930D01*
X129068844Y-100014979D01*
X129021332Y-99992122D01*
X128968220Y-99940317D01*
X128937617Y-99822377D01*
X128936273Y-99575605D01*
X128966462Y-99450116D01*
X129016418Y-99398900D01*
X129065110Y-99373619D01*
X129179776Y-99372570D01*
X129227287Y-99395427D01*
G37*
G36*
X128427567Y-99395561D02*
G01*
X128448190Y-99415291D01*
X128473084Y-99463237D01*
X128473991Y-99539913D01*
X128451093Y-99587509D01*
X128431364Y-99608131D01*
X128383653Y-99632902D01*
X128287452Y-99633364D01*
X128284481Y-99632840D01*
X128281996Y-99633390D01*
X128174872Y-99633904D01*
X128174381Y-99373397D01*
X128379450Y-99372413D01*
X128427567Y-99395561D01*
G37*
G36*
X127627567Y-99395561D02*
G01*
X127648190Y-99415291D01*
X127673084Y-99463237D01*
X127673991Y-99539913D01*
X127651093Y-99587509D01*
X127631364Y-99608131D01*
X127583653Y-99632902D01*
X127374872Y-99633904D01*
X127374381Y-99373397D01*
X127579450Y-99372413D01*
X127627567Y-99395561D01*
G37*
G36*
X130359866Y-100262664D02*
G01*
X127126850Y-100262664D01*
X127126850Y-99293775D01*
X127215739Y-99293775D01*
X127217276Y-100109382D01*
X127229221Y-100138221D01*
X127251293Y-100160293D01*
X127280132Y-100172238D01*
X127311346Y-100172238D01*
X127340185Y-100160293D01*
X127362257Y-100138221D01*
X127374202Y-100109382D01*
X127375739Y-100093775D01*
X127375171Y-99792440D01*
X127588170Y-99791419D01*
X127590495Y-99792194D01*
X127602355Y-99791350D01*
X127616108Y-99791285D01*
X127618764Y-99790184D01*
X127621631Y-99789981D01*
X127636278Y-99784376D01*
X127712298Y-99744905D01*
X127721137Y-99741245D01*
X127724215Y-99738718D01*
X127725740Y-99737927D01*
X127727122Y-99736332D01*
X127733260Y-99731296D01*
X127771603Y-99691216D01*
X127777986Y-99685681D01*
X127780076Y-99682360D01*
X127781303Y-99681078D01*
X127782110Y-99679127D01*
X127786340Y-99672409D01*
X127818290Y-99605996D01*
X127819400Y-99604887D01*
X127822964Y-99596281D01*
X127830041Y-99581572D01*
X127830244Y-99578704D01*
X127831345Y-99576048D01*
X127832882Y-99560441D01*
X127831668Y-99457916D01*
X127832254Y-99456161D01*
X127831527Y-99445932D01*
X127831345Y-99430549D01*
X127830244Y-99427892D01*
X127830041Y-99425025D01*
X127824436Y-99410378D01*
X127784961Y-99334350D01*
X127781303Y-99325519D01*
X127778779Y-99322443D01*
X127777986Y-99320916D01*
X127776388Y-99319530D01*
X127771354Y-99313396D01*
X127750846Y-99293775D01*
X128015739Y-99293775D01*
X128017276Y-100109382D01*
X128029221Y-100138221D01*
X128051293Y-100160293D01*
X128080132Y-100172238D01*
X128111346Y-100172238D01*
X128140185Y-100160293D01*
X128162257Y-100138221D01*
X128174202Y-100109382D01*
X128175739Y-100093775D01*
X128175171Y-99792440D01*
X128244222Y-99792109D01*
X128497552Y-100151556D01*
X128523876Y-100168332D01*
X128554616Y-100173756D01*
X128585092Y-100167004D01*
X128610663Y-100149104D01*
X128627439Y-100122780D01*
X128632864Y-100092041D01*
X128626111Y-100061565D01*
X128618420Y-100047898D01*
X128433456Y-99785455D01*
X128436278Y-99784376D01*
X128512298Y-99744905D01*
X128521137Y-99741245D01*
X128524215Y-99738718D01*
X128525740Y-99737927D01*
X128527122Y-99736332D01*
X128533260Y-99731296D01*
X128571603Y-99691216D01*
X128577986Y-99685681D01*
X128580076Y-99682360D01*
X128581303Y-99681078D01*
X128582110Y-99679127D01*
X128586340Y-99672409D01*
X128618290Y-99605996D01*
X128619400Y-99604887D01*
X128622964Y-99596281D01*
X128630041Y-99581572D01*
X128630244Y-99578704D01*
X128631345Y-99576048D01*
X128632882Y-99560441D01*
X128777643Y-99560441D01*
X128779067Y-99822055D01*
X128777737Y-99830997D01*
X128779168Y-99840676D01*
X128779180Y-99842715D01*
X128779631Y-99843805D01*
X128780032Y-99846511D01*
X128817276Y-99990043D01*
X128817276Y-99995096D01*
X128820785Y-100003568D01*
X128823404Y-100013660D01*
X128826944Y-100018439D01*
X128829221Y-100023934D01*
X128839170Y-100036057D01*
X128916276Y-100111266D01*
X128922880Y-100118880D01*
X128926269Y-100121013D01*
X128927483Y-100122197D01*
X128929433Y-100123005D01*
X128936152Y-100127234D01*
X129002564Y-100159183D01*
X129003674Y-100160293D01*
X129012283Y-100163858D01*
X129026990Y-100170934D01*
X129029856Y-100171137D01*
X129032513Y-100172238D01*
X129048120Y-100173775D01*
X129188525Y-100172490D01*
X129190495Y-100173147D01*
X129201389Y-100172372D01*
X129216108Y-100172238D01*
X129218764Y-100171137D01*
X129221631Y-100170934D01*
X129236278Y-100165329D01*
X129312298Y-100125858D01*
X129321137Y-100122198D01*
X129324215Y-100119671D01*
X129325740Y-100118880D01*
X129327122Y-100117285D01*
X129333260Y-100112249D01*
X129402592Y-100041166D01*
X129406634Y-100038741D01*
X129411931Y-100031590D01*
X129419399Y-100023935D01*
X129421675Y-100018440D01*
X129425217Y-100013660D01*
X129430493Y-99998892D01*
X129466157Y-99850639D01*
X129469440Y-99842715D01*
X129470393Y-99833030D01*
X129470883Y-99830997D01*
X129470709Y-99829828D01*
X129470977Y-99827108D01*
X129469939Y-99636632D01*
X129615738Y-99636632D01*
X129617040Y-99746686D01*
X129615832Y-99754807D01*
X129617249Y-99764390D01*
X129617275Y-99766525D01*
X129617726Y-99767615D01*
X129618127Y-99770321D01*
X129656131Y-99916785D01*
X129656675Y-99924429D01*
X129661148Y-99936119D01*
X129661499Y-99937470D01*
X129661843Y-99937934D01*
X129662280Y-99939076D01*
X129701751Y-100015099D01*
X129705411Y-100023934D01*
X129707936Y-100027010D01*
X129708729Y-100028538D01*
X129710326Y-100029923D01*
X129715360Y-100036057D01*
X129784113Y-100103118D01*
X129784919Y-100104730D01*
X129792551Y-100111348D01*
X129803673Y-100122197D01*
X129806328Y-100123297D01*
X129808501Y-100125181D01*
X129822821Y-100131575D01*
X129937288Y-100168299D01*
X129946798Y-100172238D01*
X129950791Y-100172631D01*
X129952399Y-100173147D01*
X129954507Y-100172997D01*
X129962405Y-100173775D01*
X130039315Y-100172487D01*
X130048602Y-100173147D01*
X130052472Y-100172266D01*
X130054203Y-100172238D01*
X130056154Y-100171429D01*
X130063894Y-100169670D01*
X130166592Y-100134143D01*
X130168488Y-100134143D01*
X130178094Y-100130164D01*
X130192499Y-100125181D01*
X130194669Y-100123298D01*
X130197327Y-100122198D01*
X130209450Y-100112249D01*
X130257495Y-100062030D01*
X130269440Y-100033191D01*
X130270977Y-100017584D01*
X130269440Y-99735311D01*
X130257495Y-99706472D01*
X130235423Y-99684400D01*
X130206584Y-99672455D01*
X130190977Y-99670918D01*
X130022989Y-99672455D01*
X129994150Y-99684400D01*
X129972078Y-99706472D01*
X129960133Y-99735311D01*
X129960133Y-99766525D01*
X129972078Y-99795364D01*
X129994150Y-99817436D01*
X130022989Y-99829381D01*
X130038596Y-99830918D01*
X130111408Y-99830251D01*
X130112247Y-99984179D01*
X130110944Y-99985540D01*
X130028856Y-100013938D01*
X129978066Y-100014788D01*
X129892671Y-99987391D01*
X129838960Y-99935001D01*
X129810464Y-99880117D01*
X129775680Y-99746065D01*
X129774555Y-99651018D01*
X129806749Y-99517198D01*
X129835485Y-99457465D01*
X129889332Y-99402259D01*
X129972001Y-99373661D01*
X130056164Y-99372665D01*
X130131751Y-99409029D01*
X130162887Y-99411242D01*
X130192500Y-99401371D01*
X130216081Y-99380919D01*
X130230040Y-99353000D01*
X130232253Y-99321864D01*
X130222382Y-99292251D01*
X130201930Y-99268670D01*
X130188658Y-99260316D01*
X130122246Y-99228366D01*
X130121137Y-99227257D01*
X130112526Y-99223690D01*
X130097821Y-99216616D01*
X130094954Y-99216412D01*
X130092298Y-99215312D01*
X130076691Y-99213775D01*
X129962567Y-99215125D01*
X129952399Y-99214403D01*
X129948489Y-99215291D01*
X129946798Y-99215312D01*
X129944846Y-99216120D01*
X129937107Y-99217880D01*
X129834408Y-99253407D01*
X129832512Y-99253407D01*
X129822904Y-99257386D01*
X129808501Y-99262369D01*
X129806330Y-99264251D01*
X129803673Y-99265352D01*
X129791551Y-99275301D01*
X129716336Y-99352413D01*
X129708729Y-99359011D01*
X129706597Y-99362398D01*
X129705411Y-99363614D01*
X129704601Y-99365568D01*
X129700375Y-99372283D01*
X129665632Y-99444500D01*
X129661499Y-99450080D01*
X129657316Y-99461788D01*
X129656675Y-99463121D01*
X129656634Y-99463697D01*
X129656223Y-99464848D01*
X129620557Y-99613099D01*
X129617275Y-99621025D01*
X129616321Y-99630709D01*
X129615832Y-99632743D01*
X129616005Y-99633911D01*
X129615738Y-99636632D01*
X129469939Y-99636632D01*
X129469552Y-99565493D01*
X129470883Y-99556552D01*
X129469451Y-99546868D01*
X129469440Y-99544834D01*
X129468989Y-99543745D01*
X129468589Y-99541039D01*
X129431346Y-99397509D01*
X129431346Y-99392452D01*
X129427834Y-99383974D01*
X129425217Y-99373889D01*
X129421675Y-99369109D01*
X129419399Y-99363614D01*
X129409450Y-99351491D01*
X129332341Y-99276281D01*
X129325740Y-99268670D01*
X129322350Y-99266536D01*
X129321136Y-99265352D01*
X129319184Y-99264543D01*
X129312468Y-99260316D01*
X129246056Y-99228366D01*
X129244947Y-99227257D01*
X129236336Y-99223690D01*
X129221631Y-99216616D01*
X129218764Y-99216412D01*
X129216108Y-99215312D01*
X129200501Y-99213775D01*
X129060095Y-99215059D01*
X129058126Y-99214403D01*
X129047231Y-99215177D01*
X129032513Y-99215312D01*
X129029856Y-99216412D01*
X129026990Y-99216616D01*
X129012343Y-99222221D01*
X128936322Y-99261690D01*
X128927483Y-99265352D01*
X128924405Y-99267878D01*
X128922880Y-99268670D01*
X128921495Y-99270265D01*
X128915361Y-99275301D01*
X128846027Y-99346383D01*
X128841987Y-99348808D01*
X128836691Y-99355954D01*
X128829221Y-99363614D01*
X128826944Y-99369110D01*
X128823404Y-99373889D01*
X128818128Y-99388657D01*
X128782462Y-99536908D01*
X128779180Y-99544834D01*
X128778226Y-99554518D01*
X128777737Y-99556552D01*
X128777910Y-99557720D01*
X128777643Y-99560441D01*
X128632882Y-99560441D01*
X128631668Y-99457916D01*
X128632254Y-99456161D01*
X128631527Y-99445932D01*
X128631345Y-99430549D01*
X128630244Y-99427892D01*
X128630041Y-99425025D01*
X128624436Y-99410378D01*
X128584961Y-99334350D01*
X128581303Y-99325519D01*
X128578779Y-99322443D01*
X128577986Y-99320916D01*
X128576388Y-99319530D01*
X128571354Y-99313396D01*
X128531272Y-99275048D01*
X128525740Y-99268670D01*
X128522422Y-99266581D01*
X128521137Y-99265352D01*
X128519182Y-99264542D01*
X128512468Y-99260316D01*
X128446056Y-99228366D01*
X128444947Y-99227257D01*
X128436336Y-99223690D01*
X128421631Y-99216616D01*
X128418764Y-99216412D01*
X128416108Y-99215312D01*
X128400501Y-99213775D01*
X128080132Y-99215312D01*
X128051293Y-99227257D01*
X128029221Y-99249329D01*
X128017276Y-99278168D01*
X128015739Y-99293775D01*
X127750846Y-99293775D01*
X127731272Y-99275048D01*
X127725740Y-99268670D01*
X127722422Y-99266581D01*
X127721137Y-99265352D01*
X127719182Y-99264542D01*
X127712468Y-99260316D01*
X127646056Y-99228366D01*
X127644947Y-99227257D01*
X127636336Y-99223690D01*
X127621631Y-99216616D01*
X127618764Y-99216412D01*
X127616108Y-99215312D01*
X127600501Y-99213775D01*
X127280132Y-99215312D01*
X127251293Y-99227257D01*
X127229221Y-99249329D01*
X127217276Y-99278168D01*
X127215739Y-99293775D01*
X127126850Y-99293775D01*
X127126850Y-99124886D01*
X130359866Y-99124886D01*
X130359866Y-100262664D01*
G37*
G36*
X128027567Y-88995561D02*
G01*
X128048190Y-89015291D01*
X128073084Y-89063237D01*
X128073991Y-89139913D01*
X128051093Y-89187509D01*
X128031364Y-89208131D01*
X127983653Y-89232902D01*
X127887452Y-89233364D01*
X127884481Y-89232840D01*
X127881996Y-89233390D01*
X127774872Y-89233904D01*
X127774381Y-88973397D01*
X127979450Y-88972413D01*
X128027567Y-88995561D01*
G37*
G36*
X129959866Y-89862664D02*
G01*
X127526850Y-89862664D01*
X127526850Y-88893775D01*
X127615739Y-88893775D01*
X127617276Y-89709382D01*
X127629221Y-89738221D01*
X127651293Y-89760293D01*
X127680132Y-89772238D01*
X127711346Y-89772238D01*
X127740185Y-89760293D01*
X127762257Y-89738221D01*
X127774202Y-89709382D01*
X127775739Y-89693775D01*
X127775171Y-89392440D01*
X127844222Y-89392109D01*
X128097552Y-89751556D01*
X128123876Y-89768332D01*
X128154616Y-89773756D01*
X128185092Y-89767004D01*
X128210663Y-89749104D01*
X128227439Y-89722780D01*
X128232864Y-89692041D01*
X128226111Y-89661565D01*
X128218420Y-89647898D01*
X128033456Y-89385455D01*
X128036278Y-89384376D01*
X128112298Y-89344905D01*
X128121137Y-89341245D01*
X128124215Y-89338718D01*
X128125740Y-89337927D01*
X128127122Y-89336332D01*
X128133260Y-89331296D01*
X128171603Y-89291216D01*
X128177986Y-89285681D01*
X128180076Y-89282360D01*
X128181303Y-89281078D01*
X128182110Y-89279127D01*
X128186340Y-89272409D01*
X128218290Y-89205996D01*
X128219400Y-89204887D01*
X128222964Y-89196281D01*
X128230041Y-89181572D01*
X128230244Y-89178704D01*
X128231345Y-89176048D01*
X128232882Y-89160441D01*
X128231668Y-89057916D01*
X128232254Y-89056161D01*
X128231527Y-89045932D01*
X128231345Y-89030549D01*
X128230244Y-89027892D01*
X128230041Y-89025025D01*
X128224436Y-89010378D01*
X128184961Y-88934350D01*
X128181303Y-88925519D01*
X128178779Y-88922443D01*
X128177986Y-88920916D01*
X128176388Y-88919530D01*
X128171354Y-88913396D01*
X128150846Y-88893775D01*
X128415739Y-88893775D01*
X128417210Y-89528856D01*
X128416367Y-89531388D01*
X128417245Y-89543745D01*
X128417276Y-89557001D01*
X128418376Y-89559657D01*
X128418580Y-89562524D01*
X128424185Y-89577171D01*
X128463655Y-89653192D01*
X128467316Y-89662029D01*
X128469841Y-89665105D01*
X128470634Y-89666633D01*
X128472231Y-89668018D01*
X128477265Y-89674152D01*
X128517346Y-89712499D01*
X128522880Y-89718880D01*
X128526197Y-89720968D01*
X128527482Y-89722197D01*
X128529434Y-89723005D01*
X128536152Y-89727234D01*
X128602564Y-89759183D01*
X128603674Y-89760293D01*
X128612283Y-89763858D01*
X128626990Y-89770934D01*
X128629856Y-89771137D01*
X128632513Y-89772238D01*
X128648120Y-89773775D01*
X128788525Y-89772490D01*
X128790495Y-89773147D01*
X128801389Y-89772372D01*
X128816108Y-89772238D01*
X128818764Y-89771137D01*
X128821631Y-89770934D01*
X128836278Y-89765329D01*
X128912301Y-89725857D01*
X128921138Y-89722197D01*
X128924214Y-89719672D01*
X128925740Y-89718880D01*
X128927124Y-89717283D01*
X128933260Y-89712248D01*
X128971603Y-89672169D01*
X128977985Y-89666634D01*
X128980075Y-89663312D01*
X128981304Y-89662029D01*
X128982112Y-89660078D01*
X128986340Y-89653362D01*
X129018291Y-89586948D01*
X129019400Y-89585840D01*
X129022961Y-89577240D01*
X129030041Y-89562526D01*
X129030244Y-89559656D01*
X129031345Y-89557001D01*
X129032882Y-89541394D01*
X129031381Y-88893775D01*
X129253834Y-88893775D01*
X129255371Y-89709382D01*
X129267316Y-89738221D01*
X129289388Y-89760293D01*
X129318227Y-89772238D01*
X129349441Y-89772238D01*
X129378280Y-89760293D01*
X129400352Y-89738221D01*
X129412297Y-89709382D01*
X129413834Y-89693775D01*
X129412889Y-89192379D01*
X129720488Y-89728634D01*
X129724459Y-89738221D01*
X129728043Y-89741805D01*
X129730595Y-89746254D01*
X129739004Y-89752766D01*
X129746531Y-89760293D01*
X129751243Y-89762244D01*
X129755275Y-89765367D01*
X129765540Y-89768166D01*
X129775370Y-89772238D01*
X129780468Y-89772238D01*
X129785389Y-89773580D01*
X129795944Y-89772238D01*
X129806584Y-89772238D01*
X129811296Y-89770286D01*
X129816355Y-89769643D01*
X129825591Y-89764365D01*
X129835423Y-89760293D01*
X129839029Y-89756686D01*
X129843456Y-89754157D01*
X129849968Y-89745747D01*
X129857495Y-89738221D01*
X129859446Y-89733508D01*
X129862569Y-89729477D01*
X129865368Y-89719211D01*
X129869440Y-89709382D01*
X129870225Y-89701402D01*
X129870782Y-89699363D01*
X129870581Y-89697788D01*
X129870977Y-89693775D01*
X129869440Y-88878168D01*
X129857495Y-88849329D01*
X129835423Y-88827257D01*
X129806584Y-88815312D01*
X129775370Y-88815312D01*
X129746531Y-88827257D01*
X129724459Y-88849329D01*
X129712514Y-88878168D01*
X129710977Y-88893775D01*
X129711921Y-89395170D01*
X129404322Y-88858915D01*
X129400352Y-88849329D01*
X129396767Y-88845744D01*
X129394216Y-88841296D01*
X129385806Y-88834783D01*
X129378280Y-88827257D01*
X129373567Y-88825305D01*
X129369536Y-88822183D01*
X129359270Y-88819383D01*
X129349441Y-88815312D01*
X129344343Y-88815312D01*
X129339422Y-88813970D01*
X129328867Y-88815312D01*
X129318227Y-88815312D01*
X129313514Y-88817263D01*
X129308456Y-88817907D01*
X129299219Y-88823184D01*
X129289388Y-88827257D01*
X129285781Y-88830863D01*
X129281355Y-88833393D01*
X129274842Y-88841802D01*
X129267316Y-88849329D01*
X129265364Y-88854041D01*
X129262242Y-88858073D01*
X129259442Y-88868338D01*
X129255371Y-88878168D01*
X129254585Y-88886147D01*
X129254029Y-88888187D01*
X129254229Y-88889761D01*
X129253834Y-88893775D01*
X129031381Y-88893775D01*
X129031345Y-88878168D01*
X129019400Y-88849329D01*
X128997328Y-88827257D01*
X128968489Y-88815312D01*
X128937275Y-88815312D01*
X128908436Y-88827257D01*
X128886364Y-88849329D01*
X128874419Y-88878168D01*
X128872882Y-88893775D01*
X128874333Y-89520155D01*
X128851093Y-89568462D01*
X128831364Y-89589084D01*
X128783509Y-89613930D01*
X128668844Y-89614979D01*
X128621051Y-89591987D01*
X128600430Y-89572258D01*
X128575700Y-89524627D01*
X128574202Y-88878168D01*
X128562257Y-88849329D01*
X128540185Y-88827257D01*
X128511346Y-88815312D01*
X128480132Y-88815312D01*
X128451293Y-88827257D01*
X128429221Y-88849329D01*
X128417276Y-88878168D01*
X128415739Y-88893775D01*
X128150846Y-88893775D01*
X128131272Y-88875048D01*
X128125740Y-88868670D01*
X128122422Y-88866581D01*
X128121137Y-88865352D01*
X128119182Y-88864542D01*
X128112468Y-88860316D01*
X128046056Y-88828366D01*
X128044947Y-88827257D01*
X128036336Y-88823690D01*
X128021631Y-88816616D01*
X128018764Y-88816412D01*
X128016108Y-88815312D01*
X128000501Y-88813775D01*
X127680132Y-88815312D01*
X127651293Y-88827257D01*
X127629221Y-88849329D01*
X127617276Y-88878168D01*
X127615739Y-88893775D01*
X127526850Y-88893775D01*
X127526850Y-88724886D01*
X129959866Y-88724886D01*
X129959866Y-89862664D01*
G37*
G36*
X153387508Y-84898905D02*
G01*
X153408131Y-84918634D01*
X153432902Y-84966345D01*
X153433364Y-85062546D01*
X153432840Y-85065518D01*
X153433390Y-85068002D01*
X153433904Y-85175126D01*
X153173397Y-85175617D01*
X153172413Y-84970548D01*
X153195561Y-84922431D01*
X153215291Y-84901808D01*
X153263237Y-84876914D01*
X153339913Y-84876007D01*
X153387508Y-84898905D01*
G37*
G36*
X154062665Y-85423149D02*
G01*
X152924885Y-85423149D01*
X152924885Y-84949498D01*
X153013775Y-84949498D01*
X153015312Y-85269867D01*
X153027257Y-85298706D01*
X153049329Y-85320778D01*
X153078168Y-85332723D01*
X153093775Y-85334260D01*
X153909382Y-85332723D01*
X153938221Y-85320778D01*
X153960293Y-85298706D01*
X153972238Y-85269867D01*
X153972238Y-85238653D01*
X153960293Y-85209814D01*
X153938221Y-85187742D01*
X153909382Y-85175797D01*
X153893775Y-85174260D01*
X153592440Y-85174827D01*
X153592109Y-85105776D01*
X153951556Y-84852447D01*
X153968332Y-84826123D01*
X153973756Y-84795383D01*
X153967004Y-84764907D01*
X153949104Y-84739336D01*
X153922780Y-84722560D01*
X153892041Y-84717135D01*
X153861565Y-84723888D01*
X153847898Y-84731579D01*
X153585455Y-84916542D01*
X153584376Y-84913721D01*
X153544903Y-84837695D01*
X153541244Y-84828862D01*
X153538720Y-84825786D01*
X153537927Y-84824259D01*
X153536329Y-84822873D01*
X153531295Y-84816739D01*
X153491212Y-84778390D01*
X153485681Y-84772013D01*
X153482363Y-84769924D01*
X153481078Y-84768695D01*
X153479123Y-84767885D01*
X153472409Y-84763659D01*
X153405996Y-84731708D01*
X153404887Y-84730599D01*
X153396281Y-84727034D01*
X153381572Y-84719958D01*
X153378704Y-84719754D01*
X153376048Y-84718654D01*
X153360441Y-84717117D01*
X153257916Y-84718330D01*
X153256161Y-84717745D01*
X153245932Y-84718471D01*
X153230549Y-84718654D01*
X153227892Y-84719754D01*
X153225025Y-84719958D01*
X153210378Y-84725563D01*
X153134350Y-84765037D01*
X153125519Y-84768696D01*
X153122443Y-84771219D01*
X153120916Y-84772013D01*
X153119530Y-84773610D01*
X153113396Y-84778645D01*
X153075048Y-84818726D01*
X153068670Y-84824259D01*
X153066581Y-84827576D01*
X153065352Y-84828862D01*
X153064542Y-84830816D01*
X153060316Y-84837531D01*
X153028366Y-84903942D01*
X153027257Y-84905052D01*
X153023690Y-84913662D01*
X153016616Y-84928368D01*
X153016412Y-84931234D01*
X153015312Y-84933891D01*
X153013775Y-84949498D01*
X152924885Y-84949498D01*
X152924885Y-84530367D01*
X153013774Y-84530367D01*
X153019833Y-84560989D01*
X153037147Y-84586960D01*
X153063083Y-84604330D01*
X153093691Y-84610452D01*
X153124313Y-84604393D01*
X153138151Y-84597015D01*
X153493924Y-84359023D01*
X153863238Y-84604394D01*
X153893859Y-84610452D01*
X153924467Y-84604330D01*
X153950403Y-84586960D01*
X153967718Y-84560989D01*
X153973776Y-84530367D01*
X153967654Y-84499759D01*
X153950285Y-84473823D01*
X153938151Y-84463887D01*
X153636633Y-84263559D01*
X153950285Y-84053745D01*
X153967654Y-84027809D01*
X153973776Y-83997201D01*
X153967718Y-83966579D01*
X153950403Y-83940608D01*
X153924467Y-83923238D01*
X153893859Y-83917116D01*
X153863238Y-83923174D01*
X153849399Y-83930553D01*
X153493625Y-84168545D01*
X153124313Y-83923175D01*
X153093691Y-83917116D01*
X153063083Y-83923238D01*
X153037147Y-83940608D01*
X153019833Y-83966579D01*
X153013774Y-83997201D01*
X153019896Y-84027809D01*
X153037266Y-84053745D01*
X153049399Y-84063681D01*
X153350916Y-84264008D01*
X153037266Y-84473823D01*
X153019896Y-84499759D01*
X153013774Y-84530367D01*
X152924885Y-84530367D01*
X152924885Y-83828227D01*
X154062665Y-83828227D01*
X154062665Y-85423149D01*
G37*
G36*
X164365470Y-93400158D02*
G01*
X164419184Y-93452549D01*
X164447679Y-93507431D01*
X164482463Y-93641484D01*
X164483588Y-93736531D01*
X164451394Y-93870351D01*
X164422657Y-93930085D01*
X164368812Y-93985290D01*
X164286266Y-94013845D01*
X164185113Y-94014600D01*
X164183905Y-93373188D01*
X164279192Y-93372477D01*
X164365470Y-93400158D01*
G37*
G36*
X165236811Y-93395427D02*
G01*
X165289924Y-93447232D01*
X165320526Y-93565170D01*
X165321870Y-93811943D01*
X165291681Y-93937433D01*
X165241725Y-93988649D01*
X165193033Y-94013930D01*
X165078368Y-94014979D01*
X165030856Y-93992122D01*
X164977744Y-93940317D01*
X164947141Y-93822377D01*
X164945797Y-93575605D01*
X164975986Y-93450116D01*
X165025942Y-93398900D01*
X165074634Y-93373619D01*
X165189300Y-93372570D01*
X165236811Y-93395427D01*
G37*
G36*
X165569390Y-94262664D02*
G01*
X163214101Y-94262664D01*
X163214101Y-93309382D01*
X163302990Y-93309382D01*
X163314935Y-93338221D01*
X163337007Y-93360293D01*
X163365846Y-93372238D01*
X163381453Y-93373775D01*
X163530173Y-93373291D01*
X163531561Y-94109382D01*
X163543506Y-94138221D01*
X163565578Y-94160293D01*
X163594417Y-94172238D01*
X163625631Y-94172238D01*
X163654470Y-94160293D01*
X163676542Y-94138221D01*
X163688487Y-94109382D01*
X163690024Y-94093775D01*
X163688665Y-93372776D01*
X163854203Y-93372238D01*
X163883042Y-93360293D01*
X163905114Y-93338221D01*
X163917059Y-93309382D01*
X163917059Y-93293775D01*
X164025263Y-93293775D01*
X164026800Y-94109382D01*
X164038745Y-94138221D01*
X164060817Y-94160293D01*
X164089656Y-94172238D01*
X164105263Y-94173775D01*
X164294697Y-94172362D01*
X164305745Y-94173147D01*
X164309688Y-94172250D01*
X164311346Y-94172238D01*
X164313297Y-94171429D01*
X164321037Y-94169670D01*
X164423736Y-94134143D01*
X164425633Y-94134143D01*
X164435238Y-94130164D01*
X164449643Y-94125181D01*
X164451815Y-94123297D01*
X164454471Y-94122197D01*
X164466594Y-94112248D01*
X164541803Y-94035139D01*
X164549415Y-94028538D01*
X164551548Y-94025148D01*
X164552733Y-94023934D01*
X164553541Y-94021982D01*
X164557769Y-94015266D01*
X164592510Y-93943049D01*
X164596645Y-93937470D01*
X164600827Y-93925761D01*
X164601469Y-93924429D01*
X164601509Y-93923852D01*
X164601921Y-93922702D01*
X164637586Y-93774450D01*
X164640869Y-93766525D01*
X164641822Y-93756840D01*
X164642312Y-93754807D01*
X164642138Y-93753638D01*
X164642406Y-93750918D01*
X164641103Y-93640863D01*
X164642312Y-93632743D01*
X164640894Y-93623159D01*
X164640869Y-93621025D01*
X164640417Y-93619934D01*
X164640017Y-93617229D01*
X164625282Y-93560441D01*
X164787167Y-93560441D01*
X164788591Y-93822055D01*
X164787261Y-93830997D01*
X164788692Y-93840676D01*
X164788704Y-93842715D01*
X164789155Y-93843805D01*
X164789556Y-93846511D01*
X164826800Y-93990043D01*
X164826800Y-93995096D01*
X164830309Y-94003568D01*
X164832928Y-94013660D01*
X164836468Y-94018439D01*
X164838745Y-94023934D01*
X164848694Y-94036057D01*
X164925800Y-94111266D01*
X164932404Y-94118880D01*
X164935793Y-94121013D01*
X164937007Y-94122197D01*
X164938957Y-94123005D01*
X164945676Y-94127234D01*
X165012088Y-94159183D01*
X165013198Y-94160293D01*
X165021807Y-94163858D01*
X165036514Y-94170934D01*
X165039380Y-94171137D01*
X165042037Y-94172238D01*
X165057644Y-94173775D01*
X165198049Y-94172490D01*
X165200019Y-94173147D01*
X165210913Y-94172372D01*
X165225632Y-94172238D01*
X165228288Y-94171137D01*
X165231155Y-94170934D01*
X165245802Y-94165329D01*
X165321822Y-94125858D01*
X165330661Y-94122198D01*
X165333739Y-94119671D01*
X165335264Y-94118880D01*
X165336646Y-94117285D01*
X165342784Y-94112249D01*
X165412116Y-94041166D01*
X165416158Y-94038741D01*
X165421455Y-94031590D01*
X165428923Y-94023935D01*
X165431199Y-94018440D01*
X165434741Y-94013660D01*
X165440017Y-93998892D01*
X165475681Y-93850639D01*
X165478964Y-93842715D01*
X165479917Y-93833030D01*
X165480407Y-93830997D01*
X165480233Y-93829828D01*
X165480501Y-93827108D01*
X165479076Y-93565493D01*
X165480407Y-93556552D01*
X165478975Y-93546868D01*
X165478964Y-93544834D01*
X165478513Y-93543745D01*
X165478113Y-93541039D01*
X165440870Y-93397509D01*
X165440870Y-93392452D01*
X165437358Y-93383974D01*
X165434741Y-93373889D01*
X165431199Y-93369109D01*
X165428923Y-93363614D01*
X165418974Y-93351491D01*
X165341865Y-93276281D01*
X165335264Y-93268670D01*
X165331874Y-93266536D01*
X165330660Y-93265352D01*
X165328708Y-93264543D01*
X165321992Y-93260316D01*
X165255580Y-93228366D01*
X165254471Y-93227257D01*
X165245860Y-93223690D01*
X165231155Y-93216616D01*
X165228288Y-93216412D01*
X165225632Y-93215312D01*
X165210025Y-93213775D01*
X165069619Y-93215059D01*
X165067650Y-93214403D01*
X165056755Y-93215177D01*
X165042037Y-93215312D01*
X165039380Y-93216412D01*
X165036514Y-93216616D01*
X165021867Y-93222221D01*
X164945846Y-93261690D01*
X164937007Y-93265352D01*
X164933929Y-93267878D01*
X164932404Y-93268670D01*
X164931019Y-93270265D01*
X164924885Y-93275301D01*
X164855551Y-93346383D01*
X164851511Y-93348808D01*
X164846215Y-93355954D01*
X164838745Y-93363614D01*
X164836468Y-93369110D01*
X164832928Y-93373889D01*
X164827652Y-93388657D01*
X164791986Y-93536908D01*
X164788704Y-93544834D01*
X164787750Y-93554518D01*
X164787261Y-93556552D01*
X164787434Y-93557720D01*
X164787167Y-93560441D01*
X164625282Y-93560441D01*
X164602012Y-93470764D01*
X164601469Y-93463121D01*
X164596995Y-93451430D01*
X164596645Y-93450080D01*
X164596300Y-93449615D01*
X164595864Y-93448474D01*
X164556394Y-93372453D01*
X164552733Y-93363614D01*
X164550206Y-93360536D01*
X164549415Y-93359011D01*
X164547819Y-93357626D01*
X164542784Y-93351492D01*
X164474029Y-93284429D01*
X164473225Y-93282820D01*
X164465601Y-93276209D01*
X164454471Y-93265352D01*
X164451813Y-93264251D01*
X164449643Y-93262369D01*
X164435323Y-93255975D01*
X164320855Y-93219250D01*
X164311346Y-93215312D01*
X164307352Y-93214918D01*
X164305745Y-93214403D01*
X164303636Y-93214552D01*
X164295739Y-93213775D01*
X164089656Y-93215312D01*
X164060817Y-93227257D01*
X164038745Y-93249329D01*
X164026800Y-93278168D01*
X164025263Y-93293775D01*
X163917059Y-93293775D01*
X163917059Y-93278168D01*
X163905114Y-93249329D01*
X163883042Y-93227257D01*
X163854203Y-93215312D01*
X163838596Y-93213775D01*
X163365846Y-93215312D01*
X163337007Y-93227257D01*
X163314935Y-93249329D01*
X163302990Y-93278168D01*
X163302990Y-93309382D01*
X163214101Y-93309382D01*
X163214101Y-93124886D01*
X165569390Y-93124886D01*
X165569390Y-94262664D01*
G37*
G36*
X165531177Y-89862664D02*
G01*
X163214101Y-89862664D01*
X163214101Y-88909382D01*
X163302990Y-88909382D01*
X163314935Y-88938221D01*
X163337007Y-88960293D01*
X163365846Y-88972238D01*
X163381453Y-88973775D01*
X163530173Y-88973291D01*
X163531561Y-89709382D01*
X163543506Y-89738221D01*
X163565578Y-89760293D01*
X163594417Y-89772238D01*
X163625631Y-89772238D01*
X163654470Y-89760293D01*
X163676542Y-89738221D01*
X163688487Y-89709382D01*
X163690024Y-89693775D01*
X163689162Y-89236632D01*
X163987167Y-89236632D01*
X163988469Y-89346686D01*
X163987261Y-89354807D01*
X163988678Y-89364390D01*
X163988704Y-89366525D01*
X163989155Y-89367615D01*
X163989556Y-89370321D01*
X164027560Y-89516785D01*
X164028104Y-89524429D01*
X164032577Y-89536119D01*
X164032928Y-89537470D01*
X164033272Y-89537934D01*
X164033709Y-89539076D01*
X164073180Y-89615099D01*
X164076840Y-89623934D01*
X164079365Y-89627010D01*
X164080158Y-89628538D01*
X164081755Y-89629923D01*
X164086789Y-89636057D01*
X164155542Y-89703118D01*
X164156348Y-89704730D01*
X164163980Y-89711348D01*
X164175102Y-89722197D01*
X164177757Y-89723297D01*
X164179930Y-89725181D01*
X164194250Y-89731575D01*
X164308717Y-89768299D01*
X164318227Y-89772238D01*
X164322220Y-89772631D01*
X164323828Y-89773147D01*
X164325936Y-89772997D01*
X164333834Y-89773775D01*
X164410744Y-89772487D01*
X164420031Y-89773147D01*
X164423901Y-89772266D01*
X164425632Y-89772238D01*
X164427583Y-89771429D01*
X164435323Y-89769670D01*
X164538021Y-89734143D01*
X164539917Y-89734143D01*
X164549523Y-89730164D01*
X164563928Y-89725181D01*
X164566098Y-89723298D01*
X164568756Y-89722198D01*
X164580879Y-89712249D01*
X164628924Y-89662030D01*
X164640869Y-89633191D01*
X164640869Y-89601977D01*
X164628924Y-89573138D01*
X164606852Y-89551066D01*
X164578013Y-89539121D01*
X164546799Y-89539121D01*
X164517960Y-89551066D01*
X164505838Y-89561015D01*
X164482373Y-89585540D01*
X164400285Y-89613938D01*
X164349495Y-89614788D01*
X164264100Y-89587391D01*
X164210389Y-89535001D01*
X164181893Y-89480117D01*
X164147109Y-89346065D01*
X164145984Y-89251018D01*
X164178178Y-89117198D01*
X164206914Y-89057465D01*
X164260761Y-89002259D01*
X164343573Y-88973611D01*
X164394363Y-88972761D01*
X164480110Y-89000271D01*
X164517961Y-89036483D01*
X164546800Y-89048428D01*
X164578014Y-89048428D01*
X164606853Y-89036482D01*
X164628924Y-89014410D01*
X164640869Y-88985571D01*
X164640869Y-88954357D01*
X164628923Y-88925518D01*
X164618974Y-88913396D01*
X164598465Y-88893775D01*
X164825263Y-88893775D01*
X164826800Y-89709382D01*
X164838745Y-89738221D01*
X164860817Y-89760293D01*
X164889656Y-89772238D01*
X164920870Y-89772238D01*
X164949709Y-89760293D01*
X164971781Y-89738221D01*
X164983726Y-89709382D01*
X164985263Y-89693775D01*
X164984680Y-89384532D01*
X165010967Y-89358122D01*
X165309000Y-89753338D01*
X165335859Y-89769242D01*
X165366760Y-89773657D01*
X165396998Y-89765909D01*
X165421969Y-89747181D01*
X165437874Y-89720322D01*
X165442288Y-89689421D01*
X165434540Y-89659183D01*
X165426406Y-89645775D01*
X165123915Y-89244648D01*
X165428924Y-88938221D01*
X165440870Y-88909382D01*
X165440870Y-88878168D01*
X165428924Y-88849329D01*
X165406852Y-88827257D01*
X165378013Y-88815311D01*
X165346799Y-88815311D01*
X165317960Y-88827257D01*
X165305838Y-88837206D01*
X164984257Y-89160282D01*
X164983726Y-88878168D01*
X164971781Y-88849329D01*
X164949709Y-88827257D01*
X164920870Y-88815312D01*
X164889656Y-88815312D01*
X164860817Y-88827257D01*
X164838745Y-88849329D01*
X164826800Y-88878168D01*
X164825263Y-88893775D01*
X164598465Y-88893775D01*
X164587964Y-88883729D01*
X164587510Y-88882821D01*
X164582212Y-88878226D01*
X164568755Y-88865352D01*
X164566098Y-88864251D01*
X164563928Y-88862369D01*
X164549608Y-88855975D01*
X164435142Y-88819251D01*
X164425632Y-88815312D01*
X164421638Y-88814918D01*
X164420031Y-88814403D01*
X164417922Y-88814552D01*
X164410025Y-88813775D01*
X164333114Y-88815062D01*
X164323828Y-88814403D01*
X164319957Y-88815283D01*
X164318227Y-88815312D01*
X164316275Y-88816120D01*
X164308536Y-88817880D01*
X164205837Y-88853407D01*
X164203941Y-88853407D01*
X164194333Y-88857386D01*
X164179930Y-88862369D01*
X164177759Y-88864251D01*
X164175102Y-88865352D01*
X164162980Y-88875301D01*
X164087765Y-88952413D01*
X164080158Y-88959011D01*
X164078026Y-88962398D01*
X164076840Y-88963614D01*
X164076030Y-88965568D01*
X164071804Y-88972283D01*
X164037061Y-89044500D01*
X164032928Y-89050080D01*
X164028745Y-89061788D01*
X164028104Y-89063121D01*
X164028063Y-89063697D01*
X164027652Y-89064848D01*
X163991986Y-89213099D01*
X163988704Y-89221025D01*
X163987750Y-89230709D01*
X163987261Y-89232743D01*
X163987434Y-89233911D01*
X163987167Y-89236632D01*
X163689162Y-89236632D01*
X163688665Y-88972776D01*
X163854203Y-88972238D01*
X163883042Y-88960293D01*
X163905114Y-88938221D01*
X163917059Y-88909382D01*
X163917059Y-88878168D01*
X163905114Y-88849329D01*
X163883042Y-88827257D01*
X163854203Y-88815312D01*
X163838596Y-88813775D01*
X163365846Y-88815312D01*
X163337007Y-88827257D01*
X163314935Y-88849329D01*
X163302990Y-88878168D01*
X163302990Y-88909382D01*
X163214101Y-88909382D01*
X163214101Y-88724886D01*
X165531177Y-88724886D01*
X165531177Y-89862664D01*
G37*
D11*
X187238095Y-105254819D02*
X187238095Y-104254819D01*
X187238095Y-104731009D02*
X187809523Y-104731009D01*
X187809523Y-105254819D02*
X187809523Y-104254819D01*
X188714285Y-104588152D02*
X188714285Y-105254819D01*
X188476190Y-104207200D02*
X188238095Y-104921485D01*
X188238095Y-104921485D02*
X188857142Y-104921485D01*
X163884819Y-99166666D02*
X163408628Y-99499999D01*
X163884819Y-99738094D02*
X162884819Y-99738094D01*
X162884819Y-99738094D02*
X162884819Y-99357142D01*
X162884819Y-99357142D02*
X162932438Y-99261904D01*
X162932438Y-99261904D02*
X162980057Y-99214285D01*
X162980057Y-99214285D02*
X163075295Y-99166666D01*
X163075295Y-99166666D02*
X163218152Y-99166666D01*
X163218152Y-99166666D02*
X163313390Y-99214285D01*
X163313390Y-99214285D02*
X163361009Y-99261904D01*
X163361009Y-99261904D02*
X163408628Y-99357142D01*
X163408628Y-99357142D02*
X163408628Y-99738094D01*
X162884819Y-98833332D02*
X162884819Y-98214285D01*
X162884819Y-98214285D02*
X163265771Y-98547618D01*
X163265771Y-98547618D02*
X163265771Y-98404761D01*
X163265771Y-98404761D02*
X163313390Y-98309523D01*
X163313390Y-98309523D02*
X163361009Y-98261904D01*
X163361009Y-98261904D02*
X163456247Y-98214285D01*
X163456247Y-98214285D02*
X163694342Y-98214285D01*
X163694342Y-98214285D02*
X163789580Y-98261904D01*
X163789580Y-98261904D02*
X163837200Y-98309523D01*
X163837200Y-98309523D02*
X163884819Y-98404761D01*
X163884819Y-98404761D02*
X163884819Y-98690475D01*
X163884819Y-98690475D02*
X163837200Y-98785713D01*
X163837200Y-98785713D02*
X163789580Y-98833332D01*
X184459580Y-107567857D02*
X184507200Y-107615476D01*
X184507200Y-107615476D02*
X184554819Y-107758333D01*
X184554819Y-107758333D02*
X184554819Y-107853571D01*
X184554819Y-107853571D02*
X184507200Y-107996428D01*
X184507200Y-107996428D02*
X184411961Y-108091666D01*
X184411961Y-108091666D02*
X184316723Y-108139285D01*
X184316723Y-108139285D02*
X184126247Y-108186904D01*
X184126247Y-108186904D02*
X183983390Y-108186904D01*
X183983390Y-108186904D02*
X183792914Y-108139285D01*
X183792914Y-108139285D02*
X183697676Y-108091666D01*
X183697676Y-108091666D02*
X183602438Y-107996428D01*
X183602438Y-107996428D02*
X183554819Y-107853571D01*
X183554819Y-107853571D02*
X183554819Y-107758333D01*
X183554819Y-107758333D02*
X183602438Y-107615476D01*
X183602438Y-107615476D02*
X183650057Y-107567857D01*
X183554819Y-107234523D02*
X183554819Y-106615476D01*
X183554819Y-106615476D02*
X183935771Y-106948809D01*
X183935771Y-106948809D02*
X183935771Y-106805952D01*
X183935771Y-106805952D02*
X183983390Y-106710714D01*
X183983390Y-106710714D02*
X184031009Y-106663095D01*
X184031009Y-106663095D02*
X184126247Y-106615476D01*
X184126247Y-106615476D02*
X184364342Y-106615476D01*
X184364342Y-106615476D02*
X184459580Y-106663095D01*
X184459580Y-106663095D02*
X184507200Y-106710714D01*
X184507200Y-106710714D02*
X184554819Y-106805952D01*
X184554819Y-106805952D02*
X184554819Y-107091666D01*
X184554819Y-107091666D02*
X184507200Y-107186904D01*
X184507200Y-107186904D02*
X184459580Y-107234523D01*
X183554819Y-106282142D02*
X183554819Y-105615476D01*
X183554819Y-105615476D02*
X184554819Y-106044047D01*
X171254819Y-104042857D02*
X170778628Y-104376190D01*
X171254819Y-104614285D02*
X170254819Y-104614285D01*
X170254819Y-104614285D02*
X170254819Y-104233333D01*
X170254819Y-104233333D02*
X170302438Y-104138095D01*
X170302438Y-104138095D02*
X170350057Y-104090476D01*
X170350057Y-104090476D02*
X170445295Y-104042857D01*
X170445295Y-104042857D02*
X170588152Y-104042857D01*
X170588152Y-104042857D02*
X170683390Y-104090476D01*
X170683390Y-104090476D02*
X170731009Y-104138095D01*
X170731009Y-104138095D02*
X170778628Y-104233333D01*
X170778628Y-104233333D02*
X170778628Y-104614285D01*
X171254819Y-103090476D02*
X171254819Y-103661904D01*
X171254819Y-103376190D02*
X170254819Y-103376190D01*
X170254819Y-103376190D02*
X170397676Y-103471428D01*
X170397676Y-103471428D02*
X170492914Y-103566666D01*
X170492914Y-103566666D02*
X170540533Y-103661904D01*
X170254819Y-102757142D02*
X170254819Y-102090476D01*
X170254819Y-102090476D02*
X171254819Y-102519047D01*
X166974819Y-77388094D02*
X165974819Y-77388094D01*
X165974819Y-77388094D02*
X165974819Y-77149999D01*
X165974819Y-77149999D02*
X166022438Y-77007142D01*
X166022438Y-77007142D02*
X166117676Y-76911904D01*
X166117676Y-76911904D02*
X166212914Y-76864285D01*
X166212914Y-76864285D02*
X166403390Y-76816666D01*
X166403390Y-76816666D02*
X166546247Y-76816666D01*
X166546247Y-76816666D02*
X166736723Y-76864285D01*
X166736723Y-76864285D02*
X166831961Y-76911904D01*
X166831961Y-76911904D02*
X166927200Y-77007142D01*
X166927200Y-77007142D02*
X166974819Y-77149999D01*
X166974819Y-77149999D02*
X166974819Y-77388094D01*
X166308152Y-75959523D02*
X166974819Y-75959523D01*
X165927200Y-76197618D02*
X166641485Y-76435713D01*
X166641485Y-76435713D02*
X166641485Y-75816666D01*
X143838095Y-60354819D02*
X144409523Y-60354819D01*
X144123809Y-61354819D02*
X144123809Y-60354819D01*
X144742857Y-61354819D02*
X144742857Y-60354819D01*
X144742857Y-60354819D02*
X145123809Y-60354819D01*
X145123809Y-60354819D02*
X145219047Y-60402438D01*
X145219047Y-60402438D02*
X145266666Y-60450057D01*
X145266666Y-60450057D02*
X145314285Y-60545295D01*
X145314285Y-60545295D02*
X145314285Y-60688152D01*
X145314285Y-60688152D02*
X145266666Y-60783390D01*
X145266666Y-60783390D02*
X145219047Y-60831009D01*
X145219047Y-60831009D02*
X145123809Y-60878628D01*
X145123809Y-60878628D02*
X144742857Y-60878628D01*
X146219047Y-60354819D02*
X145742857Y-60354819D01*
X145742857Y-60354819D02*
X145695238Y-60831009D01*
X145695238Y-60831009D02*
X145742857Y-60783390D01*
X145742857Y-60783390D02*
X145838095Y-60735771D01*
X145838095Y-60735771D02*
X146076190Y-60735771D01*
X146076190Y-60735771D02*
X146171428Y-60783390D01*
X146171428Y-60783390D02*
X146219047Y-60831009D01*
X146219047Y-60831009D02*
X146266666Y-60926247D01*
X146266666Y-60926247D02*
X146266666Y-61164342D01*
X146266666Y-61164342D02*
X146219047Y-61259580D01*
X146219047Y-61259580D02*
X146171428Y-61307200D01*
X146171428Y-61307200D02*
X146076190Y-61354819D01*
X146076190Y-61354819D02*
X145838095Y-61354819D01*
X145838095Y-61354819D02*
X145742857Y-61307200D01*
X145742857Y-61307200D02*
X145695238Y-61259580D01*
X160907142Y-74529580D02*
X160859523Y-74577200D01*
X160859523Y-74577200D02*
X160716666Y-74624819D01*
X160716666Y-74624819D02*
X160621428Y-74624819D01*
X160621428Y-74624819D02*
X160478571Y-74577200D01*
X160478571Y-74577200D02*
X160383333Y-74481961D01*
X160383333Y-74481961D02*
X160335714Y-74386723D01*
X160335714Y-74386723D02*
X160288095Y-74196247D01*
X160288095Y-74196247D02*
X160288095Y-74053390D01*
X160288095Y-74053390D02*
X160335714Y-73862914D01*
X160335714Y-73862914D02*
X160383333Y-73767676D01*
X160383333Y-73767676D02*
X160478571Y-73672438D01*
X160478571Y-73672438D02*
X160621428Y-73624819D01*
X160621428Y-73624819D02*
X160716666Y-73624819D01*
X160716666Y-73624819D02*
X160859523Y-73672438D01*
X160859523Y-73672438D02*
X160907142Y-73720057D01*
X161288095Y-73720057D02*
X161335714Y-73672438D01*
X161335714Y-73672438D02*
X161430952Y-73624819D01*
X161430952Y-73624819D02*
X161669047Y-73624819D01*
X161669047Y-73624819D02*
X161764285Y-73672438D01*
X161764285Y-73672438D02*
X161811904Y-73720057D01*
X161811904Y-73720057D02*
X161859523Y-73815295D01*
X161859523Y-73815295D02*
X161859523Y-73910533D01*
X161859523Y-73910533D02*
X161811904Y-74053390D01*
X161811904Y-74053390D02*
X161240476Y-74624819D01*
X161240476Y-74624819D02*
X161859523Y-74624819D01*
X162240476Y-73720057D02*
X162288095Y-73672438D01*
X162288095Y-73672438D02*
X162383333Y-73624819D01*
X162383333Y-73624819D02*
X162621428Y-73624819D01*
X162621428Y-73624819D02*
X162716666Y-73672438D01*
X162716666Y-73672438D02*
X162764285Y-73720057D01*
X162764285Y-73720057D02*
X162811904Y-73815295D01*
X162811904Y-73815295D02*
X162811904Y-73910533D01*
X162811904Y-73910533D02*
X162764285Y-74053390D01*
X162764285Y-74053390D02*
X162192857Y-74624819D01*
X162192857Y-74624819D02*
X162811904Y-74624819D01*
X154679580Y-68742857D02*
X154727200Y-68790476D01*
X154727200Y-68790476D02*
X154774819Y-68933333D01*
X154774819Y-68933333D02*
X154774819Y-69028571D01*
X154774819Y-69028571D02*
X154727200Y-69171428D01*
X154727200Y-69171428D02*
X154631961Y-69266666D01*
X154631961Y-69266666D02*
X154536723Y-69314285D01*
X154536723Y-69314285D02*
X154346247Y-69361904D01*
X154346247Y-69361904D02*
X154203390Y-69361904D01*
X154203390Y-69361904D02*
X154012914Y-69314285D01*
X154012914Y-69314285D02*
X153917676Y-69266666D01*
X153917676Y-69266666D02*
X153822438Y-69171428D01*
X153822438Y-69171428D02*
X153774819Y-69028571D01*
X153774819Y-69028571D02*
X153774819Y-68933333D01*
X153774819Y-68933333D02*
X153822438Y-68790476D01*
X153822438Y-68790476D02*
X153870057Y-68742857D01*
X153870057Y-68361904D02*
X153822438Y-68314285D01*
X153822438Y-68314285D02*
X153774819Y-68219047D01*
X153774819Y-68219047D02*
X153774819Y-67980952D01*
X153774819Y-67980952D02*
X153822438Y-67885714D01*
X153822438Y-67885714D02*
X153870057Y-67838095D01*
X153870057Y-67838095D02*
X153965295Y-67790476D01*
X153965295Y-67790476D02*
X154060533Y-67790476D01*
X154060533Y-67790476D02*
X154203390Y-67838095D01*
X154203390Y-67838095D02*
X154774819Y-68409523D01*
X154774819Y-68409523D02*
X154774819Y-67790476D01*
X153774819Y-67457142D02*
X153774819Y-66790476D01*
X153774819Y-66790476D02*
X154774819Y-67219047D01*
X172384819Y-92466666D02*
X171908628Y-92799999D01*
X172384819Y-93038094D02*
X171384819Y-93038094D01*
X171384819Y-93038094D02*
X171384819Y-92657142D01*
X171384819Y-92657142D02*
X171432438Y-92561904D01*
X171432438Y-92561904D02*
X171480057Y-92514285D01*
X171480057Y-92514285D02*
X171575295Y-92466666D01*
X171575295Y-92466666D02*
X171718152Y-92466666D01*
X171718152Y-92466666D02*
X171813390Y-92514285D01*
X171813390Y-92514285D02*
X171861009Y-92561904D01*
X171861009Y-92561904D02*
X171908628Y-92657142D01*
X171908628Y-92657142D02*
X171908628Y-93038094D01*
X171384819Y-91609523D02*
X171384819Y-91799999D01*
X171384819Y-91799999D02*
X171432438Y-91895237D01*
X171432438Y-91895237D02*
X171480057Y-91942856D01*
X171480057Y-91942856D02*
X171622914Y-92038094D01*
X171622914Y-92038094D02*
X171813390Y-92085713D01*
X171813390Y-92085713D02*
X172194342Y-92085713D01*
X172194342Y-92085713D02*
X172289580Y-92038094D01*
X172289580Y-92038094D02*
X172337200Y-91990475D01*
X172337200Y-91990475D02*
X172384819Y-91895237D01*
X172384819Y-91895237D02*
X172384819Y-91704761D01*
X172384819Y-91704761D02*
X172337200Y-91609523D01*
X172337200Y-91609523D02*
X172289580Y-91561904D01*
X172289580Y-91561904D02*
X172194342Y-91514285D01*
X172194342Y-91514285D02*
X171956247Y-91514285D01*
X171956247Y-91514285D02*
X171861009Y-91561904D01*
X171861009Y-91561904D02*
X171813390Y-91609523D01*
X171813390Y-91609523D02*
X171765771Y-91704761D01*
X171765771Y-91704761D02*
X171765771Y-91895237D01*
X171765771Y-91895237D02*
X171813390Y-91990475D01*
X171813390Y-91990475D02*
X171861009Y-92038094D01*
X171861009Y-92038094D02*
X171956247Y-92085713D01*
X174857142Y-96295696D02*
X174809523Y-96343316D01*
X174809523Y-96343316D02*
X174666666Y-96390935D01*
X174666666Y-96390935D02*
X174571428Y-96390935D01*
X174571428Y-96390935D02*
X174428571Y-96343316D01*
X174428571Y-96343316D02*
X174333333Y-96248077D01*
X174333333Y-96248077D02*
X174285714Y-96152839D01*
X174285714Y-96152839D02*
X174238095Y-95962363D01*
X174238095Y-95962363D02*
X174238095Y-95819506D01*
X174238095Y-95819506D02*
X174285714Y-95629030D01*
X174285714Y-95629030D02*
X174333333Y-95533792D01*
X174333333Y-95533792D02*
X174428571Y-95438554D01*
X174428571Y-95438554D02*
X174571428Y-95390935D01*
X174571428Y-95390935D02*
X174666666Y-95390935D01*
X174666666Y-95390935D02*
X174809523Y-95438554D01*
X174809523Y-95438554D02*
X174857142Y-95486173D01*
X175809523Y-96390935D02*
X175238095Y-96390935D01*
X175523809Y-96390935D02*
X175523809Y-95390935D01*
X175523809Y-95390935D02*
X175428571Y-95533792D01*
X175428571Y-95533792D02*
X175333333Y-95629030D01*
X175333333Y-95629030D02*
X175238095Y-95676649D01*
X176761904Y-96390935D02*
X176190476Y-96390935D01*
X176476190Y-96390935D02*
X176476190Y-95390935D01*
X176476190Y-95390935D02*
X176380952Y-95533792D01*
X176380952Y-95533792D02*
X176285714Y-95629030D01*
X176285714Y-95629030D02*
X176190476Y-95676649D01*
X134566667Y-79607200D02*
X134709524Y-79654819D01*
X134709524Y-79654819D02*
X134947619Y-79654819D01*
X134947619Y-79654819D02*
X135042857Y-79607200D01*
X135042857Y-79607200D02*
X135090476Y-79559580D01*
X135090476Y-79559580D02*
X135138095Y-79464342D01*
X135138095Y-79464342D02*
X135138095Y-79369104D01*
X135138095Y-79369104D02*
X135090476Y-79273866D01*
X135090476Y-79273866D02*
X135042857Y-79226247D01*
X135042857Y-79226247D02*
X134947619Y-79178628D01*
X134947619Y-79178628D02*
X134757143Y-79131009D01*
X134757143Y-79131009D02*
X134661905Y-79083390D01*
X134661905Y-79083390D02*
X134614286Y-79035771D01*
X134614286Y-79035771D02*
X134566667Y-78940533D01*
X134566667Y-78940533D02*
X134566667Y-78845295D01*
X134566667Y-78845295D02*
X134614286Y-78750057D01*
X134614286Y-78750057D02*
X134661905Y-78702438D01*
X134661905Y-78702438D02*
X134757143Y-78654819D01*
X134757143Y-78654819D02*
X134995238Y-78654819D01*
X134995238Y-78654819D02*
X135138095Y-78702438D01*
X135471429Y-78654819D02*
X135709524Y-79654819D01*
X135709524Y-79654819D02*
X135900000Y-78940533D01*
X135900000Y-78940533D02*
X136090476Y-79654819D01*
X136090476Y-79654819D02*
X136328572Y-78654819D01*
X137138095Y-78988152D02*
X137138095Y-79654819D01*
X136900000Y-78607200D02*
X136661905Y-79321485D01*
X136661905Y-79321485D02*
X137280952Y-79321485D01*
X161338095Y-81254819D02*
X161909523Y-81254819D01*
X161623809Y-82254819D02*
X161623809Y-81254819D01*
X162242857Y-82254819D02*
X162242857Y-81254819D01*
X162242857Y-81254819D02*
X162623809Y-81254819D01*
X162623809Y-81254819D02*
X162719047Y-81302438D01*
X162719047Y-81302438D02*
X162766666Y-81350057D01*
X162766666Y-81350057D02*
X162814285Y-81445295D01*
X162814285Y-81445295D02*
X162814285Y-81588152D01*
X162814285Y-81588152D02*
X162766666Y-81683390D01*
X162766666Y-81683390D02*
X162719047Y-81731009D01*
X162719047Y-81731009D02*
X162623809Y-81778628D01*
X162623809Y-81778628D02*
X162242857Y-81778628D01*
X163766666Y-82254819D02*
X163195238Y-82254819D01*
X163480952Y-82254819D02*
X163480952Y-81254819D01*
X163480952Y-81254819D02*
X163385714Y-81397676D01*
X163385714Y-81397676D02*
X163290476Y-81492914D01*
X163290476Y-81492914D02*
X163195238Y-81540533D01*
X154638095Y-92354819D02*
X154638095Y-93164342D01*
X154638095Y-93164342D02*
X154685714Y-93259580D01*
X154685714Y-93259580D02*
X154733333Y-93307200D01*
X154733333Y-93307200D02*
X154828571Y-93354819D01*
X154828571Y-93354819D02*
X155019047Y-93354819D01*
X155019047Y-93354819D02*
X155114285Y-93307200D01*
X155114285Y-93307200D02*
X155161904Y-93259580D01*
X155161904Y-93259580D02*
X155209523Y-93164342D01*
X155209523Y-93164342D02*
X155209523Y-92354819D01*
X156209523Y-93354819D02*
X155638095Y-93354819D01*
X155923809Y-93354819D02*
X155923809Y-92354819D01*
X155923809Y-92354819D02*
X155828571Y-92497676D01*
X155828571Y-92497676D02*
X155733333Y-92592914D01*
X155733333Y-92592914D02*
X155638095Y-92640533D01*
X169188095Y-94404819D02*
X169188095Y-95214342D01*
X169188095Y-95214342D02*
X169235714Y-95309580D01*
X169235714Y-95309580D02*
X169283333Y-95357200D01*
X169283333Y-95357200D02*
X169378571Y-95404819D01*
X169378571Y-95404819D02*
X169569047Y-95404819D01*
X169569047Y-95404819D02*
X169664285Y-95357200D01*
X169664285Y-95357200D02*
X169711904Y-95309580D01*
X169711904Y-95309580D02*
X169759523Y-95214342D01*
X169759523Y-95214342D02*
X169759523Y-94404819D01*
X170140476Y-94404819D02*
X170759523Y-94404819D01*
X170759523Y-94404819D02*
X170426190Y-94785771D01*
X170426190Y-94785771D02*
X170569047Y-94785771D01*
X170569047Y-94785771D02*
X170664285Y-94833390D01*
X170664285Y-94833390D02*
X170711904Y-94881009D01*
X170711904Y-94881009D02*
X170759523Y-94976247D01*
X170759523Y-94976247D02*
X170759523Y-95214342D01*
X170759523Y-95214342D02*
X170711904Y-95309580D01*
X170711904Y-95309580D02*
X170664285Y-95357200D01*
X170664285Y-95357200D02*
X170569047Y-95404819D01*
X170569047Y-95404819D02*
X170283333Y-95404819D01*
X170283333Y-95404819D02*
X170188095Y-95357200D01*
X170188095Y-95357200D02*
X170140476Y-95309580D01*
X164657142Y-97289580D02*
X164609523Y-97337200D01*
X164609523Y-97337200D02*
X164466666Y-97384819D01*
X164466666Y-97384819D02*
X164371428Y-97384819D01*
X164371428Y-97384819D02*
X164228571Y-97337200D01*
X164228571Y-97337200D02*
X164133333Y-97241961D01*
X164133333Y-97241961D02*
X164085714Y-97146723D01*
X164085714Y-97146723D02*
X164038095Y-96956247D01*
X164038095Y-96956247D02*
X164038095Y-96813390D01*
X164038095Y-96813390D02*
X164085714Y-96622914D01*
X164085714Y-96622914D02*
X164133333Y-96527676D01*
X164133333Y-96527676D02*
X164228571Y-96432438D01*
X164228571Y-96432438D02*
X164371428Y-96384819D01*
X164371428Y-96384819D02*
X164466666Y-96384819D01*
X164466666Y-96384819D02*
X164609523Y-96432438D01*
X164609523Y-96432438D02*
X164657142Y-96480057D01*
X165609523Y-97384819D02*
X165038095Y-97384819D01*
X165323809Y-97384819D02*
X165323809Y-96384819D01*
X165323809Y-96384819D02*
X165228571Y-96527676D01*
X165228571Y-96527676D02*
X165133333Y-96622914D01*
X165133333Y-96622914D02*
X165038095Y-96670533D01*
X165942857Y-96384819D02*
X166609523Y-96384819D01*
X166609523Y-96384819D02*
X166180952Y-97384819D01*
X179466666Y-93324819D02*
X179466666Y-94039104D01*
X179466666Y-94039104D02*
X179419047Y-94181961D01*
X179419047Y-94181961D02*
X179323809Y-94277200D01*
X179323809Y-94277200D02*
X179180952Y-94324819D01*
X179180952Y-94324819D02*
X179085714Y-94324819D01*
X180371428Y-93324819D02*
X180180952Y-93324819D01*
X180180952Y-93324819D02*
X180085714Y-93372438D01*
X180085714Y-93372438D02*
X180038095Y-93420057D01*
X180038095Y-93420057D02*
X179942857Y-93562914D01*
X179942857Y-93562914D02*
X179895238Y-93753390D01*
X179895238Y-93753390D02*
X179895238Y-94134342D01*
X179895238Y-94134342D02*
X179942857Y-94229580D01*
X179942857Y-94229580D02*
X179990476Y-94277200D01*
X179990476Y-94277200D02*
X180085714Y-94324819D01*
X180085714Y-94324819D02*
X180276190Y-94324819D01*
X180276190Y-94324819D02*
X180371428Y-94277200D01*
X180371428Y-94277200D02*
X180419047Y-94229580D01*
X180419047Y-94229580D02*
X180466666Y-94134342D01*
X180466666Y-94134342D02*
X180466666Y-93896247D01*
X180466666Y-93896247D02*
X180419047Y-93801009D01*
X180419047Y-93801009D02*
X180371428Y-93753390D01*
X180371428Y-93753390D02*
X180276190Y-93705771D01*
X180276190Y-93705771D02*
X180085714Y-93705771D01*
X180085714Y-93705771D02*
X179990476Y-93753390D01*
X179990476Y-93753390D02*
X179942857Y-93801009D01*
X179942857Y-93801009D02*
X179895238Y-93896247D01*
X187238095Y-53254819D02*
X187238095Y-52254819D01*
X187238095Y-52731009D02*
X187809523Y-52731009D01*
X187809523Y-53254819D02*
X187809523Y-52254819D01*
X188190476Y-52254819D02*
X188809523Y-52254819D01*
X188809523Y-52254819D02*
X188476190Y-52635771D01*
X188476190Y-52635771D02*
X188619047Y-52635771D01*
X188619047Y-52635771D02*
X188714285Y-52683390D01*
X188714285Y-52683390D02*
X188761904Y-52731009D01*
X188761904Y-52731009D02*
X188809523Y-52826247D01*
X188809523Y-52826247D02*
X188809523Y-53064342D01*
X188809523Y-53064342D02*
X188761904Y-53159580D01*
X188761904Y-53159580D02*
X188714285Y-53207200D01*
X188714285Y-53207200D02*
X188619047Y-53254819D01*
X188619047Y-53254819D02*
X188333333Y-53254819D01*
X188333333Y-53254819D02*
X188238095Y-53207200D01*
X188238095Y-53207200D02*
X188190476Y-53159580D01*
X172407142Y-93179580D02*
X172359523Y-93227200D01*
X172359523Y-93227200D02*
X172216666Y-93274819D01*
X172216666Y-93274819D02*
X172121428Y-93274819D01*
X172121428Y-93274819D02*
X171978571Y-93227200D01*
X171978571Y-93227200D02*
X171883333Y-93131961D01*
X171883333Y-93131961D02*
X171835714Y-93036723D01*
X171835714Y-93036723D02*
X171788095Y-92846247D01*
X171788095Y-92846247D02*
X171788095Y-92703390D01*
X171788095Y-92703390D02*
X171835714Y-92512914D01*
X171835714Y-92512914D02*
X171883333Y-92417676D01*
X171883333Y-92417676D02*
X171978571Y-92322438D01*
X171978571Y-92322438D02*
X172121428Y-92274819D01*
X172121428Y-92274819D02*
X172216666Y-92274819D01*
X172216666Y-92274819D02*
X172359523Y-92322438D01*
X172359523Y-92322438D02*
X172407142Y-92370057D01*
X172788095Y-92370057D02*
X172835714Y-92322438D01*
X172835714Y-92322438D02*
X172930952Y-92274819D01*
X172930952Y-92274819D02*
X173169047Y-92274819D01*
X173169047Y-92274819D02*
X173264285Y-92322438D01*
X173264285Y-92322438D02*
X173311904Y-92370057D01*
X173311904Y-92370057D02*
X173359523Y-92465295D01*
X173359523Y-92465295D02*
X173359523Y-92560533D01*
X173359523Y-92560533D02*
X173311904Y-92703390D01*
X173311904Y-92703390D02*
X172740476Y-93274819D01*
X172740476Y-93274819D02*
X173359523Y-93274819D01*
X173978571Y-92274819D02*
X174073809Y-92274819D01*
X174073809Y-92274819D02*
X174169047Y-92322438D01*
X174169047Y-92322438D02*
X174216666Y-92370057D01*
X174216666Y-92370057D02*
X174264285Y-92465295D01*
X174264285Y-92465295D02*
X174311904Y-92655771D01*
X174311904Y-92655771D02*
X174311904Y-92893866D01*
X174311904Y-92893866D02*
X174264285Y-93084342D01*
X174264285Y-93084342D02*
X174216666Y-93179580D01*
X174216666Y-93179580D02*
X174169047Y-93227200D01*
X174169047Y-93227200D02*
X174073809Y-93274819D01*
X174073809Y-93274819D02*
X173978571Y-93274819D01*
X173978571Y-93274819D02*
X173883333Y-93227200D01*
X173883333Y-93227200D02*
X173835714Y-93179580D01*
X173835714Y-93179580D02*
X173788095Y-93084342D01*
X173788095Y-93084342D02*
X173740476Y-92893866D01*
X173740476Y-92893866D02*
X173740476Y-92655771D01*
X173740476Y-92655771D02*
X173788095Y-92465295D01*
X173788095Y-92465295D02*
X173835714Y-92370057D01*
X173835714Y-92370057D02*
X173883333Y-92322438D01*
X173883333Y-92322438D02*
X173978571Y-92274819D01*
X136424819Y-110933333D02*
X137139104Y-110933333D01*
X137139104Y-110933333D02*
X137281961Y-110980952D01*
X137281961Y-110980952D02*
X137377200Y-111076190D01*
X137377200Y-111076190D02*
X137424819Y-111219047D01*
X137424819Y-111219047D02*
X137424819Y-111314285D01*
X136520057Y-110504761D02*
X136472438Y-110457142D01*
X136472438Y-110457142D02*
X136424819Y-110361904D01*
X136424819Y-110361904D02*
X136424819Y-110123809D01*
X136424819Y-110123809D02*
X136472438Y-110028571D01*
X136472438Y-110028571D02*
X136520057Y-109980952D01*
X136520057Y-109980952D02*
X136615295Y-109933333D01*
X136615295Y-109933333D02*
X136710533Y-109933333D01*
X136710533Y-109933333D02*
X136853390Y-109980952D01*
X136853390Y-109980952D02*
X137424819Y-110552380D01*
X137424819Y-110552380D02*
X137424819Y-109933333D01*
X148324819Y-88517857D02*
X147848628Y-88851190D01*
X148324819Y-89089285D02*
X147324819Y-89089285D01*
X147324819Y-89089285D02*
X147324819Y-88708333D01*
X147324819Y-88708333D02*
X147372438Y-88613095D01*
X147372438Y-88613095D02*
X147420057Y-88565476D01*
X147420057Y-88565476D02*
X147515295Y-88517857D01*
X147515295Y-88517857D02*
X147658152Y-88517857D01*
X147658152Y-88517857D02*
X147753390Y-88565476D01*
X147753390Y-88565476D02*
X147801009Y-88613095D01*
X147801009Y-88613095D02*
X147848628Y-88708333D01*
X147848628Y-88708333D02*
X147848628Y-89089285D01*
X148324819Y-87565476D02*
X148324819Y-88136904D01*
X148324819Y-87851190D02*
X147324819Y-87851190D01*
X147324819Y-87851190D02*
X147467676Y-87946428D01*
X147467676Y-87946428D02*
X147562914Y-88041666D01*
X147562914Y-88041666D02*
X147610533Y-88136904D01*
X147324819Y-86946428D02*
X147324819Y-86851190D01*
X147324819Y-86851190D02*
X147372438Y-86755952D01*
X147372438Y-86755952D02*
X147420057Y-86708333D01*
X147420057Y-86708333D02*
X147515295Y-86660714D01*
X147515295Y-86660714D02*
X147705771Y-86613095D01*
X147705771Y-86613095D02*
X147943866Y-86613095D01*
X147943866Y-86613095D02*
X148134342Y-86660714D01*
X148134342Y-86660714D02*
X148229580Y-86708333D01*
X148229580Y-86708333D02*
X148277200Y-86755952D01*
X148277200Y-86755952D02*
X148324819Y-86851190D01*
X148324819Y-86851190D02*
X148324819Y-86946428D01*
X148324819Y-86946428D02*
X148277200Y-87041666D01*
X148277200Y-87041666D02*
X148229580Y-87089285D01*
X148229580Y-87089285D02*
X148134342Y-87136904D01*
X148134342Y-87136904D02*
X147943866Y-87184523D01*
X147943866Y-87184523D02*
X147705771Y-87184523D01*
X147705771Y-87184523D02*
X147515295Y-87136904D01*
X147515295Y-87136904D02*
X147420057Y-87089285D01*
X147420057Y-87089285D02*
X147372438Y-87041666D01*
X147372438Y-87041666D02*
X147324819Y-86946428D01*
X152479580Y-68742857D02*
X152527200Y-68790476D01*
X152527200Y-68790476D02*
X152574819Y-68933333D01*
X152574819Y-68933333D02*
X152574819Y-69028571D01*
X152574819Y-69028571D02*
X152527200Y-69171428D01*
X152527200Y-69171428D02*
X152431961Y-69266666D01*
X152431961Y-69266666D02*
X152336723Y-69314285D01*
X152336723Y-69314285D02*
X152146247Y-69361904D01*
X152146247Y-69361904D02*
X152003390Y-69361904D01*
X152003390Y-69361904D02*
X151812914Y-69314285D01*
X151812914Y-69314285D02*
X151717676Y-69266666D01*
X151717676Y-69266666D02*
X151622438Y-69171428D01*
X151622438Y-69171428D02*
X151574819Y-69028571D01*
X151574819Y-69028571D02*
X151574819Y-68933333D01*
X151574819Y-68933333D02*
X151622438Y-68790476D01*
X151622438Y-68790476D02*
X151670057Y-68742857D01*
X151670057Y-68361904D02*
X151622438Y-68314285D01*
X151622438Y-68314285D02*
X151574819Y-68219047D01*
X151574819Y-68219047D02*
X151574819Y-67980952D01*
X151574819Y-67980952D02*
X151622438Y-67885714D01*
X151622438Y-67885714D02*
X151670057Y-67838095D01*
X151670057Y-67838095D02*
X151765295Y-67790476D01*
X151765295Y-67790476D02*
X151860533Y-67790476D01*
X151860533Y-67790476D02*
X152003390Y-67838095D01*
X152003390Y-67838095D02*
X152574819Y-68409523D01*
X152574819Y-68409523D02*
X152574819Y-67790476D01*
X152003390Y-67219047D02*
X151955771Y-67314285D01*
X151955771Y-67314285D02*
X151908152Y-67361904D01*
X151908152Y-67361904D02*
X151812914Y-67409523D01*
X151812914Y-67409523D02*
X151765295Y-67409523D01*
X151765295Y-67409523D02*
X151670057Y-67361904D01*
X151670057Y-67361904D02*
X151622438Y-67314285D01*
X151622438Y-67314285D02*
X151574819Y-67219047D01*
X151574819Y-67219047D02*
X151574819Y-67028571D01*
X151574819Y-67028571D02*
X151622438Y-66933333D01*
X151622438Y-66933333D02*
X151670057Y-66885714D01*
X151670057Y-66885714D02*
X151765295Y-66838095D01*
X151765295Y-66838095D02*
X151812914Y-66838095D01*
X151812914Y-66838095D02*
X151908152Y-66885714D01*
X151908152Y-66885714D02*
X151955771Y-66933333D01*
X151955771Y-66933333D02*
X152003390Y-67028571D01*
X152003390Y-67028571D02*
X152003390Y-67219047D01*
X152003390Y-67219047D02*
X152051009Y-67314285D01*
X152051009Y-67314285D02*
X152098628Y-67361904D01*
X152098628Y-67361904D02*
X152193866Y-67409523D01*
X152193866Y-67409523D02*
X152384342Y-67409523D01*
X152384342Y-67409523D02*
X152479580Y-67361904D01*
X152479580Y-67361904D02*
X152527200Y-67314285D01*
X152527200Y-67314285D02*
X152574819Y-67219047D01*
X152574819Y-67219047D02*
X152574819Y-67028571D01*
X152574819Y-67028571D02*
X152527200Y-66933333D01*
X152527200Y-66933333D02*
X152479580Y-66885714D01*
X152479580Y-66885714D02*
X152384342Y-66838095D01*
X152384342Y-66838095D02*
X152193866Y-66838095D01*
X152193866Y-66838095D02*
X152098628Y-66885714D01*
X152098628Y-66885714D02*
X152051009Y-66933333D01*
X152051009Y-66933333D02*
X152003390Y-67028571D01*
X149424819Y-87883333D02*
X150139104Y-87883333D01*
X150139104Y-87883333D02*
X150281961Y-87930952D01*
X150281961Y-87930952D02*
X150377200Y-88026190D01*
X150377200Y-88026190D02*
X150424819Y-88169047D01*
X150424819Y-88169047D02*
X150424819Y-88264285D01*
X150424819Y-86883333D02*
X150424819Y-87454761D01*
X150424819Y-87169047D02*
X149424819Y-87169047D01*
X149424819Y-87169047D02*
X149567676Y-87264285D01*
X149567676Y-87264285D02*
X149662914Y-87359523D01*
X149662914Y-87359523D02*
X149710533Y-87454761D01*
X172407142Y-90979580D02*
X172359523Y-91027200D01*
X172359523Y-91027200D02*
X172216666Y-91074819D01*
X172216666Y-91074819D02*
X172121428Y-91074819D01*
X172121428Y-91074819D02*
X171978571Y-91027200D01*
X171978571Y-91027200D02*
X171883333Y-90931961D01*
X171883333Y-90931961D02*
X171835714Y-90836723D01*
X171835714Y-90836723D02*
X171788095Y-90646247D01*
X171788095Y-90646247D02*
X171788095Y-90503390D01*
X171788095Y-90503390D02*
X171835714Y-90312914D01*
X171835714Y-90312914D02*
X171883333Y-90217676D01*
X171883333Y-90217676D02*
X171978571Y-90122438D01*
X171978571Y-90122438D02*
X172121428Y-90074819D01*
X172121428Y-90074819D02*
X172216666Y-90074819D01*
X172216666Y-90074819D02*
X172359523Y-90122438D01*
X172359523Y-90122438D02*
X172407142Y-90170057D01*
X172740476Y-90074819D02*
X173359523Y-90074819D01*
X173359523Y-90074819D02*
X173026190Y-90455771D01*
X173026190Y-90455771D02*
X173169047Y-90455771D01*
X173169047Y-90455771D02*
X173264285Y-90503390D01*
X173264285Y-90503390D02*
X173311904Y-90551009D01*
X173311904Y-90551009D02*
X173359523Y-90646247D01*
X173359523Y-90646247D02*
X173359523Y-90884342D01*
X173359523Y-90884342D02*
X173311904Y-90979580D01*
X173311904Y-90979580D02*
X173264285Y-91027200D01*
X173264285Y-91027200D02*
X173169047Y-91074819D01*
X173169047Y-91074819D02*
X172883333Y-91074819D01*
X172883333Y-91074819D02*
X172788095Y-91027200D01*
X172788095Y-91027200D02*
X172740476Y-90979580D01*
X174311904Y-91074819D02*
X173740476Y-91074819D01*
X174026190Y-91074819D02*
X174026190Y-90074819D01*
X174026190Y-90074819D02*
X173930952Y-90217676D01*
X173930952Y-90217676D02*
X173835714Y-90312914D01*
X173835714Y-90312914D02*
X173740476Y-90360533D01*
X147524819Y-67642857D02*
X147048628Y-67976190D01*
X147524819Y-68214285D02*
X146524819Y-68214285D01*
X146524819Y-68214285D02*
X146524819Y-67833333D01*
X146524819Y-67833333D02*
X146572438Y-67738095D01*
X146572438Y-67738095D02*
X146620057Y-67690476D01*
X146620057Y-67690476D02*
X146715295Y-67642857D01*
X146715295Y-67642857D02*
X146858152Y-67642857D01*
X146858152Y-67642857D02*
X146953390Y-67690476D01*
X146953390Y-67690476D02*
X147001009Y-67738095D01*
X147001009Y-67738095D02*
X147048628Y-67833333D01*
X147048628Y-67833333D02*
X147048628Y-68214285D01*
X147524819Y-66690476D02*
X147524819Y-67261904D01*
X147524819Y-66976190D02*
X146524819Y-66976190D01*
X146524819Y-66976190D02*
X146667676Y-67071428D01*
X146667676Y-67071428D02*
X146762914Y-67166666D01*
X146762914Y-67166666D02*
X146810533Y-67261904D01*
X147524819Y-65738095D02*
X147524819Y-66309523D01*
X147524819Y-66023809D02*
X146524819Y-66023809D01*
X146524819Y-66023809D02*
X146667676Y-66119047D01*
X146667676Y-66119047D02*
X146762914Y-66214285D01*
X146762914Y-66214285D02*
X146810533Y-66309523D01*
X163179580Y-73242857D02*
X163227200Y-73290476D01*
X163227200Y-73290476D02*
X163274819Y-73433333D01*
X163274819Y-73433333D02*
X163274819Y-73528571D01*
X163274819Y-73528571D02*
X163227200Y-73671428D01*
X163227200Y-73671428D02*
X163131961Y-73766666D01*
X163131961Y-73766666D02*
X163036723Y-73814285D01*
X163036723Y-73814285D02*
X162846247Y-73861904D01*
X162846247Y-73861904D02*
X162703390Y-73861904D01*
X162703390Y-73861904D02*
X162512914Y-73814285D01*
X162512914Y-73814285D02*
X162417676Y-73766666D01*
X162417676Y-73766666D02*
X162322438Y-73671428D01*
X162322438Y-73671428D02*
X162274819Y-73528571D01*
X162274819Y-73528571D02*
X162274819Y-73433333D01*
X162274819Y-73433333D02*
X162322438Y-73290476D01*
X162322438Y-73290476D02*
X162370057Y-73242857D01*
X162370057Y-72861904D02*
X162322438Y-72814285D01*
X162322438Y-72814285D02*
X162274819Y-72719047D01*
X162274819Y-72719047D02*
X162274819Y-72480952D01*
X162274819Y-72480952D02*
X162322438Y-72385714D01*
X162322438Y-72385714D02*
X162370057Y-72338095D01*
X162370057Y-72338095D02*
X162465295Y-72290476D01*
X162465295Y-72290476D02*
X162560533Y-72290476D01*
X162560533Y-72290476D02*
X162703390Y-72338095D01*
X162703390Y-72338095D02*
X163274819Y-72909523D01*
X163274819Y-72909523D02*
X163274819Y-72290476D01*
X163274819Y-71338095D02*
X163274819Y-71909523D01*
X163274819Y-71623809D02*
X162274819Y-71623809D01*
X162274819Y-71623809D02*
X162417676Y-71719047D01*
X162417676Y-71719047D02*
X162512914Y-71814285D01*
X162512914Y-71814285D02*
X162560533Y-71909523D01*
X177357142Y-101879580D02*
X177309523Y-101927200D01*
X177309523Y-101927200D02*
X177166666Y-101974819D01*
X177166666Y-101974819D02*
X177071428Y-101974819D01*
X177071428Y-101974819D02*
X176928571Y-101927200D01*
X176928571Y-101927200D02*
X176833333Y-101831961D01*
X176833333Y-101831961D02*
X176785714Y-101736723D01*
X176785714Y-101736723D02*
X176738095Y-101546247D01*
X176738095Y-101546247D02*
X176738095Y-101403390D01*
X176738095Y-101403390D02*
X176785714Y-101212914D01*
X176785714Y-101212914D02*
X176833333Y-101117676D01*
X176833333Y-101117676D02*
X176928571Y-101022438D01*
X176928571Y-101022438D02*
X177071428Y-100974819D01*
X177071428Y-100974819D02*
X177166666Y-100974819D01*
X177166666Y-100974819D02*
X177309523Y-101022438D01*
X177309523Y-101022438D02*
X177357142Y-101070057D01*
X177690476Y-100974819D02*
X178309523Y-100974819D01*
X178309523Y-100974819D02*
X177976190Y-101355771D01*
X177976190Y-101355771D02*
X178119047Y-101355771D01*
X178119047Y-101355771D02*
X178214285Y-101403390D01*
X178214285Y-101403390D02*
X178261904Y-101451009D01*
X178261904Y-101451009D02*
X178309523Y-101546247D01*
X178309523Y-101546247D02*
X178309523Y-101784342D01*
X178309523Y-101784342D02*
X178261904Y-101879580D01*
X178261904Y-101879580D02*
X178214285Y-101927200D01*
X178214285Y-101927200D02*
X178119047Y-101974819D01*
X178119047Y-101974819D02*
X177833333Y-101974819D01*
X177833333Y-101974819D02*
X177738095Y-101927200D01*
X177738095Y-101927200D02*
X177690476Y-101879580D01*
X178928571Y-100974819D02*
X179023809Y-100974819D01*
X179023809Y-100974819D02*
X179119047Y-101022438D01*
X179119047Y-101022438D02*
X179166666Y-101070057D01*
X179166666Y-101070057D02*
X179214285Y-101165295D01*
X179214285Y-101165295D02*
X179261904Y-101355771D01*
X179261904Y-101355771D02*
X179261904Y-101593866D01*
X179261904Y-101593866D02*
X179214285Y-101784342D01*
X179214285Y-101784342D02*
X179166666Y-101879580D01*
X179166666Y-101879580D02*
X179119047Y-101927200D01*
X179119047Y-101927200D02*
X179023809Y-101974819D01*
X179023809Y-101974819D02*
X178928571Y-101974819D01*
X178928571Y-101974819D02*
X178833333Y-101927200D01*
X178833333Y-101927200D02*
X178785714Y-101879580D01*
X178785714Y-101879580D02*
X178738095Y-101784342D01*
X178738095Y-101784342D02*
X178690476Y-101593866D01*
X178690476Y-101593866D02*
X178690476Y-101355771D01*
X178690476Y-101355771D02*
X178738095Y-101165295D01*
X178738095Y-101165295D02*
X178785714Y-101070057D01*
X178785714Y-101070057D02*
X178833333Y-101022438D01*
X178833333Y-101022438D02*
X178928571Y-100974819D01*
X141333333Y-94229580D02*
X141285714Y-94277200D01*
X141285714Y-94277200D02*
X141142857Y-94324819D01*
X141142857Y-94324819D02*
X141047619Y-94324819D01*
X141047619Y-94324819D02*
X140904762Y-94277200D01*
X140904762Y-94277200D02*
X140809524Y-94181961D01*
X140809524Y-94181961D02*
X140761905Y-94086723D01*
X140761905Y-94086723D02*
X140714286Y-93896247D01*
X140714286Y-93896247D02*
X140714286Y-93753390D01*
X140714286Y-93753390D02*
X140761905Y-93562914D01*
X140761905Y-93562914D02*
X140809524Y-93467676D01*
X140809524Y-93467676D02*
X140904762Y-93372438D01*
X140904762Y-93372438D02*
X141047619Y-93324819D01*
X141047619Y-93324819D02*
X141142857Y-93324819D01*
X141142857Y-93324819D02*
X141285714Y-93372438D01*
X141285714Y-93372438D02*
X141333333Y-93420057D01*
X141809524Y-94324819D02*
X142000000Y-94324819D01*
X142000000Y-94324819D02*
X142095238Y-94277200D01*
X142095238Y-94277200D02*
X142142857Y-94229580D01*
X142142857Y-94229580D02*
X142238095Y-94086723D01*
X142238095Y-94086723D02*
X142285714Y-93896247D01*
X142285714Y-93896247D02*
X142285714Y-93515295D01*
X142285714Y-93515295D02*
X142238095Y-93420057D01*
X142238095Y-93420057D02*
X142190476Y-93372438D01*
X142190476Y-93372438D02*
X142095238Y-93324819D01*
X142095238Y-93324819D02*
X141904762Y-93324819D01*
X141904762Y-93324819D02*
X141809524Y-93372438D01*
X141809524Y-93372438D02*
X141761905Y-93420057D01*
X141761905Y-93420057D02*
X141714286Y-93515295D01*
X141714286Y-93515295D02*
X141714286Y-93753390D01*
X141714286Y-93753390D02*
X141761905Y-93848628D01*
X141761905Y-93848628D02*
X141809524Y-93896247D01*
X141809524Y-93896247D02*
X141904762Y-93943866D01*
X141904762Y-93943866D02*
X142095238Y-93943866D01*
X142095238Y-93943866D02*
X142190476Y-93896247D01*
X142190476Y-93896247D02*
X142238095Y-93848628D01*
X142238095Y-93848628D02*
X142285714Y-93753390D01*
X140347142Y-83424819D02*
X140013809Y-82948628D01*
X139775714Y-83424819D02*
X139775714Y-82424819D01*
X139775714Y-82424819D02*
X140156666Y-82424819D01*
X140156666Y-82424819D02*
X140251904Y-82472438D01*
X140251904Y-82472438D02*
X140299523Y-82520057D01*
X140299523Y-82520057D02*
X140347142Y-82615295D01*
X140347142Y-82615295D02*
X140347142Y-82758152D01*
X140347142Y-82758152D02*
X140299523Y-82853390D01*
X140299523Y-82853390D02*
X140251904Y-82901009D01*
X140251904Y-82901009D02*
X140156666Y-82948628D01*
X140156666Y-82948628D02*
X139775714Y-82948628D01*
X140680476Y-82424819D02*
X141299523Y-82424819D01*
X141299523Y-82424819D02*
X140966190Y-82805771D01*
X140966190Y-82805771D02*
X141109047Y-82805771D01*
X141109047Y-82805771D02*
X141204285Y-82853390D01*
X141204285Y-82853390D02*
X141251904Y-82901009D01*
X141251904Y-82901009D02*
X141299523Y-82996247D01*
X141299523Y-82996247D02*
X141299523Y-83234342D01*
X141299523Y-83234342D02*
X141251904Y-83329580D01*
X141251904Y-83329580D02*
X141204285Y-83377200D01*
X141204285Y-83377200D02*
X141109047Y-83424819D01*
X141109047Y-83424819D02*
X140823333Y-83424819D01*
X140823333Y-83424819D02*
X140728095Y-83377200D01*
X140728095Y-83377200D02*
X140680476Y-83329580D01*
X141632857Y-82424819D02*
X142251904Y-82424819D01*
X142251904Y-82424819D02*
X141918571Y-82805771D01*
X141918571Y-82805771D02*
X142061428Y-82805771D01*
X142061428Y-82805771D02*
X142156666Y-82853390D01*
X142156666Y-82853390D02*
X142204285Y-82901009D01*
X142204285Y-82901009D02*
X142251904Y-82996247D01*
X142251904Y-82996247D02*
X142251904Y-83234342D01*
X142251904Y-83234342D02*
X142204285Y-83329580D01*
X142204285Y-83329580D02*
X142156666Y-83377200D01*
X142156666Y-83377200D02*
X142061428Y-83424819D01*
X142061428Y-83424819D02*
X141775714Y-83424819D01*
X141775714Y-83424819D02*
X141680476Y-83377200D01*
X141680476Y-83377200D02*
X141632857Y-83329580D01*
D12*
X152038095Y-60257419D02*
X152038095Y-61066942D01*
X152038095Y-61066942D02*
X152085714Y-61162180D01*
X152085714Y-61162180D02*
X152133333Y-61209800D01*
X152133333Y-61209800D02*
X152228571Y-61257419D01*
X152228571Y-61257419D02*
X152419047Y-61257419D01*
X152419047Y-61257419D02*
X152514285Y-61209800D01*
X152514285Y-61209800D02*
X152561904Y-61162180D01*
X152561904Y-61162180D02*
X152609523Y-61066942D01*
X152609523Y-61066942D02*
X152609523Y-60257419D01*
X153514285Y-60590752D02*
X153514285Y-61257419D01*
X153276190Y-60209800D02*
X153038095Y-60924085D01*
X153038095Y-60924085D02*
X153657142Y-60924085D01*
D11*
X136128571Y-103231009D02*
X135795238Y-103231009D01*
X135795238Y-103754819D02*
X135795238Y-102754819D01*
X135795238Y-102754819D02*
X136271428Y-102754819D01*
X136652381Y-103754819D02*
X136652381Y-102754819D01*
X137128571Y-103754819D02*
X137128571Y-102754819D01*
X137128571Y-102754819D02*
X137366666Y-102754819D01*
X137366666Y-102754819D02*
X137509523Y-102802438D01*
X137509523Y-102802438D02*
X137604761Y-102897676D01*
X137604761Y-102897676D02*
X137652380Y-102992914D01*
X137652380Y-102992914D02*
X137699999Y-103183390D01*
X137699999Y-103183390D02*
X137699999Y-103326247D01*
X137699999Y-103326247D02*
X137652380Y-103516723D01*
X137652380Y-103516723D02*
X137604761Y-103611961D01*
X137604761Y-103611961D02*
X137509523Y-103707200D01*
X137509523Y-103707200D02*
X137366666Y-103754819D01*
X137366666Y-103754819D02*
X137128571Y-103754819D01*
X138033333Y-102754819D02*
X138652380Y-102754819D01*
X138652380Y-102754819D02*
X138319047Y-103135771D01*
X138319047Y-103135771D02*
X138461904Y-103135771D01*
X138461904Y-103135771D02*
X138557142Y-103183390D01*
X138557142Y-103183390D02*
X138604761Y-103231009D01*
X138604761Y-103231009D02*
X138652380Y-103326247D01*
X138652380Y-103326247D02*
X138652380Y-103564342D01*
X138652380Y-103564342D02*
X138604761Y-103659580D01*
X138604761Y-103659580D02*
X138557142Y-103707200D01*
X138557142Y-103707200D02*
X138461904Y-103754819D01*
X138461904Y-103754819D02*
X138176190Y-103754819D01*
X138176190Y-103754819D02*
X138080952Y-103707200D01*
X138080952Y-103707200D02*
X138033333Y-103659580D01*
X136928571Y-56931009D02*
X136595238Y-56931009D01*
X136595238Y-57454819D02*
X136595238Y-56454819D01*
X136595238Y-56454819D02*
X137071428Y-56454819D01*
X137452381Y-57454819D02*
X137452381Y-56454819D01*
X137928571Y-57454819D02*
X137928571Y-56454819D01*
X137928571Y-56454819D02*
X138166666Y-56454819D01*
X138166666Y-56454819D02*
X138309523Y-56502438D01*
X138309523Y-56502438D02*
X138404761Y-56597676D01*
X138404761Y-56597676D02*
X138452380Y-56692914D01*
X138452380Y-56692914D02*
X138499999Y-56883390D01*
X138499999Y-56883390D02*
X138499999Y-57026247D01*
X138499999Y-57026247D02*
X138452380Y-57216723D01*
X138452380Y-57216723D02*
X138404761Y-57311961D01*
X138404761Y-57311961D02*
X138309523Y-57407200D01*
X138309523Y-57407200D02*
X138166666Y-57454819D01*
X138166666Y-57454819D02*
X137928571Y-57454819D01*
X139452380Y-57454819D02*
X138880952Y-57454819D01*
X139166666Y-57454819D02*
X139166666Y-56454819D01*
X139166666Y-56454819D02*
X139071428Y-56597676D01*
X139071428Y-56597676D02*
X138976190Y-56692914D01*
X138976190Y-56692914D02*
X138880952Y-56740533D01*
X153004819Y-68266666D02*
X153004819Y-68742856D01*
X153004819Y-68742856D02*
X152004819Y-68742856D01*
X153004819Y-67409523D02*
X153004819Y-67980951D01*
X153004819Y-67695237D02*
X152004819Y-67695237D01*
X152004819Y-67695237D02*
X152147676Y-67790475D01*
X152147676Y-67790475D02*
X152242914Y-67885713D01*
X152242914Y-67885713D02*
X152290533Y-67980951D01*
X161688095Y-60354819D02*
X162259523Y-60354819D01*
X161973809Y-61354819D02*
X161973809Y-60354819D01*
X162592857Y-61354819D02*
X162592857Y-60354819D01*
X162592857Y-60354819D02*
X162973809Y-60354819D01*
X162973809Y-60354819D02*
X163069047Y-60402438D01*
X163069047Y-60402438D02*
X163116666Y-60450057D01*
X163116666Y-60450057D02*
X163164285Y-60545295D01*
X163164285Y-60545295D02*
X163164285Y-60688152D01*
X163164285Y-60688152D02*
X163116666Y-60783390D01*
X163116666Y-60783390D02*
X163069047Y-60831009D01*
X163069047Y-60831009D02*
X162973809Y-60878628D01*
X162973809Y-60878628D02*
X162592857Y-60878628D01*
X163497619Y-60354819D02*
X164116666Y-60354819D01*
X164116666Y-60354819D02*
X163783333Y-60735771D01*
X163783333Y-60735771D02*
X163926190Y-60735771D01*
X163926190Y-60735771D02*
X164021428Y-60783390D01*
X164021428Y-60783390D02*
X164069047Y-60831009D01*
X164069047Y-60831009D02*
X164116666Y-60926247D01*
X164116666Y-60926247D02*
X164116666Y-61164342D01*
X164116666Y-61164342D02*
X164069047Y-61259580D01*
X164069047Y-61259580D02*
X164021428Y-61307200D01*
X164021428Y-61307200D02*
X163926190Y-61354819D01*
X163926190Y-61354819D02*
X163640476Y-61354819D01*
X163640476Y-61354819D02*
X163545238Y-61307200D01*
X163545238Y-61307200D02*
X163497619Y-61259580D01*
X172157142Y-74529580D02*
X172109523Y-74577200D01*
X172109523Y-74577200D02*
X171966666Y-74624819D01*
X171966666Y-74624819D02*
X171871428Y-74624819D01*
X171871428Y-74624819D02*
X171728571Y-74577200D01*
X171728571Y-74577200D02*
X171633333Y-74481961D01*
X171633333Y-74481961D02*
X171585714Y-74386723D01*
X171585714Y-74386723D02*
X171538095Y-74196247D01*
X171538095Y-74196247D02*
X171538095Y-74053390D01*
X171538095Y-74053390D02*
X171585714Y-73862914D01*
X171585714Y-73862914D02*
X171633333Y-73767676D01*
X171633333Y-73767676D02*
X171728571Y-73672438D01*
X171728571Y-73672438D02*
X171871428Y-73624819D01*
X171871428Y-73624819D02*
X171966666Y-73624819D01*
X171966666Y-73624819D02*
X172109523Y-73672438D01*
X172109523Y-73672438D02*
X172157142Y-73720057D01*
X172538095Y-73720057D02*
X172585714Y-73672438D01*
X172585714Y-73672438D02*
X172680952Y-73624819D01*
X172680952Y-73624819D02*
X172919047Y-73624819D01*
X172919047Y-73624819D02*
X173014285Y-73672438D01*
X173014285Y-73672438D02*
X173061904Y-73720057D01*
X173061904Y-73720057D02*
X173109523Y-73815295D01*
X173109523Y-73815295D02*
X173109523Y-73910533D01*
X173109523Y-73910533D02*
X173061904Y-74053390D01*
X173061904Y-74053390D02*
X172490476Y-74624819D01*
X172490476Y-74624819D02*
X173109523Y-74624819D01*
X173966666Y-73624819D02*
X173776190Y-73624819D01*
X173776190Y-73624819D02*
X173680952Y-73672438D01*
X173680952Y-73672438D02*
X173633333Y-73720057D01*
X173633333Y-73720057D02*
X173538095Y-73862914D01*
X173538095Y-73862914D02*
X173490476Y-74053390D01*
X173490476Y-74053390D02*
X173490476Y-74434342D01*
X173490476Y-74434342D02*
X173538095Y-74529580D01*
X173538095Y-74529580D02*
X173585714Y-74577200D01*
X173585714Y-74577200D02*
X173680952Y-74624819D01*
X173680952Y-74624819D02*
X173871428Y-74624819D01*
X173871428Y-74624819D02*
X173966666Y-74577200D01*
X173966666Y-74577200D02*
X174014285Y-74529580D01*
X174014285Y-74529580D02*
X174061904Y-74434342D01*
X174061904Y-74434342D02*
X174061904Y-74196247D01*
X174061904Y-74196247D02*
X174014285Y-74101009D01*
X174014285Y-74101009D02*
X173966666Y-74053390D01*
X173966666Y-74053390D02*
X173871428Y-74005771D01*
X173871428Y-74005771D02*
X173680952Y-74005771D01*
X173680952Y-74005771D02*
X173585714Y-74053390D01*
X173585714Y-74053390D02*
X173538095Y-74101009D01*
X173538095Y-74101009D02*
X173490476Y-74196247D01*
X145159580Y-99466666D02*
X145207200Y-99514285D01*
X145207200Y-99514285D02*
X145254819Y-99657142D01*
X145254819Y-99657142D02*
X145254819Y-99752380D01*
X145254819Y-99752380D02*
X145207200Y-99895237D01*
X145207200Y-99895237D02*
X145111961Y-99990475D01*
X145111961Y-99990475D02*
X145016723Y-100038094D01*
X145016723Y-100038094D02*
X144826247Y-100085713D01*
X144826247Y-100085713D02*
X144683390Y-100085713D01*
X144683390Y-100085713D02*
X144492914Y-100038094D01*
X144492914Y-100038094D02*
X144397676Y-99990475D01*
X144397676Y-99990475D02*
X144302438Y-99895237D01*
X144302438Y-99895237D02*
X144254819Y-99752380D01*
X144254819Y-99752380D02*
X144254819Y-99657142D01*
X144254819Y-99657142D02*
X144302438Y-99514285D01*
X144302438Y-99514285D02*
X144350057Y-99466666D01*
X144254819Y-99133332D02*
X144254819Y-98466666D01*
X144254819Y-98466666D02*
X145254819Y-98895237D01*
X144233333Y-83079580D02*
X144185714Y-83127200D01*
X144185714Y-83127200D02*
X144042857Y-83174819D01*
X144042857Y-83174819D02*
X143947619Y-83174819D01*
X143947619Y-83174819D02*
X143804762Y-83127200D01*
X143804762Y-83127200D02*
X143709524Y-83031961D01*
X143709524Y-83031961D02*
X143661905Y-82936723D01*
X143661905Y-82936723D02*
X143614286Y-82746247D01*
X143614286Y-82746247D02*
X143614286Y-82603390D01*
X143614286Y-82603390D02*
X143661905Y-82412914D01*
X143661905Y-82412914D02*
X143709524Y-82317676D01*
X143709524Y-82317676D02*
X143804762Y-82222438D01*
X143804762Y-82222438D02*
X143947619Y-82174819D01*
X143947619Y-82174819D02*
X144042857Y-82174819D01*
X144042857Y-82174819D02*
X144185714Y-82222438D01*
X144185714Y-82222438D02*
X144233333Y-82270057D01*
X144804762Y-82603390D02*
X144709524Y-82555771D01*
X144709524Y-82555771D02*
X144661905Y-82508152D01*
X144661905Y-82508152D02*
X144614286Y-82412914D01*
X144614286Y-82412914D02*
X144614286Y-82365295D01*
X144614286Y-82365295D02*
X144661905Y-82270057D01*
X144661905Y-82270057D02*
X144709524Y-82222438D01*
X144709524Y-82222438D02*
X144804762Y-82174819D01*
X144804762Y-82174819D02*
X144995238Y-82174819D01*
X144995238Y-82174819D02*
X145090476Y-82222438D01*
X145090476Y-82222438D02*
X145138095Y-82270057D01*
X145138095Y-82270057D02*
X145185714Y-82365295D01*
X145185714Y-82365295D02*
X145185714Y-82412914D01*
X145185714Y-82412914D02*
X145138095Y-82508152D01*
X145138095Y-82508152D02*
X145090476Y-82555771D01*
X145090476Y-82555771D02*
X144995238Y-82603390D01*
X144995238Y-82603390D02*
X144804762Y-82603390D01*
X144804762Y-82603390D02*
X144709524Y-82651009D01*
X144709524Y-82651009D02*
X144661905Y-82698628D01*
X144661905Y-82698628D02*
X144614286Y-82793866D01*
X144614286Y-82793866D02*
X144614286Y-82984342D01*
X144614286Y-82984342D02*
X144661905Y-83079580D01*
X144661905Y-83079580D02*
X144709524Y-83127200D01*
X144709524Y-83127200D02*
X144804762Y-83174819D01*
X144804762Y-83174819D02*
X144995238Y-83174819D01*
X144995238Y-83174819D02*
X145090476Y-83127200D01*
X145090476Y-83127200D02*
X145138095Y-83079580D01*
X145138095Y-83079580D02*
X145185714Y-82984342D01*
X145185714Y-82984342D02*
X145185714Y-82793866D01*
X145185714Y-82793866D02*
X145138095Y-82698628D01*
X145138095Y-82698628D02*
X145090476Y-82651009D01*
X145090476Y-82651009D02*
X144995238Y-82603390D01*
X132407200Y-95833332D02*
X132454819Y-95690475D01*
X132454819Y-95690475D02*
X132454819Y-95452380D01*
X132454819Y-95452380D02*
X132407200Y-95357142D01*
X132407200Y-95357142D02*
X132359580Y-95309523D01*
X132359580Y-95309523D02*
X132264342Y-95261904D01*
X132264342Y-95261904D02*
X132169104Y-95261904D01*
X132169104Y-95261904D02*
X132073866Y-95309523D01*
X132073866Y-95309523D02*
X132026247Y-95357142D01*
X132026247Y-95357142D02*
X131978628Y-95452380D01*
X131978628Y-95452380D02*
X131931009Y-95642856D01*
X131931009Y-95642856D02*
X131883390Y-95738094D01*
X131883390Y-95738094D02*
X131835771Y-95785713D01*
X131835771Y-95785713D02*
X131740533Y-95833332D01*
X131740533Y-95833332D02*
X131645295Y-95833332D01*
X131645295Y-95833332D02*
X131550057Y-95785713D01*
X131550057Y-95785713D02*
X131502438Y-95738094D01*
X131502438Y-95738094D02*
X131454819Y-95642856D01*
X131454819Y-95642856D02*
X131454819Y-95404761D01*
X131454819Y-95404761D02*
X131502438Y-95261904D01*
X131454819Y-94928570D02*
X132454819Y-94690475D01*
X132454819Y-94690475D02*
X131740533Y-94499999D01*
X131740533Y-94499999D02*
X132454819Y-94309523D01*
X132454819Y-94309523D02*
X131454819Y-94071428D01*
X132454819Y-93166666D02*
X132454819Y-93738094D01*
X132454819Y-93452380D02*
X131454819Y-93452380D01*
X131454819Y-93452380D02*
X131597676Y-93547618D01*
X131597676Y-93547618D02*
X131692914Y-93642856D01*
X131692914Y-93642856D02*
X131740533Y-93738094D01*
X183929580Y-73242857D02*
X183977200Y-73290476D01*
X183977200Y-73290476D02*
X184024819Y-73433333D01*
X184024819Y-73433333D02*
X184024819Y-73528571D01*
X184024819Y-73528571D02*
X183977200Y-73671428D01*
X183977200Y-73671428D02*
X183881961Y-73766666D01*
X183881961Y-73766666D02*
X183786723Y-73814285D01*
X183786723Y-73814285D02*
X183596247Y-73861904D01*
X183596247Y-73861904D02*
X183453390Y-73861904D01*
X183453390Y-73861904D02*
X183262914Y-73814285D01*
X183262914Y-73814285D02*
X183167676Y-73766666D01*
X183167676Y-73766666D02*
X183072438Y-73671428D01*
X183072438Y-73671428D02*
X183024819Y-73528571D01*
X183024819Y-73528571D02*
X183024819Y-73433333D01*
X183024819Y-73433333D02*
X183072438Y-73290476D01*
X183072438Y-73290476D02*
X183120057Y-73242857D01*
X183120057Y-72861904D02*
X183072438Y-72814285D01*
X183072438Y-72814285D02*
X183024819Y-72719047D01*
X183024819Y-72719047D02*
X183024819Y-72480952D01*
X183024819Y-72480952D02*
X183072438Y-72385714D01*
X183072438Y-72385714D02*
X183120057Y-72338095D01*
X183120057Y-72338095D02*
X183215295Y-72290476D01*
X183215295Y-72290476D02*
X183310533Y-72290476D01*
X183310533Y-72290476D02*
X183453390Y-72338095D01*
X183453390Y-72338095D02*
X184024819Y-72909523D01*
X184024819Y-72909523D02*
X184024819Y-72290476D01*
X183024819Y-71957142D02*
X183024819Y-71338095D01*
X183024819Y-71338095D02*
X183405771Y-71671428D01*
X183405771Y-71671428D02*
X183405771Y-71528571D01*
X183405771Y-71528571D02*
X183453390Y-71433333D01*
X183453390Y-71433333D02*
X183501009Y-71385714D01*
X183501009Y-71385714D02*
X183596247Y-71338095D01*
X183596247Y-71338095D02*
X183834342Y-71338095D01*
X183834342Y-71338095D02*
X183929580Y-71385714D01*
X183929580Y-71385714D02*
X183977200Y-71433333D01*
X183977200Y-71433333D02*
X184024819Y-71528571D01*
X184024819Y-71528571D02*
X184024819Y-71814285D01*
X184024819Y-71814285D02*
X183977200Y-71909523D01*
X183977200Y-71909523D02*
X183929580Y-71957142D01*
X170684819Y-112142857D02*
X170208628Y-112476190D01*
X170684819Y-112714285D02*
X169684819Y-112714285D01*
X169684819Y-112714285D02*
X169684819Y-112333333D01*
X169684819Y-112333333D02*
X169732438Y-112238095D01*
X169732438Y-112238095D02*
X169780057Y-112190476D01*
X169780057Y-112190476D02*
X169875295Y-112142857D01*
X169875295Y-112142857D02*
X170018152Y-112142857D01*
X170018152Y-112142857D02*
X170113390Y-112190476D01*
X170113390Y-112190476D02*
X170161009Y-112238095D01*
X170161009Y-112238095D02*
X170208628Y-112333333D01*
X170208628Y-112333333D02*
X170208628Y-112714285D01*
X170684819Y-111190476D02*
X170684819Y-111761904D01*
X170684819Y-111476190D02*
X169684819Y-111476190D01*
X169684819Y-111476190D02*
X169827676Y-111571428D01*
X169827676Y-111571428D02*
X169922914Y-111666666D01*
X169922914Y-111666666D02*
X169970533Y-111761904D01*
X170113390Y-110619047D02*
X170065771Y-110714285D01*
X170065771Y-110714285D02*
X170018152Y-110761904D01*
X170018152Y-110761904D02*
X169922914Y-110809523D01*
X169922914Y-110809523D02*
X169875295Y-110809523D01*
X169875295Y-110809523D02*
X169780057Y-110761904D01*
X169780057Y-110761904D02*
X169732438Y-110714285D01*
X169732438Y-110714285D02*
X169684819Y-110619047D01*
X169684819Y-110619047D02*
X169684819Y-110428571D01*
X169684819Y-110428571D02*
X169732438Y-110333333D01*
X169732438Y-110333333D02*
X169780057Y-110285714D01*
X169780057Y-110285714D02*
X169875295Y-110238095D01*
X169875295Y-110238095D02*
X169922914Y-110238095D01*
X169922914Y-110238095D02*
X170018152Y-110285714D01*
X170018152Y-110285714D02*
X170065771Y-110333333D01*
X170065771Y-110333333D02*
X170113390Y-110428571D01*
X170113390Y-110428571D02*
X170113390Y-110619047D01*
X170113390Y-110619047D02*
X170161009Y-110714285D01*
X170161009Y-110714285D02*
X170208628Y-110761904D01*
X170208628Y-110761904D02*
X170303866Y-110809523D01*
X170303866Y-110809523D02*
X170494342Y-110809523D01*
X170494342Y-110809523D02*
X170589580Y-110761904D01*
X170589580Y-110761904D02*
X170637200Y-110714285D01*
X170637200Y-110714285D02*
X170684819Y-110619047D01*
X170684819Y-110619047D02*
X170684819Y-110428571D01*
X170684819Y-110428571D02*
X170637200Y-110333333D01*
X170637200Y-110333333D02*
X170589580Y-110285714D01*
X170589580Y-110285714D02*
X170494342Y-110238095D01*
X170494342Y-110238095D02*
X170303866Y-110238095D01*
X170303866Y-110238095D02*
X170208628Y-110285714D01*
X170208628Y-110285714D02*
X170161009Y-110333333D01*
X170161009Y-110333333D02*
X170113390Y-110428571D01*
X159984819Y-68416666D02*
X159508628Y-68749999D01*
X159984819Y-68988094D02*
X158984819Y-68988094D01*
X158984819Y-68988094D02*
X158984819Y-68607142D01*
X158984819Y-68607142D02*
X159032438Y-68511904D01*
X159032438Y-68511904D02*
X159080057Y-68464285D01*
X159080057Y-68464285D02*
X159175295Y-68416666D01*
X159175295Y-68416666D02*
X159318152Y-68416666D01*
X159318152Y-68416666D02*
X159413390Y-68464285D01*
X159413390Y-68464285D02*
X159461009Y-68511904D01*
X159461009Y-68511904D02*
X159508628Y-68607142D01*
X159508628Y-68607142D02*
X159508628Y-68988094D01*
X158984819Y-68083332D02*
X158984819Y-67416666D01*
X158984819Y-67416666D02*
X159984819Y-67845237D01*
X143988628Y-98866190D02*
X144464819Y-98866190D01*
X143464819Y-99199523D02*
X143988628Y-98866190D01*
X143988628Y-98866190D02*
X143464819Y-98532857D01*
X144464819Y-97675714D02*
X144464819Y-98247142D01*
X144464819Y-97961428D02*
X143464819Y-97961428D01*
X143464819Y-97961428D02*
X143607676Y-98056666D01*
X143607676Y-98056666D02*
X143702914Y-98151904D01*
X143702914Y-98151904D02*
X143750533Y-98247142D01*
X170904819Y-112595238D02*
X170428628Y-112928571D01*
X170904819Y-113166666D02*
X169904819Y-113166666D01*
X169904819Y-113166666D02*
X169904819Y-112785714D01*
X169904819Y-112785714D02*
X169952438Y-112690476D01*
X169952438Y-112690476D02*
X170000057Y-112642857D01*
X170000057Y-112642857D02*
X170095295Y-112595238D01*
X170095295Y-112595238D02*
X170238152Y-112595238D01*
X170238152Y-112595238D02*
X170333390Y-112642857D01*
X170333390Y-112642857D02*
X170381009Y-112690476D01*
X170381009Y-112690476D02*
X170428628Y-112785714D01*
X170428628Y-112785714D02*
X170428628Y-113166666D01*
X169904819Y-112309523D02*
X170904819Y-111976190D01*
X170904819Y-111976190D02*
X169904819Y-111642857D01*
X170904819Y-110785714D02*
X170904819Y-111357142D01*
X170904819Y-111071428D02*
X169904819Y-111071428D01*
X169904819Y-111071428D02*
X170047676Y-111166666D01*
X170047676Y-111166666D02*
X170142914Y-111261904D01*
X170142914Y-111261904D02*
X170190533Y-111357142D01*
X142366667Y-75207200D02*
X142509524Y-75254819D01*
X142509524Y-75254819D02*
X142747619Y-75254819D01*
X142747619Y-75254819D02*
X142842857Y-75207200D01*
X142842857Y-75207200D02*
X142890476Y-75159580D01*
X142890476Y-75159580D02*
X142938095Y-75064342D01*
X142938095Y-75064342D02*
X142938095Y-74969104D01*
X142938095Y-74969104D02*
X142890476Y-74873866D01*
X142890476Y-74873866D02*
X142842857Y-74826247D01*
X142842857Y-74826247D02*
X142747619Y-74778628D01*
X142747619Y-74778628D02*
X142557143Y-74731009D01*
X142557143Y-74731009D02*
X142461905Y-74683390D01*
X142461905Y-74683390D02*
X142414286Y-74635771D01*
X142414286Y-74635771D02*
X142366667Y-74540533D01*
X142366667Y-74540533D02*
X142366667Y-74445295D01*
X142366667Y-74445295D02*
X142414286Y-74350057D01*
X142414286Y-74350057D02*
X142461905Y-74302438D01*
X142461905Y-74302438D02*
X142557143Y-74254819D01*
X142557143Y-74254819D02*
X142795238Y-74254819D01*
X142795238Y-74254819D02*
X142938095Y-74302438D01*
X143271429Y-74254819D02*
X143509524Y-75254819D01*
X143509524Y-75254819D02*
X143700000Y-74540533D01*
X143700000Y-74540533D02*
X143890476Y-75254819D01*
X143890476Y-75254819D02*
X144128572Y-74254819D01*
X144461905Y-74350057D02*
X144509524Y-74302438D01*
X144509524Y-74302438D02*
X144604762Y-74254819D01*
X144604762Y-74254819D02*
X144842857Y-74254819D01*
X144842857Y-74254819D02*
X144938095Y-74302438D01*
X144938095Y-74302438D02*
X144985714Y-74350057D01*
X144985714Y-74350057D02*
X145033333Y-74445295D01*
X145033333Y-74445295D02*
X145033333Y-74540533D01*
X145033333Y-74540533D02*
X144985714Y-74683390D01*
X144985714Y-74683390D02*
X144414286Y-75254819D01*
X144414286Y-75254819D02*
X145033333Y-75254819D01*
X130146666Y-59954819D02*
X130146666Y-60669104D01*
X130146666Y-60669104D02*
X130099047Y-60811961D01*
X130099047Y-60811961D02*
X130003809Y-60907200D01*
X130003809Y-60907200D02*
X129860952Y-60954819D01*
X129860952Y-60954819D02*
X129765714Y-60954819D01*
X130527619Y-59954819D02*
X131146666Y-59954819D01*
X131146666Y-59954819D02*
X130813333Y-60335771D01*
X130813333Y-60335771D02*
X130956190Y-60335771D01*
X130956190Y-60335771D02*
X131051428Y-60383390D01*
X131051428Y-60383390D02*
X131099047Y-60431009D01*
X131099047Y-60431009D02*
X131146666Y-60526247D01*
X131146666Y-60526247D02*
X131146666Y-60764342D01*
X131146666Y-60764342D02*
X131099047Y-60859580D01*
X131099047Y-60859580D02*
X131051428Y-60907200D01*
X131051428Y-60907200D02*
X130956190Y-60954819D01*
X130956190Y-60954819D02*
X130670476Y-60954819D01*
X130670476Y-60954819D02*
X130575238Y-60907200D01*
X130575238Y-60907200D02*
X130527619Y-60859580D01*
X160966666Y-84724819D02*
X160966666Y-85439104D01*
X160966666Y-85439104D02*
X160919047Y-85581961D01*
X160919047Y-85581961D02*
X160823809Y-85677200D01*
X160823809Y-85677200D02*
X160680952Y-85724819D01*
X160680952Y-85724819D02*
X160585714Y-85724819D01*
X161871428Y-85058152D02*
X161871428Y-85724819D01*
X161633333Y-84677200D02*
X161395238Y-85391485D01*
X161395238Y-85391485D02*
X162014285Y-85391485D01*
X182557142Y-112659580D02*
X182509523Y-112707200D01*
X182509523Y-112707200D02*
X182366666Y-112754819D01*
X182366666Y-112754819D02*
X182271428Y-112754819D01*
X182271428Y-112754819D02*
X182128571Y-112707200D01*
X182128571Y-112707200D02*
X182033333Y-112611961D01*
X182033333Y-112611961D02*
X181985714Y-112516723D01*
X181985714Y-112516723D02*
X181938095Y-112326247D01*
X181938095Y-112326247D02*
X181938095Y-112183390D01*
X181938095Y-112183390D02*
X181985714Y-111992914D01*
X181985714Y-111992914D02*
X182033333Y-111897676D01*
X182033333Y-111897676D02*
X182128571Y-111802438D01*
X182128571Y-111802438D02*
X182271428Y-111754819D01*
X182271428Y-111754819D02*
X182366666Y-111754819D01*
X182366666Y-111754819D02*
X182509523Y-111802438D01*
X182509523Y-111802438D02*
X182557142Y-111850057D01*
X182890476Y-111754819D02*
X183509523Y-111754819D01*
X183509523Y-111754819D02*
X183176190Y-112135771D01*
X183176190Y-112135771D02*
X183319047Y-112135771D01*
X183319047Y-112135771D02*
X183414285Y-112183390D01*
X183414285Y-112183390D02*
X183461904Y-112231009D01*
X183461904Y-112231009D02*
X183509523Y-112326247D01*
X183509523Y-112326247D02*
X183509523Y-112564342D01*
X183509523Y-112564342D02*
X183461904Y-112659580D01*
X183461904Y-112659580D02*
X183414285Y-112707200D01*
X183414285Y-112707200D02*
X183319047Y-112754819D01*
X183319047Y-112754819D02*
X183033333Y-112754819D01*
X183033333Y-112754819D02*
X182938095Y-112707200D01*
X182938095Y-112707200D02*
X182890476Y-112659580D01*
X184080952Y-112183390D02*
X183985714Y-112135771D01*
X183985714Y-112135771D02*
X183938095Y-112088152D01*
X183938095Y-112088152D02*
X183890476Y-111992914D01*
X183890476Y-111992914D02*
X183890476Y-111945295D01*
X183890476Y-111945295D02*
X183938095Y-111850057D01*
X183938095Y-111850057D02*
X183985714Y-111802438D01*
X183985714Y-111802438D02*
X184080952Y-111754819D01*
X184080952Y-111754819D02*
X184271428Y-111754819D01*
X184271428Y-111754819D02*
X184366666Y-111802438D01*
X184366666Y-111802438D02*
X184414285Y-111850057D01*
X184414285Y-111850057D02*
X184461904Y-111945295D01*
X184461904Y-111945295D02*
X184461904Y-111992914D01*
X184461904Y-111992914D02*
X184414285Y-112088152D01*
X184414285Y-112088152D02*
X184366666Y-112135771D01*
X184366666Y-112135771D02*
X184271428Y-112183390D01*
X184271428Y-112183390D02*
X184080952Y-112183390D01*
X184080952Y-112183390D02*
X183985714Y-112231009D01*
X183985714Y-112231009D02*
X183938095Y-112278628D01*
X183938095Y-112278628D02*
X183890476Y-112373866D01*
X183890476Y-112373866D02*
X183890476Y-112564342D01*
X183890476Y-112564342D02*
X183938095Y-112659580D01*
X183938095Y-112659580D02*
X183985714Y-112707200D01*
X183985714Y-112707200D02*
X184080952Y-112754819D01*
X184080952Y-112754819D02*
X184271428Y-112754819D01*
X184271428Y-112754819D02*
X184366666Y-112707200D01*
X184366666Y-112707200D02*
X184414285Y-112659580D01*
X184414285Y-112659580D02*
X184461904Y-112564342D01*
X184461904Y-112564342D02*
X184461904Y-112373866D01*
X184461904Y-112373866D02*
X184414285Y-112278628D01*
X184414285Y-112278628D02*
X184366666Y-112231009D01*
X184366666Y-112231009D02*
X184271428Y-112183390D01*
X179354819Y-73424404D02*
X180164342Y-73424404D01*
X180164342Y-73424404D02*
X180259580Y-73376785D01*
X180259580Y-73376785D02*
X180307200Y-73329166D01*
X180307200Y-73329166D02*
X180354819Y-73233928D01*
X180354819Y-73233928D02*
X180354819Y-73043452D01*
X180354819Y-73043452D02*
X180307200Y-72948214D01*
X180307200Y-72948214D02*
X180259580Y-72900595D01*
X180259580Y-72900595D02*
X180164342Y-72852976D01*
X180164342Y-72852976D02*
X179354819Y-72852976D01*
X179354819Y-71900595D02*
X179354819Y-72376785D01*
X179354819Y-72376785D02*
X179831009Y-72424404D01*
X179831009Y-72424404D02*
X179783390Y-72376785D01*
X179783390Y-72376785D02*
X179735771Y-72281547D01*
X179735771Y-72281547D02*
X179735771Y-72043452D01*
X179735771Y-72043452D02*
X179783390Y-71948214D01*
X179783390Y-71948214D02*
X179831009Y-71900595D01*
X179831009Y-71900595D02*
X179926247Y-71852976D01*
X179926247Y-71852976D02*
X180164342Y-71852976D01*
X180164342Y-71852976D02*
X180259580Y-71900595D01*
X180259580Y-71900595D02*
X180307200Y-71948214D01*
X180307200Y-71948214D02*
X180354819Y-72043452D01*
X180354819Y-72043452D02*
X180354819Y-72281547D01*
X180354819Y-72281547D02*
X180307200Y-72376785D01*
X180307200Y-72376785D02*
X180259580Y-72424404D01*
X173728571Y-57931009D02*
X173395238Y-57931009D01*
X173395238Y-58454819D02*
X173395238Y-57454819D01*
X173395238Y-57454819D02*
X173871428Y-57454819D01*
X174252381Y-58454819D02*
X174252381Y-57454819D01*
X174728571Y-58454819D02*
X174728571Y-57454819D01*
X174728571Y-57454819D02*
X174966666Y-57454819D01*
X174966666Y-57454819D02*
X175109523Y-57502438D01*
X175109523Y-57502438D02*
X175204761Y-57597676D01*
X175204761Y-57597676D02*
X175252380Y-57692914D01*
X175252380Y-57692914D02*
X175299999Y-57883390D01*
X175299999Y-57883390D02*
X175299999Y-58026247D01*
X175299999Y-58026247D02*
X175252380Y-58216723D01*
X175252380Y-58216723D02*
X175204761Y-58311961D01*
X175204761Y-58311961D02*
X175109523Y-58407200D01*
X175109523Y-58407200D02*
X174966666Y-58454819D01*
X174966666Y-58454819D02*
X174728571Y-58454819D01*
X175680952Y-57550057D02*
X175728571Y-57502438D01*
X175728571Y-57502438D02*
X175823809Y-57454819D01*
X175823809Y-57454819D02*
X176061904Y-57454819D01*
X176061904Y-57454819D02*
X176157142Y-57502438D01*
X176157142Y-57502438D02*
X176204761Y-57550057D01*
X176204761Y-57550057D02*
X176252380Y-57645295D01*
X176252380Y-57645295D02*
X176252380Y-57740533D01*
X176252380Y-57740533D02*
X176204761Y-57883390D01*
X176204761Y-57883390D02*
X175633333Y-58454819D01*
X175633333Y-58454819D02*
X176252380Y-58454819D01*
X172538095Y-81254819D02*
X173109523Y-81254819D01*
X172823809Y-82254819D02*
X172823809Y-81254819D01*
X173442857Y-82254819D02*
X173442857Y-81254819D01*
X173442857Y-81254819D02*
X173823809Y-81254819D01*
X173823809Y-81254819D02*
X173919047Y-81302438D01*
X173919047Y-81302438D02*
X173966666Y-81350057D01*
X173966666Y-81350057D02*
X174014285Y-81445295D01*
X174014285Y-81445295D02*
X174014285Y-81588152D01*
X174014285Y-81588152D02*
X173966666Y-81683390D01*
X173966666Y-81683390D02*
X173919047Y-81731009D01*
X173919047Y-81731009D02*
X173823809Y-81778628D01*
X173823809Y-81778628D02*
X173442857Y-81778628D01*
X174347619Y-81254819D02*
X175014285Y-81254819D01*
X175014285Y-81254819D02*
X174585714Y-82254819D01*
X181607142Y-74529580D02*
X181559523Y-74577200D01*
X181559523Y-74577200D02*
X181416666Y-74624819D01*
X181416666Y-74624819D02*
X181321428Y-74624819D01*
X181321428Y-74624819D02*
X181178571Y-74577200D01*
X181178571Y-74577200D02*
X181083333Y-74481961D01*
X181083333Y-74481961D02*
X181035714Y-74386723D01*
X181035714Y-74386723D02*
X180988095Y-74196247D01*
X180988095Y-74196247D02*
X180988095Y-74053390D01*
X180988095Y-74053390D02*
X181035714Y-73862914D01*
X181035714Y-73862914D02*
X181083333Y-73767676D01*
X181083333Y-73767676D02*
X181178571Y-73672438D01*
X181178571Y-73672438D02*
X181321428Y-73624819D01*
X181321428Y-73624819D02*
X181416666Y-73624819D01*
X181416666Y-73624819D02*
X181559523Y-73672438D01*
X181559523Y-73672438D02*
X181607142Y-73720057D01*
X181988095Y-73720057D02*
X182035714Y-73672438D01*
X182035714Y-73672438D02*
X182130952Y-73624819D01*
X182130952Y-73624819D02*
X182369047Y-73624819D01*
X182369047Y-73624819D02*
X182464285Y-73672438D01*
X182464285Y-73672438D02*
X182511904Y-73720057D01*
X182511904Y-73720057D02*
X182559523Y-73815295D01*
X182559523Y-73815295D02*
X182559523Y-73910533D01*
X182559523Y-73910533D02*
X182511904Y-74053390D01*
X182511904Y-74053390D02*
X181940476Y-74624819D01*
X181940476Y-74624819D02*
X182559523Y-74624819D01*
X183416666Y-73958152D02*
X183416666Y-74624819D01*
X183178571Y-73577200D02*
X182940476Y-74291485D01*
X182940476Y-74291485D02*
X183559523Y-74291485D01*
X144433333Y-88984819D02*
X144100000Y-88508628D01*
X143861905Y-88984819D02*
X143861905Y-87984819D01*
X143861905Y-87984819D02*
X144242857Y-87984819D01*
X144242857Y-87984819D02*
X144338095Y-88032438D01*
X144338095Y-88032438D02*
X144385714Y-88080057D01*
X144385714Y-88080057D02*
X144433333Y-88175295D01*
X144433333Y-88175295D02*
X144433333Y-88318152D01*
X144433333Y-88318152D02*
X144385714Y-88413390D01*
X144385714Y-88413390D02*
X144338095Y-88461009D01*
X144338095Y-88461009D02*
X144242857Y-88508628D01*
X144242857Y-88508628D02*
X143861905Y-88508628D01*
X145004762Y-88413390D02*
X144909524Y-88365771D01*
X144909524Y-88365771D02*
X144861905Y-88318152D01*
X144861905Y-88318152D02*
X144814286Y-88222914D01*
X144814286Y-88222914D02*
X144814286Y-88175295D01*
X144814286Y-88175295D02*
X144861905Y-88080057D01*
X144861905Y-88080057D02*
X144909524Y-88032438D01*
X144909524Y-88032438D02*
X145004762Y-87984819D01*
X145004762Y-87984819D02*
X145195238Y-87984819D01*
X145195238Y-87984819D02*
X145290476Y-88032438D01*
X145290476Y-88032438D02*
X145338095Y-88080057D01*
X145338095Y-88080057D02*
X145385714Y-88175295D01*
X145385714Y-88175295D02*
X145385714Y-88222914D01*
X145385714Y-88222914D02*
X145338095Y-88318152D01*
X145338095Y-88318152D02*
X145290476Y-88365771D01*
X145290476Y-88365771D02*
X145195238Y-88413390D01*
X145195238Y-88413390D02*
X145004762Y-88413390D01*
X145004762Y-88413390D02*
X144909524Y-88461009D01*
X144909524Y-88461009D02*
X144861905Y-88508628D01*
X144861905Y-88508628D02*
X144814286Y-88603866D01*
X144814286Y-88603866D02*
X144814286Y-88794342D01*
X144814286Y-88794342D02*
X144861905Y-88889580D01*
X144861905Y-88889580D02*
X144909524Y-88937200D01*
X144909524Y-88937200D02*
X145004762Y-88984819D01*
X145004762Y-88984819D02*
X145195238Y-88984819D01*
X145195238Y-88984819D02*
X145290476Y-88937200D01*
X145290476Y-88937200D02*
X145338095Y-88889580D01*
X145338095Y-88889580D02*
X145385714Y-88794342D01*
X145385714Y-88794342D02*
X145385714Y-88603866D01*
X145385714Y-88603866D02*
X145338095Y-88508628D01*
X145338095Y-88508628D02*
X145290476Y-88461009D01*
X145290476Y-88461009D02*
X145195238Y-88413390D01*
X140982142Y-103189580D02*
X140934523Y-103237200D01*
X140934523Y-103237200D02*
X140791666Y-103284819D01*
X140791666Y-103284819D02*
X140696428Y-103284819D01*
X140696428Y-103284819D02*
X140553571Y-103237200D01*
X140553571Y-103237200D02*
X140458333Y-103141961D01*
X140458333Y-103141961D02*
X140410714Y-103046723D01*
X140410714Y-103046723D02*
X140363095Y-102856247D01*
X140363095Y-102856247D02*
X140363095Y-102713390D01*
X140363095Y-102713390D02*
X140410714Y-102522914D01*
X140410714Y-102522914D02*
X140458333Y-102427676D01*
X140458333Y-102427676D02*
X140553571Y-102332438D01*
X140553571Y-102332438D02*
X140696428Y-102284819D01*
X140696428Y-102284819D02*
X140791666Y-102284819D01*
X140791666Y-102284819D02*
X140934523Y-102332438D01*
X140934523Y-102332438D02*
X140982142Y-102380057D01*
X141934523Y-103284819D02*
X141363095Y-103284819D01*
X141648809Y-103284819D02*
X141648809Y-102284819D01*
X141648809Y-102284819D02*
X141553571Y-102427676D01*
X141553571Y-102427676D02*
X141458333Y-102522914D01*
X141458333Y-102522914D02*
X141363095Y-102570533D01*
X142553571Y-102284819D02*
X142648809Y-102284819D01*
X142648809Y-102284819D02*
X142744047Y-102332438D01*
X142744047Y-102332438D02*
X142791666Y-102380057D01*
X142791666Y-102380057D02*
X142839285Y-102475295D01*
X142839285Y-102475295D02*
X142886904Y-102665771D01*
X142886904Y-102665771D02*
X142886904Y-102903866D01*
X142886904Y-102903866D02*
X142839285Y-103094342D01*
X142839285Y-103094342D02*
X142791666Y-103189580D01*
X142791666Y-103189580D02*
X142744047Y-103237200D01*
X142744047Y-103237200D02*
X142648809Y-103284819D01*
X142648809Y-103284819D02*
X142553571Y-103284819D01*
X142553571Y-103284819D02*
X142458333Y-103237200D01*
X142458333Y-103237200D02*
X142410714Y-103189580D01*
X142410714Y-103189580D02*
X142363095Y-103094342D01*
X142363095Y-103094342D02*
X142315476Y-102903866D01*
X142315476Y-102903866D02*
X142315476Y-102665771D01*
X142315476Y-102665771D02*
X142363095Y-102475295D01*
X142363095Y-102475295D02*
X142410714Y-102380057D01*
X142410714Y-102380057D02*
X142458333Y-102332438D01*
X142458333Y-102332438D02*
X142553571Y-102284819D01*
X148783333Y-91729580D02*
X148735714Y-91777200D01*
X148735714Y-91777200D02*
X148592857Y-91824819D01*
X148592857Y-91824819D02*
X148497619Y-91824819D01*
X148497619Y-91824819D02*
X148354762Y-91777200D01*
X148354762Y-91777200D02*
X148259524Y-91681961D01*
X148259524Y-91681961D02*
X148211905Y-91586723D01*
X148211905Y-91586723D02*
X148164286Y-91396247D01*
X148164286Y-91396247D02*
X148164286Y-91253390D01*
X148164286Y-91253390D02*
X148211905Y-91062914D01*
X148211905Y-91062914D02*
X148259524Y-90967676D01*
X148259524Y-90967676D02*
X148354762Y-90872438D01*
X148354762Y-90872438D02*
X148497619Y-90824819D01*
X148497619Y-90824819D02*
X148592857Y-90824819D01*
X148592857Y-90824819D02*
X148735714Y-90872438D01*
X148735714Y-90872438D02*
X148783333Y-90920057D01*
X149116667Y-90824819D02*
X149735714Y-90824819D01*
X149735714Y-90824819D02*
X149402381Y-91205771D01*
X149402381Y-91205771D02*
X149545238Y-91205771D01*
X149545238Y-91205771D02*
X149640476Y-91253390D01*
X149640476Y-91253390D02*
X149688095Y-91301009D01*
X149688095Y-91301009D02*
X149735714Y-91396247D01*
X149735714Y-91396247D02*
X149735714Y-91634342D01*
X149735714Y-91634342D02*
X149688095Y-91729580D01*
X149688095Y-91729580D02*
X149640476Y-91777200D01*
X149640476Y-91777200D02*
X149545238Y-91824819D01*
X149545238Y-91824819D02*
X149259524Y-91824819D01*
X149259524Y-91824819D02*
X149164286Y-91777200D01*
X149164286Y-91777200D02*
X149116667Y-91729580D01*
X166188095Y-60254819D02*
X166759523Y-60254819D01*
X166473809Y-61254819D02*
X166473809Y-60254819D01*
X167092857Y-61254819D02*
X167092857Y-60254819D01*
X167092857Y-60254819D02*
X167473809Y-60254819D01*
X167473809Y-60254819D02*
X167569047Y-60302438D01*
X167569047Y-60302438D02*
X167616666Y-60350057D01*
X167616666Y-60350057D02*
X167664285Y-60445295D01*
X167664285Y-60445295D02*
X167664285Y-60588152D01*
X167664285Y-60588152D02*
X167616666Y-60683390D01*
X167616666Y-60683390D02*
X167569047Y-60731009D01*
X167569047Y-60731009D02*
X167473809Y-60778628D01*
X167473809Y-60778628D02*
X167092857Y-60778628D01*
X168521428Y-60588152D02*
X168521428Y-61254819D01*
X168283333Y-60207200D02*
X168045238Y-60921485D01*
X168045238Y-60921485D02*
X168664285Y-60921485D01*
X134033333Y-93424819D02*
X133700000Y-92948628D01*
X133461905Y-93424819D02*
X133461905Y-92424819D01*
X133461905Y-92424819D02*
X133842857Y-92424819D01*
X133842857Y-92424819D02*
X133938095Y-92472438D01*
X133938095Y-92472438D02*
X133985714Y-92520057D01*
X133985714Y-92520057D02*
X134033333Y-92615295D01*
X134033333Y-92615295D02*
X134033333Y-92758152D01*
X134033333Y-92758152D02*
X133985714Y-92853390D01*
X133985714Y-92853390D02*
X133938095Y-92901009D01*
X133938095Y-92901009D02*
X133842857Y-92948628D01*
X133842857Y-92948628D02*
X133461905Y-92948628D01*
X134985714Y-93424819D02*
X134414286Y-93424819D01*
X134700000Y-93424819D02*
X134700000Y-92424819D01*
X134700000Y-92424819D02*
X134604762Y-92567676D01*
X134604762Y-92567676D02*
X134509524Y-92662914D01*
X134509524Y-92662914D02*
X134414286Y-92710533D01*
X147679579Y-64342857D02*
X147727199Y-64390476D01*
X147727199Y-64390476D02*
X147774818Y-64533333D01*
X147774818Y-64533333D02*
X147774818Y-64628571D01*
X147774818Y-64628571D02*
X147727199Y-64771428D01*
X147727199Y-64771428D02*
X147631960Y-64866666D01*
X147631960Y-64866666D02*
X147536722Y-64914285D01*
X147536722Y-64914285D02*
X147346246Y-64961904D01*
X147346246Y-64961904D02*
X147203389Y-64961904D01*
X147203389Y-64961904D02*
X147012913Y-64914285D01*
X147012913Y-64914285D02*
X146917675Y-64866666D01*
X146917675Y-64866666D02*
X146822437Y-64771428D01*
X146822437Y-64771428D02*
X146774818Y-64628571D01*
X146774818Y-64628571D02*
X146774818Y-64533333D01*
X146774818Y-64533333D02*
X146822437Y-64390476D01*
X146822437Y-64390476D02*
X146870056Y-64342857D01*
X147108151Y-63485714D02*
X147774818Y-63485714D01*
X146727199Y-63723809D02*
X147441484Y-63961904D01*
X147441484Y-63961904D02*
X147441484Y-63342857D01*
X146774818Y-63057142D02*
X146774818Y-62390476D01*
X146774818Y-62390476D02*
X147774818Y-62819047D01*
X149239580Y-88642857D02*
X149287200Y-88690476D01*
X149287200Y-88690476D02*
X149334819Y-88833333D01*
X149334819Y-88833333D02*
X149334819Y-88928571D01*
X149334819Y-88928571D02*
X149287200Y-89071428D01*
X149287200Y-89071428D02*
X149191961Y-89166666D01*
X149191961Y-89166666D02*
X149096723Y-89214285D01*
X149096723Y-89214285D02*
X148906247Y-89261904D01*
X148906247Y-89261904D02*
X148763390Y-89261904D01*
X148763390Y-89261904D02*
X148572914Y-89214285D01*
X148572914Y-89214285D02*
X148477676Y-89166666D01*
X148477676Y-89166666D02*
X148382438Y-89071428D01*
X148382438Y-89071428D02*
X148334819Y-88928571D01*
X148334819Y-88928571D02*
X148334819Y-88833333D01*
X148334819Y-88833333D02*
X148382438Y-88690476D01*
X148382438Y-88690476D02*
X148430057Y-88642857D01*
X148334819Y-88309523D02*
X148334819Y-87690476D01*
X148334819Y-87690476D02*
X148715771Y-88023809D01*
X148715771Y-88023809D02*
X148715771Y-87880952D01*
X148715771Y-87880952D02*
X148763390Y-87785714D01*
X148763390Y-87785714D02*
X148811009Y-87738095D01*
X148811009Y-87738095D02*
X148906247Y-87690476D01*
X148906247Y-87690476D02*
X149144342Y-87690476D01*
X149144342Y-87690476D02*
X149239580Y-87738095D01*
X149239580Y-87738095D02*
X149287200Y-87785714D01*
X149287200Y-87785714D02*
X149334819Y-87880952D01*
X149334819Y-87880952D02*
X149334819Y-88166666D01*
X149334819Y-88166666D02*
X149287200Y-88261904D01*
X149287200Y-88261904D02*
X149239580Y-88309523D01*
X148430057Y-87309523D02*
X148382438Y-87261904D01*
X148382438Y-87261904D02*
X148334819Y-87166666D01*
X148334819Y-87166666D02*
X148334819Y-86928571D01*
X148334819Y-86928571D02*
X148382438Y-86833333D01*
X148382438Y-86833333D02*
X148430057Y-86785714D01*
X148430057Y-86785714D02*
X148525295Y-86738095D01*
X148525295Y-86738095D02*
X148620533Y-86738095D01*
X148620533Y-86738095D02*
X148763390Y-86785714D01*
X148763390Y-86785714D02*
X149334819Y-87357142D01*
X149334819Y-87357142D02*
X149334819Y-86738095D01*
X149158333Y-72984819D02*
X148825000Y-72508628D01*
X148586905Y-72984819D02*
X148586905Y-71984819D01*
X148586905Y-71984819D02*
X148967857Y-71984819D01*
X148967857Y-71984819D02*
X149063095Y-72032438D01*
X149063095Y-72032438D02*
X149110714Y-72080057D01*
X149110714Y-72080057D02*
X149158333Y-72175295D01*
X149158333Y-72175295D02*
X149158333Y-72318152D01*
X149158333Y-72318152D02*
X149110714Y-72413390D01*
X149110714Y-72413390D02*
X149063095Y-72461009D01*
X149063095Y-72461009D02*
X148967857Y-72508628D01*
X148967857Y-72508628D02*
X148586905Y-72508628D01*
X149634524Y-72984819D02*
X149825000Y-72984819D01*
X149825000Y-72984819D02*
X149920238Y-72937200D01*
X149920238Y-72937200D02*
X149967857Y-72889580D01*
X149967857Y-72889580D02*
X150063095Y-72746723D01*
X150063095Y-72746723D02*
X150110714Y-72556247D01*
X150110714Y-72556247D02*
X150110714Y-72175295D01*
X150110714Y-72175295D02*
X150063095Y-72080057D01*
X150063095Y-72080057D02*
X150015476Y-72032438D01*
X150015476Y-72032438D02*
X149920238Y-71984819D01*
X149920238Y-71984819D02*
X149729762Y-71984819D01*
X149729762Y-71984819D02*
X149634524Y-72032438D01*
X149634524Y-72032438D02*
X149586905Y-72080057D01*
X149586905Y-72080057D02*
X149539286Y-72175295D01*
X149539286Y-72175295D02*
X149539286Y-72413390D01*
X149539286Y-72413390D02*
X149586905Y-72508628D01*
X149586905Y-72508628D02*
X149634524Y-72556247D01*
X149634524Y-72556247D02*
X149729762Y-72603866D01*
X149729762Y-72603866D02*
X149920238Y-72603866D01*
X149920238Y-72603866D02*
X150015476Y-72556247D01*
X150015476Y-72556247D02*
X150063095Y-72508628D01*
X150063095Y-72508628D02*
X150110714Y-72413390D01*
X153584819Y-92066666D02*
X153108628Y-92399999D01*
X153584819Y-92638094D02*
X152584819Y-92638094D01*
X152584819Y-92638094D02*
X152584819Y-92257142D01*
X152584819Y-92257142D02*
X152632438Y-92161904D01*
X152632438Y-92161904D02*
X152680057Y-92114285D01*
X152680057Y-92114285D02*
X152775295Y-92066666D01*
X152775295Y-92066666D02*
X152918152Y-92066666D01*
X152918152Y-92066666D02*
X153013390Y-92114285D01*
X153013390Y-92114285D02*
X153061009Y-92161904D01*
X153061009Y-92161904D02*
X153108628Y-92257142D01*
X153108628Y-92257142D02*
X153108628Y-92638094D01*
X152680057Y-91685713D02*
X152632438Y-91638094D01*
X152632438Y-91638094D02*
X152584819Y-91542856D01*
X152584819Y-91542856D02*
X152584819Y-91304761D01*
X152584819Y-91304761D02*
X152632438Y-91209523D01*
X152632438Y-91209523D02*
X152680057Y-91161904D01*
X152680057Y-91161904D02*
X152775295Y-91114285D01*
X152775295Y-91114285D02*
X152870533Y-91114285D01*
X152870533Y-91114285D02*
X153013390Y-91161904D01*
X153013390Y-91161904D02*
X153584819Y-91733332D01*
X153584819Y-91733332D02*
X153584819Y-91114285D01*
X175057142Y-100759580D02*
X175009523Y-100807200D01*
X175009523Y-100807200D02*
X174866666Y-100854819D01*
X174866666Y-100854819D02*
X174771428Y-100854819D01*
X174771428Y-100854819D02*
X174628571Y-100807200D01*
X174628571Y-100807200D02*
X174533333Y-100711961D01*
X174533333Y-100711961D02*
X174485714Y-100616723D01*
X174485714Y-100616723D02*
X174438095Y-100426247D01*
X174438095Y-100426247D02*
X174438095Y-100283390D01*
X174438095Y-100283390D02*
X174485714Y-100092914D01*
X174485714Y-100092914D02*
X174533333Y-99997676D01*
X174533333Y-99997676D02*
X174628571Y-99902438D01*
X174628571Y-99902438D02*
X174771428Y-99854819D01*
X174771428Y-99854819D02*
X174866666Y-99854819D01*
X174866666Y-99854819D02*
X175009523Y-99902438D01*
X175009523Y-99902438D02*
X175057142Y-99950057D01*
X176009523Y-100854819D02*
X175438095Y-100854819D01*
X175723809Y-100854819D02*
X175723809Y-99854819D01*
X175723809Y-99854819D02*
X175628571Y-99997676D01*
X175628571Y-99997676D02*
X175533333Y-100092914D01*
X175533333Y-100092914D02*
X175438095Y-100140533D01*
X176342857Y-99854819D02*
X176961904Y-99854819D01*
X176961904Y-99854819D02*
X176628571Y-100235771D01*
X176628571Y-100235771D02*
X176771428Y-100235771D01*
X176771428Y-100235771D02*
X176866666Y-100283390D01*
X176866666Y-100283390D02*
X176914285Y-100331009D01*
X176914285Y-100331009D02*
X176961904Y-100426247D01*
X176961904Y-100426247D02*
X176961904Y-100664342D01*
X176961904Y-100664342D02*
X176914285Y-100759580D01*
X176914285Y-100759580D02*
X176866666Y-100807200D01*
X176866666Y-100807200D02*
X176771428Y-100854819D01*
X176771428Y-100854819D02*
X176485714Y-100854819D01*
X176485714Y-100854819D02*
X176390476Y-100807200D01*
X176390476Y-100807200D02*
X176342857Y-100759580D01*
X174479580Y-73242857D02*
X174527200Y-73290476D01*
X174527200Y-73290476D02*
X174574819Y-73433333D01*
X174574819Y-73433333D02*
X174574819Y-73528571D01*
X174574819Y-73528571D02*
X174527200Y-73671428D01*
X174527200Y-73671428D02*
X174431961Y-73766666D01*
X174431961Y-73766666D02*
X174336723Y-73814285D01*
X174336723Y-73814285D02*
X174146247Y-73861904D01*
X174146247Y-73861904D02*
X174003390Y-73861904D01*
X174003390Y-73861904D02*
X173812914Y-73814285D01*
X173812914Y-73814285D02*
X173717676Y-73766666D01*
X173717676Y-73766666D02*
X173622438Y-73671428D01*
X173622438Y-73671428D02*
X173574819Y-73528571D01*
X173574819Y-73528571D02*
X173574819Y-73433333D01*
X173574819Y-73433333D02*
X173622438Y-73290476D01*
X173622438Y-73290476D02*
X173670057Y-73242857D01*
X173670057Y-72861904D02*
X173622438Y-72814285D01*
X173622438Y-72814285D02*
X173574819Y-72719047D01*
X173574819Y-72719047D02*
X173574819Y-72480952D01*
X173574819Y-72480952D02*
X173622438Y-72385714D01*
X173622438Y-72385714D02*
X173670057Y-72338095D01*
X173670057Y-72338095D02*
X173765295Y-72290476D01*
X173765295Y-72290476D02*
X173860533Y-72290476D01*
X173860533Y-72290476D02*
X174003390Y-72338095D01*
X174003390Y-72338095D02*
X174574819Y-72909523D01*
X174574819Y-72909523D02*
X174574819Y-72290476D01*
X173574819Y-71385714D02*
X173574819Y-71861904D01*
X173574819Y-71861904D02*
X174051009Y-71909523D01*
X174051009Y-71909523D02*
X174003390Y-71861904D01*
X174003390Y-71861904D02*
X173955771Y-71766666D01*
X173955771Y-71766666D02*
X173955771Y-71528571D01*
X173955771Y-71528571D02*
X174003390Y-71433333D01*
X174003390Y-71433333D02*
X174051009Y-71385714D01*
X174051009Y-71385714D02*
X174146247Y-71338095D01*
X174146247Y-71338095D02*
X174384342Y-71338095D01*
X174384342Y-71338095D02*
X174479580Y-71385714D01*
X174479580Y-71385714D02*
X174527200Y-71433333D01*
X174527200Y-71433333D02*
X174574819Y-71528571D01*
X174574819Y-71528571D02*
X174574819Y-71766666D01*
X174574819Y-71766666D02*
X174527200Y-71861904D01*
X174527200Y-71861904D02*
X174479580Y-71909523D01*
X130238095Y-53254819D02*
X130238095Y-52254819D01*
X130238095Y-52731009D02*
X130809523Y-52731009D01*
X130809523Y-53254819D02*
X130809523Y-52254819D01*
X131238095Y-52350057D02*
X131285714Y-52302438D01*
X131285714Y-52302438D02*
X131380952Y-52254819D01*
X131380952Y-52254819D02*
X131619047Y-52254819D01*
X131619047Y-52254819D02*
X131714285Y-52302438D01*
X131714285Y-52302438D02*
X131761904Y-52350057D01*
X131761904Y-52350057D02*
X131809523Y-52445295D01*
X131809523Y-52445295D02*
X131809523Y-52540533D01*
X131809523Y-52540533D02*
X131761904Y-52683390D01*
X131761904Y-52683390D02*
X131190476Y-53254819D01*
X131190476Y-53254819D02*
X131809523Y-53254819D01*
X181529580Y-104142857D02*
X181577200Y-104190476D01*
X181577200Y-104190476D02*
X181624819Y-104333333D01*
X181624819Y-104333333D02*
X181624819Y-104428571D01*
X181624819Y-104428571D02*
X181577200Y-104571428D01*
X181577200Y-104571428D02*
X181481961Y-104666666D01*
X181481961Y-104666666D02*
X181386723Y-104714285D01*
X181386723Y-104714285D02*
X181196247Y-104761904D01*
X181196247Y-104761904D02*
X181053390Y-104761904D01*
X181053390Y-104761904D02*
X180862914Y-104714285D01*
X180862914Y-104714285D02*
X180767676Y-104666666D01*
X180767676Y-104666666D02*
X180672438Y-104571428D01*
X180672438Y-104571428D02*
X180624819Y-104428571D01*
X180624819Y-104428571D02*
X180624819Y-104333333D01*
X180624819Y-104333333D02*
X180672438Y-104190476D01*
X180672438Y-104190476D02*
X180720057Y-104142857D01*
X180720057Y-103761904D02*
X180672438Y-103714285D01*
X180672438Y-103714285D02*
X180624819Y-103619047D01*
X180624819Y-103619047D02*
X180624819Y-103380952D01*
X180624819Y-103380952D02*
X180672438Y-103285714D01*
X180672438Y-103285714D02*
X180720057Y-103238095D01*
X180720057Y-103238095D02*
X180815295Y-103190476D01*
X180815295Y-103190476D02*
X180910533Y-103190476D01*
X180910533Y-103190476D02*
X181053390Y-103238095D01*
X181053390Y-103238095D02*
X181624819Y-103809523D01*
X181624819Y-103809523D02*
X181624819Y-103190476D01*
X181624819Y-102714285D02*
X181624819Y-102523809D01*
X181624819Y-102523809D02*
X181577200Y-102428571D01*
X181577200Y-102428571D02*
X181529580Y-102380952D01*
X181529580Y-102380952D02*
X181386723Y-102285714D01*
X181386723Y-102285714D02*
X181196247Y-102238095D01*
X181196247Y-102238095D02*
X180815295Y-102238095D01*
X180815295Y-102238095D02*
X180720057Y-102285714D01*
X180720057Y-102285714D02*
X180672438Y-102333333D01*
X180672438Y-102333333D02*
X180624819Y-102428571D01*
X180624819Y-102428571D02*
X180624819Y-102619047D01*
X180624819Y-102619047D02*
X180672438Y-102714285D01*
X180672438Y-102714285D02*
X180720057Y-102761904D01*
X180720057Y-102761904D02*
X180815295Y-102809523D01*
X180815295Y-102809523D02*
X181053390Y-102809523D01*
X181053390Y-102809523D02*
X181148628Y-102761904D01*
X181148628Y-102761904D02*
X181196247Y-102714285D01*
X181196247Y-102714285D02*
X181243866Y-102619047D01*
X181243866Y-102619047D02*
X181243866Y-102428571D01*
X181243866Y-102428571D02*
X181196247Y-102333333D01*
X181196247Y-102333333D02*
X181148628Y-102285714D01*
X181148628Y-102285714D02*
X181053390Y-102238095D01*
X178866666Y-86184819D02*
X178866666Y-86899104D01*
X178866666Y-86899104D02*
X178819047Y-87041961D01*
X178819047Y-87041961D02*
X178723809Y-87137200D01*
X178723809Y-87137200D02*
X178580952Y-87184819D01*
X178580952Y-87184819D02*
X178485714Y-87184819D01*
X179819047Y-86184819D02*
X179342857Y-86184819D01*
X179342857Y-86184819D02*
X179295238Y-86661009D01*
X179295238Y-86661009D02*
X179342857Y-86613390D01*
X179342857Y-86613390D02*
X179438095Y-86565771D01*
X179438095Y-86565771D02*
X179676190Y-86565771D01*
X179676190Y-86565771D02*
X179771428Y-86613390D01*
X179771428Y-86613390D02*
X179819047Y-86661009D01*
X179819047Y-86661009D02*
X179866666Y-86756247D01*
X179866666Y-86756247D02*
X179866666Y-86994342D01*
X179866666Y-86994342D02*
X179819047Y-87089580D01*
X179819047Y-87089580D02*
X179771428Y-87137200D01*
X179771428Y-87137200D02*
X179676190Y-87184819D01*
X179676190Y-87184819D02*
X179438095Y-87184819D01*
X179438095Y-87184819D02*
X179342857Y-87137200D01*
X179342857Y-87137200D02*
X179295238Y-87089580D01*
X148174405Y-89624819D02*
X148174405Y-88624819D01*
X148174405Y-88624819D02*
X148412500Y-88624819D01*
X148412500Y-88624819D02*
X148555357Y-88672438D01*
X148555357Y-88672438D02*
X148650595Y-88767676D01*
X148650595Y-88767676D02*
X148698214Y-88862914D01*
X148698214Y-88862914D02*
X148745833Y-89053390D01*
X148745833Y-89053390D02*
X148745833Y-89196247D01*
X148745833Y-89196247D02*
X148698214Y-89386723D01*
X148698214Y-89386723D02*
X148650595Y-89481961D01*
X148650595Y-89481961D02*
X148555357Y-89577200D01*
X148555357Y-89577200D02*
X148412500Y-89624819D01*
X148412500Y-89624819D02*
X148174405Y-89624819D01*
X149698214Y-89624819D02*
X149126786Y-89624819D01*
X149412500Y-89624819D02*
X149412500Y-88624819D01*
X149412500Y-88624819D02*
X149317262Y-88767676D01*
X149317262Y-88767676D02*
X149222024Y-88862914D01*
X149222024Y-88862914D02*
X149126786Y-88910533D01*
X169904819Y-73424404D02*
X170714342Y-73424404D01*
X170714342Y-73424404D02*
X170809580Y-73376785D01*
X170809580Y-73376785D02*
X170857200Y-73329166D01*
X170857200Y-73329166D02*
X170904819Y-73233928D01*
X170904819Y-73233928D02*
X170904819Y-73043452D01*
X170904819Y-73043452D02*
X170857200Y-72948214D01*
X170857200Y-72948214D02*
X170809580Y-72900595D01*
X170809580Y-72900595D02*
X170714342Y-72852976D01*
X170714342Y-72852976D02*
X169904819Y-72852976D01*
X170333390Y-72233928D02*
X170285771Y-72329166D01*
X170285771Y-72329166D02*
X170238152Y-72376785D01*
X170238152Y-72376785D02*
X170142914Y-72424404D01*
X170142914Y-72424404D02*
X170095295Y-72424404D01*
X170095295Y-72424404D02*
X170000057Y-72376785D01*
X170000057Y-72376785D02*
X169952438Y-72329166D01*
X169952438Y-72329166D02*
X169904819Y-72233928D01*
X169904819Y-72233928D02*
X169904819Y-72043452D01*
X169904819Y-72043452D02*
X169952438Y-71948214D01*
X169952438Y-71948214D02*
X170000057Y-71900595D01*
X170000057Y-71900595D02*
X170095295Y-71852976D01*
X170095295Y-71852976D02*
X170142914Y-71852976D01*
X170142914Y-71852976D02*
X170238152Y-71900595D01*
X170238152Y-71900595D02*
X170285771Y-71948214D01*
X170285771Y-71948214D02*
X170333390Y-72043452D01*
X170333390Y-72043452D02*
X170333390Y-72233928D01*
X170333390Y-72233928D02*
X170381009Y-72329166D01*
X170381009Y-72329166D02*
X170428628Y-72376785D01*
X170428628Y-72376785D02*
X170523866Y-72424404D01*
X170523866Y-72424404D02*
X170714342Y-72424404D01*
X170714342Y-72424404D02*
X170809580Y-72376785D01*
X170809580Y-72376785D02*
X170857200Y-72329166D01*
X170857200Y-72329166D02*
X170904819Y-72233928D01*
X170904819Y-72233928D02*
X170904819Y-72043452D01*
X170904819Y-72043452D02*
X170857200Y-71948214D01*
X170857200Y-71948214D02*
X170809580Y-71900595D01*
X170809580Y-71900595D02*
X170714342Y-71852976D01*
X170714342Y-71852976D02*
X170523866Y-71852976D01*
X170523866Y-71852976D02*
X170428628Y-71900595D01*
X170428628Y-71900595D02*
X170381009Y-71948214D01*
X170381009Y-71948214D02*
X170333390Y-72043452D01*
X159984819Y-65488094D02*
X158984819Y-65488094D01*
X158984819Y-65488094D02*
X158984819Y-65249999D01*
X158984819Y-65249999D02*
X159032438Y-65107142D01*
X159032438Y-65107142D02*
X159127676Y-65011904D01*
X159127676Y-65011904D02*
X159222914Y-64964285D01*
X159222914Y-64964285D02*
X159413390Y-64916666D01*
X159413390Y-64916666D02*
X159556247Y-64916666D01*
X159556247Y-64916666D02*
X159746723Y-64964285D01*
X159746723Y-64964285D02*
X159841961Y-65011904D01*
X159841961Y-65011904D02*
X159937200Y-65107142D01*
X159937200Y-65107142D02*
X159984819Y-65249999D01*
X159984819Y-65249999D02*
X159984819Y-65488094D01*
X159080057Y-64535713D02*
X159032438Y-64488094D01*
X159032438Y-64488094D02*
X158984819Y-64392856D01*
X158984819Y-64392856D02*
X158984819Y-64154761D01*
X158984819Y-64154761D02*
X159032438Y-64059523D01*
X159032438Y-64059523D02*
X159080057Y-64011904D01*
X159080057Y-64011904D02*
X159175295Y-63964285D01*
X159175295Y-63964285D02*
X159270533Y-63964285D01*
X159270533Y-63964285D02*
X159413390Y-64011904D01*
X159413390Y-64011904D02*
X159984819Y-64583332D01*
X159984819Y-64583332D02*
X159984819Y-63964285D01*
X163957142Y-99789580D02*
X163909523Y-99837200D01*
X163909523Y-99837200D02*
X163766666Y-99884819D01*
X163766666Y-99884819D02*
X163671428Y-99884819D01*
X163671428Y-99884819D02*
X163528571Y-99837200D01*
X163528571Y-99837200D02*
X163433333Y-99741961D01*
X163433333Y-99741961D02*
X163385714Y-99646723D01*
X163385714Y-99646723D02*
X163338095Y-99456247D01*
X163338095Y-99456247D02*
X163338095Y-99313390D01*
X163338095Y-99313390D02*
X163385714Y-99122914D01*
X163385714Y-99122914D02*
X163433333Y-99027676D01*
X163433333Y-99027676D02*
X163528571Y-98932438D01*
X163528571Y-98932438D02*
X163671428Y-98884819D01*
X163671428Y-98884819D02*
X163766666Y-98884819D01*
X163766666Y-98884819D02*
X163909523Y-98932438D01*
X163909523Y-98932438D02*
X163957142Y-98980057D01*
X164909523Y-99884819D02*
X164338095Y-99884819D01*
X164623809Y-99884819D02*
X164623809Y-98884819D01*
X164623809Y-98884819D02*
X164528571Y-99027676D01*
X164528571Y-99027676D02*
X164433333Y-99122914D01*
X164433333Y-99122914D02*
X164338095Y-99170533D01*
X165814285Y-98884819D02*
X165338095Y-98884819D01*
X165338095Y-98884819D02*
X165290476Y-99361009D01*
X165290476Y-99361009D02*
X165338095Y-99313390D01*
X165338095Y-99313390D02*
X165433333Y-99265771D01*
X165433333Y-99265771D02*
X165671428Y-99265771D01*
X165671428Y-99265771D02*
X165766666Y-99313390D01*
X165766666Y-99313390D02*
X165814285Y-99361009D01*
X165814285Y-99361009D02*
X165861904Y-99456247D01*
X165861904Y-99456247D02*
X165861904Y-99694342D01*
X165861904Y-99694342D02*
X165814285Y-99789580D01*
X165814285Y-99789580D02*
X165766666Y-99837200D01*
X165766666Y-99837200D02*
X165671428Y-99884819D01*
X165671428Y-99884819D02*
X165433333Y-99884819D01*
X165433333Y-99884819D02*
X165338095Y-99837200D01*
X165338095Y-99837200D02*
X165290476Y-99789580D01*
X153529580Y-64742857D02*
X153577200Y-64790476D01*
X153577200Y-64790476D02*
X153624819Y-64933333D01*
X153624819Y-64933333D02*
X153624819Y-65028571D01*
X153624819Y-65028571D02*
X153577200Y-65171428D01*
X153577200Y-65171428D02*
X153481961Y-65266666D01*
X153481961Y-65266666D02*
X153386723Y-65314285D01*
X153386723Y-65314285D02*
X153196247Y-65361904D01*
X153196247Y-65361904D02*
X153053390Y-65361904D01*
X153053390Y-65361904D02*
X152862914Y-65314285D01*
X152862914Y-65314285D02*
X152767676Y-65266666D01*
X152767676Y-65266666D02*
X152672438Y-65171428D01*
X152672438Y-65171428D02*
X152624819Y-65028571D01*
X152624819Y-65028571D02*
X152624819Y-64933333D01*
X152624819Y-64933333D02*
X152672438Y-64790476D01*
X152672438Y-64790476D02*
X152720057Y-64742857D01*
X152958152Y-63885714D02*
X153624819Y-63885714D01*
X152577200Y-64123809D02*
X153291485Y-64361904D01*
X153291485Y-64361904D02*
X153291485Y-63742857D01*
X152624819Y-62933333D02*
X152624819Y-63123809D01*
X152624819Y-63123809D02*
X152672438Y-63219047D01*
X152672438Y-63219047D02*
X152720057Y-63266666D01*
X152720057Y-63266666D02*
X152862914Y-63361904D01*
X152862914Y-63361904D02*
X153053390Y-63409523D01*
X153053390Y-63409523D02*
X153434342Y-63409523D01*
X153434342Y-63409523D02*
X153529580Y-63361904D01*
X153529580Y-63361904D02*
X153577200Y-63314285D01*
X153577200Y-63314285D02*
X153624819Y-63219047D01*
X153624819Y-63219047D02*
X153624819Y-63028571D01*
X153624819Y-63028571D02*
X153577200Y-62933333D01*
X153577200Y-62933333D02*
X153529580Y-62885714D01*
X153529580Y-62885714D02*
X153434342Y-62838095D01*
X153434342Y-62838095D02*
X153196247Y-62838095D01*
X153196247Y-62838095D02*
X153101009Y-62885714D01*
X153101009Y-62885714D02*
X153053390Y-62933333D01*
X153053390Y-62933333D02*
X153005771Y-63028571D01*
X153005771Y-63028571D02*
X153005771Y-63219047D01*
X153005771Y-63219047D02*
X153053390Y-63314285D01*
X153053390Y-63314285D02*
X153101009Y-63361904D01*
X153101009Y-63361904D02*
X153196247Y-63409523D01*
X161024819Y-102191666D02*
X160548628Y-102524999D01*
X161024819Y-102763094D02*
X160024819Y-102763094D01*
X160024819Y-102763094D02*
X160024819Y-102382142D01*
X160024819Y-102382142D02*
X160072438Y-102286904D01*
X160072438Y-102286904D02*
X160120057Y-102239285D01*
X160120057Y-102239285D02*
X160215295Y-102191666D01*
X160215295Y-102191666D02*
X160358152Y-102191666D01*
X160358152Y-102191666D02*
X160453390Y-102239285D01*
X160453390Y-102239285D02*
X160501009Y-102286904D01*
X160501009Y-102286904D02*
X160548628Y-102382142D01*
X160548628Y-102382142D02*
X160548628Y-102763094D01*
X160358152Y-101334523D02*
X161024819Y-101334523D01*
X159977200Y-101572618D02*
X160691485Y-101810713D01*
X160691485Y-101810713D02*
X160691485Y-101191666D01*
X168754819Y-105542857D02*
X168278628Y-105876190D01*
X168754819Y-106114285D02*
X167754819Y-106114285D01*
X167754819Y-106114285D02*
X167754819Y-105733333D01*
X167754819Y-105733333D02*
X167802438Y-105638095D01*
X167802438Y-105638095D02*
X167850057Y-105590476D01*
X167850057Y-105590476D02*
X167945295Y-105542857D01*
X167945295Y-105542857D02*
X168088152Y-105542857D01*
X168088152Y-105542857D02*
X168183390Y-105590476D01*
X168183390Y-105590476D02*
X168231009Y-105638095D01*
X168231009Y-105638095D02*
X168278628Y-105733333D01*
X168278628Y-105733333D02*
X168278628Y-106114285D01*
X168754819Y-104590476D02*
X168754819Y-105161904D01*
X168754819Y-104876190D02*
X167754819Y-104876190D01*
X167754819Y-104876190D02*
X167897676Y-104971428D01*
X167897676Y-104971428D02*
X167992914Y-105066666D01*
X167992914Y-105066666D02*
X168040533Y-105161904D01*
X167754819Y-103733333D02*
X167754819Y-103923809D01*
X167754819Y-103923809D02*
X167802438Y-104019047D01*
X167802438Y-104019047D02*
X167850057Y-104066666D01*
X167850057Y-104066666D02*
X167992914Y-104161904D01*
X167992914Y-104161904D02*
X168183390Y-104209523D01*
X168183390Y-104209523D02*
X168564342Y-104209523D01*
X168564342Y-104209523D02*
X168659580Y-104161904D01*
X168659580Y-104161904D02*
X168707200Y-104114285D01*
X168707200Y-104114285D02*
X168754819Y-104019047D01*
X168754819Y-104019047D02*
X168754819Y-103828571D01*
X168754819Y-103828571D02*
X168707200Y-103733333D01*
X168707200Y-103733333D02*
X168659580Y-103685714D01*
X168659580Y-103685714D02*
X168564342Y-103638095D01*
X168564342Y-103638095D02*
X168326247Y-103638095D01*
X168326247Y-103638095D02*
X168231009Y-103685714D01*
X168231009Y-103685714D02*
X168183390Y-103733333D01*
X168183390Y-103733333D02*
X168135771Y-103828571D01*
X168135771Y-103828571D02*
X168135771Y-104019047D01*
X168135771Y-104019047D02*
X168183390Y-104114285D01*
X168183390Y-104114285D02*
X168231009Y-104161904D01*
X168231009Y-104161904D02*
X168326247Y-104209523D01*
X174444819Y-104242857D02*
X173968628Y-104576190D01*
X174444819Y-104814285D02*
X173444819Y-104814285D01*
X173444819Y-104814285D02*
X173444819Y-104433333D01*
X173444819Y-104433333D02*
X173492438Y-104338095D01*
X173492438Y-104338095D02*
X173540057Y-104290476D01*
X173540057Y-104290476D02*
X173635295Y-104242857D01*
X173635295Y-104242857D02*
X173778152Y-104242857D01*
X173778152Y-104242857D02*
X173873390Y-104290476D01*
X173873390Y-104290476D02*
X173921009Y-104338095D01*
X173921009Y-104338095D02*
X173968628Y-104433333D01*
X173968628Y-104433333D02*
X173968628Y-104814285D01*
X173540057Y-103861904D02*
X173492438Y-103814285D01*
X173492438Y-103814285D02*
X173444819Y-103719047D01*
X173444819Y-103719047D02*
X173444819Y-103480952D01*
X173444819Y-103480952D02*
X173492438Y-103385714D01*
X173492438Y-103385714D02*
X173540057Y-103338095D01*
X173540057Y-103338095D02*
X173635295Y-103290476D01*
X173635295Y-103290476D02*
X173730533Y-103290476D01*
X173730533Y-103290476D02*
X173873390Y-103338095D01*
X173873390Y-103338095D02*
X174444819Y-103909523D01*
X174444819Y-103909523D02*
X174444819Y-103290476D01*
X173444819Y-102957142D02*
X173444819Y-102338095D01*
X173444819Y-102338095D02*
X173825771Y-102671428D01*
X173825771Y-102671428D02*
X173825771Y-102528571D01*
X173825771Y-102528571D02*
X173873390Y-102433333D01*
X173873390Y-102433333D02*
X173921009Y-102385714D01*
X173921009Y-102385714D02*
X174016247Y-102338095D01*
X174016247Y-102338095D02*
X174254342Y-102338095D01*
X174254342Y-102338095D02*
X174349580Y-102385714D01*
X174349580Y-102385714D02*
X174397200Y-102433333D01*
X174397200Y-102433333D02*
X174444819Y-102528571D01*
X174444819Y-102528571D02*
X174444819Y-102814285D01*
X174444819Y-102814285D02*
X174397200Y-102909523D01*
X174397200Y-102909523D02*
X174349580Y-102957142D01*
X130238095Y-105254819D02*
X130238095Y-104254819D01*
X130238095Y-104731009D02*
X130809523Y-104731009D01*
X130809523Y-105254819D02*
X130809523Y-104254819D01*
X131809523Y-105254819D02*
X131238095Y-105254819D01*
X131523809Y-105254819D02*
X131523809Y-104254819D01*
X131523809Y-104254819D02*
X131428571Y-104397676D01*
X131428571Y-104397676D02*
X131333333Y-104492914D01*
X131333333Y-104492914D02*
X131238095Y-104540533D01*
X164607142Y-77734819D02*
X164273809Y-77258628D01*
X164035714Y-77734819D02*
X164035714Y-76734819D01*
X164035714Y-76734819D02*
X164416666Y-76734819D01*
X164416666Y-76734819D02*
X164511904Y-76782438D01*
X164511904Y-76782438D02*
X164559523Y-76830057D01*
X164559523Y-76830057D02*
X164607142Y-76925295D01*
X164607142Y-76925295D02*
X164607142Y-77068152D01*
X164607142Y-77068152D02*
X164559523Y-77163390D01*
X164559523Y-77163390D02*
X164511904Y-77211009D01*
X164511904Y-77211009D02*
X164416666Y-77258628D01*
X164416666Y-77258628D02*
X164035714Y-77258628D01*
X164940476Y-76734819D02*
X165559523Y-76734819D01*
X165559523Y-76734819D02*
X165226190Y-77115771D01*
X165226190Y-77115771D02*
X165369047Y-77115771D01*
X165369047Y-77115771D02*
X165464285Y-77163390D01*
X165464285Y-77163390D02*
X165511904Y-77211009D01*
X165511904Y-77211009D02*
X165559523Y-77306247D01*
X165559523Y-77306247D02*
X165559523Y-77544342D01*
X165559523Y-77544342D02*
X165511904Y-77639580D01*
X165511904Y-77639580D02*
X165464285Y-77687200D01*
X165464285Y-77687200D02*
X165369047Y-77734819D01*
X165369047Y-77734819D02*
X165083333Y-77734819D01*
X165083333Y-77734819D02*
X164988095Y-77687200D01*
X164988095Y-77687200D02*
X164940476Y-77639580D01*
X165940476Y-76830057D02*
X165988095Y-76782438D01*
X165988095Y-76782438D02*
X166083333Y-76734819D01*
X166083333Y-76734819D02*
X166321428Y-76734819D01*
X166321428Y-76734819D02*
X166416666Y-76782438D01*
X166416666Y-76782438D02*
X166464285Y-76830057D01*
X166464285Y-76830057D02*
X166511904Y-76925295D01*
X166511904Y-76925295D02*
X166511904Y-77020533D01*
X166511904Y-77020533D02*
X166464285Y-77163390D01*
X166464285Y-77163390D02*
X165892857Y-77734819D01*
X165892857Y-77734819D02*
X166511904Y-77734819D01*
X177357142Y-104479580D02*
X177309523Y-104527200D01*
X177309523Y-104527200D02*
X177166666Y-104574819D01*
X177166666Y-104574819D02*
X177071428Y-104574819D01*
X177071428Y-104574819D02*
X176928571Y-104527200D01*
X176928571Y-104527200D02*
X176833333Y-104431961D01*
X176833333Y-104431961D02*
X176785714Y-104336723D01*
X176785714Y-104336723D02*
X176738095Y-104146247D01*
X176738095Y-104146247D02*
X176738095Y-104003390D01*
X176738095Y-104003390D02*
X176785714Y-103812914D01*
X176785714Y-103812914D02*
X176833333Y-103717676D01*
X176833333Y-103717676D02*
X176928571Y-103622438D01*
X176928571Y-103622438D02*
X177071428Y-103574819D01*
X177071428Y-103574819D02*
X177166666Y-103574819D01*
X177166666Y-103574819D02*
X177309523Y-103622438D01*
X177309523Y-103622438D02*
X177357142Y-103670057D01*
X178309523Y-104574819D02*
X177738095Y-104574819D01*
X178023809Y-104574819D02*
X178023809Y-103574819D01*
X178023809Y-103574819D02*
X177928571Y-103717676D01*
X177928571Y-103717676D02*
X177833333Y-103812914D01*
X177833333Y-103812914D02*
X177738095Y-103860533D01*
X178785714Y-104574819D02*
X178976190Y-104574819D01*
X178976190Y-104574819D02*
X179071428Y-104527200D01*
X179071428Y-104527200D02*
X179119047Y-104479580D01*
X179119047Y-104479580D02*
X179214285Y-104336723D01*
X179214285Y-104336723D02*
X179261904Y-104146247D01*
X179261904Y-104146247D02*
X179261904Y-103765295D01*
X179261904Y-103765295D02*
X179214285Y-103670057D01*
X179214285Y-103670057D02*
X179166666Y-103622438D01*
X179166666Y-103622438D02*
X179071428Y-103574819D01*
X179071428Y-103574819D02*
X178880952Y-103574819D01*
X178880952Y-103574819D02*
X178785714Y-103622438D01*
X178785714Y-103622438D02*
X178738095Y-103670057D01*
X178738095Y-103670057D02*
X178690476Y-103765295D01*
X178690476Y-103765295D02*
X178690476Y-104003390D01*
X178690476Y-104003390D02*
X178738095Y-104098628D01*
X178738095Y-104098628D02*
X178785714Y-104146247D01*
X178785714Y-104146247D02*
X178880952Y-104193866D01*
X178880952Y-104193866D02*
X179071428Y-104193866D01*
X179071428Y-104193866D02*
X179166666Y-104146247D01*
X179166666Y-104146247D02*
X179214285Y-104098628D01*
X179214285Y-104098628D02*
X179261904Y-104003390D01*
X181938095Y-81254819D02*
X182509523Y-81254819D01*
X182223809Y-82254819D02*
X182223809Y-81254819D01*
X182842857Y-82254819D02*
X182842857Y-81254819D01*
X182842857Y-81254819D02*
X183223809Y-81254819D01*
X183223809Y-81254819D02*
X183319047Y-81302438D01*
X183319047Y-81302438D02*
X183366666Y-81350057D01*
X183366666Y-81350057D02*
X183414285Y-81445295D01*
X183414285Y-81445295D02*
X183414285Y-81588152D01*
X183414285Y-81588152D02*
X183366666Y-81683390D01*
X183366666Y-81683390D02*
X183319047Y-81731009D01*
X183319047Y-81731009D02*
X183223809Y-81778628D01*
X183223809Y-81778628D02*
X182842857Y-81778628D01*
X184271428Y-81254819D02*
X184080952Y-81254819D01*
X184080952Y-81254819D02*
X183985714Y-81302438D01*
X183985714Y-81302438D02*
X183938095Y-81350057D01*
X183938095Y-81350057D02*
X183842857Y-81492914D01*
X183842857Y-81492914D02*
X183795238Y-81683390D01*
X183795238Y-81683390D02*
X183795238Y-82064342D01*
X183795238Y-82064342D02*
X183842857Y-82159580D01*
X183842857Y-82159580D02*
X183890476Y-82207200D01*
X183890476Y-82207200D02*
X183985714Y-82254819D01*
X183985714Y-82254819D02*
X184176190Y-82254819D01*
X184176190Y-82254819D02*
X184271428Y-82207200D01*
X184271428Y-82207200D02*
X184319047Y-82159580D01*
X184319047Y-82159580D02*
X184366666Y-82064342D01*
X184366666Y-82064342D02*
X184366666Y-81826247D01*
X184366666Y-81826247D02*
X184319047Y-81731009D01*
X184319047Y-81731009D02*
X184271428Y-81683390D01*
X184271428Y-81683390D02*
X184176190Y-81635771D01*
X184176190Y-81635771D02*
X183985714Y-81635771D01*
X183985714Y-81635771D02*
X183890476Y-81683390D01*
X183890476Y-81683390D02*
X183842857Y-81731009D01*
X183842857Y-81731009D02*
X183795238Y-81826247D01*
X158604819Y-73424404D02*
X159414342Y-73424404D01*
X159414342Y-73424404D02*
X159509580Y-73376785D01*
X159509580Y-73376785D02*
X159557200Y-73329166D01*
X159557200Y-73329166D02*
X159604819Y-73233928D01*
X159604819Y-73233928D02*
X159604819Y-73043452D01*
X159604819Y-73043452D02*
X159557200Y-72948214D01*
X159557200Y-72948214D02*
X159509580Y-72900595D01*
X159509580Y-72900595D02*
X159414342Y-72852976D01*
X159414342Y-72852976D02*
X158604819Y-72852976D01*
X158700057Y-72424404D02*
X158652438Y-72376785D01*
X158652438Y-72376785D02*
X158604819Y-72281547D01*
X158604819Y-72281547D02*
X158604819Y-72043452D01*
X158604819Y-72043452D02*
X158652438Y-71948214D01*
X158652438Y-71948214D02*
X158700057Y-71900595D01*
X158700057Y-71900595D02*
X158795295Y-71852976D01*
X158795295Y-71852976D02*
X158890533Y-71852976D01*
X158890533Y-71852976D02*
X159033390Y-71900595D01*
X159033390Y-71900595D02*
X159604819Y-72472023D01*
X159604819Y-72472023D02*
X159604819Y-71852976D01*
X155754819Y-74261904D02*
X155754819Y-73690476D01*
X156754819Y-73976190D02*
X155754819Y-73976190D01*
X156754819Y-73357142D02*
X155754819Y-73357142D01*
X155754819Y-73357142D02*
X155754819Y-72976190D01*
X155754819Y-72976190D02*
X155802438Y-72880952D01*
X155802438Y-72880952D02*
X155850057Y-72833333D01*
X155850057Y-72833333D02*
X155945295Y-72785714D01*
X155945295Y-72785714D02*
X156088152Y-72785714D01*
X156088152Y-72785714D02*
X156183390Y-72833333D01*
X156183390Y-72833333D02*
X156231009Y-72880952D01*
X156231009Y-72880952D02*
X156278628Y-72976190D01*
X156278628Y-72976190D02*
X156278628Y-73357142D01*
X155850057Y-72404761D02*
X155802438Y-72357142D01*
X155802438Y-72357142D02*
X155754819Y-72261904D01*
X155754819Y-72261904D02*
X155754819Y-72023809D01*
X155754819Y-72023809D02*
X155802438Y-71928571D01*
X155802438Y-71928571D02*
X155850057Y-71880952D01*
X155850057Y-71880952D02*
X155945295Y-71833333D01*
X155945295Y-71833333D02*
X156040533Y-71833333D01*
X156040533Y-71833333D02*
X156183390Y-71880952D01*
X156183390Y-71880952D02*
X156754819Y-72452380D01*
X156754819Y-72452380D02*
X156754819Y-71833333D01*
D13*
%TO.C,R3*%
X161477500Y-98762742D02*
X161477500Y-99237258D01*
X162522500Y-98762742D02*
X162522500Y-99237258D01*
%TO.C,C37*%
X182090000Y-107065580D02*
X182090000Y-106784420D01*
X183110000Y-107065580D02*
X183110000Y-106784420D01*
%TO.C,R17*%
X171877500Y-103162742D02*
X171877500Y-103637258D01*
X172922500Y-103162742D02*
X172922500Y-103637258D01*
%TO.C,D4*%
X167215000Y-75850000D02*
X167215000Y-78135000D01*
X167215000Y-78135000D02*
X168685000Y-78135000D01*
X168685000Y-78135000D02*
X168685000Y-75850000D01*
%TO.C,TP5*%
X146700781Y-63300000D02*
G75*
G02*
X143499219Y-63300000I-1600781J0D01*
G01*
X143499219Y-63300000D02*
G75*
G02*
X146700781Y-63300000I1600781J0D01*
G01*
%TO.C,C22*%
X161288748Y-75115000D02*
X161811252Y-75115000D01*
X161288748Y-76585000D02*
X161811252Y-76585000D01*
%TO.C,C27*%
X155265000Y-68361252D02*
X155265000Y-67838748D01*
X156735000Y-68361252D02*
X156735000Y-67838748D01*
%TO.C,R6*%
X169977500Y-92062742D02*
X169977500Y-92537258D01*
X171022500Y-92062742D02*
X171022500Y-92537258D01*
%TO.C,C11*%
X175359420Y-96856116D02*
X175640580Y-96856116D01*
X175359420Y-97876116D02*
X175640580Y-97876116D01*
%TO.C,SW4*%
X133550000Y-91190000D02*
X133550000Y-89807000D01*
X133550000Y-91190000D02*
X134933000Y-91190000D01*
X133790000Y-80030000D02*
X138010000Y-80030000D01*
X133790000Y-90950000D02*
X133790000Y-80030000D01*
X133790000Y-90950000D02*
X138010000Y-90950000D01*
X135090000Y-90950000D02*
X136710000Y-90950000D01*
X135090000Y-92810000D02*
X135090000Y-90950000D01*
X135090000Y-92810000D02*
X136710000Y-92810000D01*
X136710000Y-92810000D02*
X136710000Y-90950000D01*
X138010000Y-90950000D02*
X138010000Y-80030000D01*
%TO.C,TP1*%
X164200781Y-79400000D02*
G75*
G02*
X160999219Y-79400000I-1600781J0D01*
G01*
X160999219Y-79400000D02*
G75*
G02*
X164200781Y-79400000I1600781J0D01*
G01*
%TO.C,U1*%
X147340000Y-95190000D02*
X147340000Y-96140000D01*
X147340000Y-96140000D02*
X146000000Y-96140000D01*
X147340000Y-105410000D02*
X147340000Y-104460000D01*
X148290000Y-95190000D02*
X147340000Y-95190000D01*
X148290000Y-105410000D02*
X147340000Y-105410000D01*
X156610000Y-95190000D02*
X157560000Y-95190000D01*
X156610000Y-105410000D02*
X157560000Y-105410000D01*
X157560000Y-95190000D02*
X157560000Y-96140000D01*
X157560000Y-105410000D02*
X157560000Y-104460000D01*
%TO.C,U3*%
X167340000Y-101360000D02*
X167340000Y-100885000D01*
X167815000Y-96140000D02*
X167340000Y-96140000D01*
X167815000Y-101360000D02*
X167340000Y-101360000D01*
X172085000Y-96140000D02*
X172560000Y-96140000D01*
X172085000Y-101360000D02*
X172560000Y-101360000D01*
X172560000Y-96140000D02*
X172560000Y-96615000D01*
X172560000Y-101360000D02*
X172560000Y-100885000D01*
%TO.C,C17*%
X165440580Y-94990000D02*
X165159420Y-94990000D01*
X165440580Y-96010000D02*
X165159420Y-96010000D01*
%TO.C,J6*%
X178470000Y-94870000D02*
X179800000Y-94870000D01*
X178470000Y-96200000D02*
X178470000Y-94870000D01*
X178470000Y-97470000D02*
X178470000Y-100070000D01*
X178470000Y-97470000D02*
X181130000Y-97470000D01*
X178470000Y-100070000D02*
X181130000Y-100070000D01*
X181130000Y-97470000D02*
X181130000Y-100070000D01*
%TO.C,C20*%
X172788748Y-93765000D02*
X173311252Y-93765000D01*
X172788748Y-95235000D02*
X173311252Y-95235000D01*
%TO.C,J2*%
X137970000Y-111930000D02*
X137970000Y-110600000D01*
X139300000Y-111930000D02*
X137970000Y-111930000D01*
X140570000Y-109270000D02*
X153330000Y-109270000D01*
X140570000Y-111930000D02*
X140570000Y-109270000D01*
X140570000Y-111930000D02*
X153330000Y-111930000D01*
X153330000Y-111930000D02*
X153330000Y-109270000D01*
%TO.C,R10*%
X148777500Y-88112258D02*
X148777500Y-87637742D01*
X149822500Y-88112258D02*
X149822500Y-87637742D01*
%TO.C,C28*%
X153065000Y-68361252D02*
X153065000Y-67838748D01*
X154535000Y-68361252D02*
X154535000Y-67838748D01*
%TO.C,J1*%
X150970000Y-88880000D02*
X150970000Y-87550000D01*
X152300000Y-88880000D02*
X150970000Y-88880000D01*
X153570000Y-86220000D02*
X158710000Y-86220000D01*
X153570000Y-88880000D02*
X153570000Y-86220000D01*
X153570000Y-88880000D02*
X158710000Y-88880000D01*
X158710000Y-88880000D02*
X158710000Y-86220000D01*
%TO.C,C31*%
X172788748Y-91565000D02*
X173311252Y-91565000D01*
X172788748Y-93035000D02*
X173311252Y-93035000D01*
%TO.C,R11*%
X147977500Y-67237258D02*
X147977500Y-66762742D01*
X149022500Y-67237258D02*
X149022500Y-66762742D01*
%TO.C,C21*%
X163765000Y-72861252D02*
X163765000Y-72338748D01*
X165235000Y-72861252D02*
X165235000Y-72338748D01*
%TO.C,C30*%
X177738748Y-102465000D02*
X178261252Y-102465000D01*
X177738748Y-103935000D02*
X178261252Y-103935000D01*
%TO.C,C9*%
X141359420Y-94790000D02*
X141640580Y-94790000D01*
X141359420Y-95810000D02*
X141640580Y-95810000D01*
%TO.C,R33*%
X140752742Y-83877500D02*
X141227258Y-83877500D01*
X140752742Y-84922500D02*
X141227258Y-84922500D01*
%TO.C,U4*%
D14*
X153125000Y-61400000D02*
G75*
G02*
X152875000Y-61400000I-125000J0D01*
G01*
X152875000Y-61400000D02*
G75*
G02*
X153125000Y-61400000I125000J0D01*
G01*
D13*
%TO.C,L1*%
X150440000Y-67700378D02*
X150440000Y-68499622D01*
X151560000Y-67700378D02*
X151560000Y-68499622D01*
%TO.C,TP3*%
X164550781Y-58500000D02*
G75*
G02*
X161349219Y-58500000I-1600781J0D01*
G01*
X161349219Y-58500000D02*
G75*
G02*
X164550781Y-58500000I1600781J0D01*
G01*
%TO.C,C26*%
X172538748Y-75115000D02*
X173061252Y-75115000D01*
X172538748Y-76585000D02*
X173061252Y-76585000D01*
%TO.C,C7*%
X144290000Y-101940580D02*
X144290000Y-101659420D01*
X145310000Y-101940580D02*
X145310000Y-101659420D01*
%TO.C,C8*%
X144138748Y-83665000D02*
X144661252Y-83665000D01*
X144138748Y-85135000D02*
X144661252Y-85135000D01*
%TO.C,SW1*%
X127070000Y-91650000D02*
X127070000Y-97350000D01*
X128080000Y-97950000D02*
X128870000Y-97950000D01*
X128870000Y-91050000D02*
X128080000Y-91050000D01*
X129920000Y-92900000D02*
X129920000Y-94600000D01*
X129920000Y-95900000D02*
X129920000Y-96100000D01*
%TO.C,C23*%
X184515000Y-72861252D02*
X184515000Y-72338748D01*
X185985000Y-72861252D02*
X185985000Y-72338748D01*
%TO.C,R18*%
X168277500Y-111262742D02*
X168277500Y-111737258D01*
X169322500Y-111262742D02*
X169322500Y-111737258D01*
%TO.C,R7*%
X157577500Y-68012742D02*
X157577500Y-68487258D01*
X158622500Y-68012742D02*
X158622500Y-68487258D01*
%TO.C,Y1*%
X139910000Y-96390000D02*
X139910000Y-100390000D01*
X143210000Y-96390000D02*
X139910000Y-96390000D01*
%TO.C,RV1*%
X171579000Y-107080000D02*
X181620000Y-107080000D01*
X171579000Y-112121000D02*
X171579000Y-107080000D01*
X171579000Y-112121000D02*
X172674000Y-112121000D01*
X174980000Y-107080000D02*
X178220000Y-107080000D01*
X174980000Y-110763000D02*
X174980000Y-107080000D01*
X175526000Y-112121000D02*
X177675000Y-112121000D01*
X175526000Y-112121000D02*
X177675000Y-112121000D01*
X178220000Y-110763000D02*
X178220000Y-107080000D01*
X180525000Y-112121000D02*
X181620000Y-112121000D01*
X181620000Y-112121000D02*
X181620000Y-107080000D01*
%TO.C,SW2*%
X140550000Y-75850000D02*
X146850000Y-75850000D01*
X140550000Y-76100000D02*
X140550000Y-75850000D01*
X140550000Y-80600000D02*
X140550000Y-78000000D01*
X140550000Y-82750000D02*
X140550000Y-82500000D01*
X146850000Y-75850000D02*
X146850000Y-76100000D01*
X146850000Y-78000000D02*
X146850000Y-80600000D01*
X146850000Y-82500000D02*
X146850000Y-82750000D01*
X146850000Y-82750000D02*
X140550000Y-82750000D01*
%TO.C,J3*%
X126280000Y-72445000D02*
X136730000Y-72445000D01*
X136730000Y-62555000D02*
X126280000Y-62555000D01*
X136730000Y-63760000D02*
X136730000Y-62555000D01*
X136730000Y-71240000D02*
X142500000Y-71240000D01*
X136730000Y-72445000D02*
X136730000Y-71240000D01*
X142500000Y-63760000D02*
X136730000Y-63760000D01*
X142500000Y-71240000D02*
X142500000Y-63760000D01*
%TO.C,J4*%
X159970000Y-86270000D02*
X161300000Y-86270000D01*
X159970000Y-87600000D02*
X159970000Y-86270000D01*
X159970000Y-88870000D02*
X159970000Y-96550000D01*
X159970000Y-88870000D02*
X162630000Y-88870000D01*
X159970000Y-96550000D02*
X162630000Y-96550000D01*
X162630000Y-88870000D02*
X162630000Y-96550000D01*
%TO.C,C38*%
X182090000Y-110240580D02*
X182090000Y-109959420D01*
X183110000Y-110240580D02*
X183110000Y-109959420D01*
%TO.C,U5*%
X180740000Y-72662500D02*
X180740000Y-72012500D01*
X180740000Y-72662500D02*
X180740000Y-74337500D01*
X183860000Y-72662500D02*
X183860000Y-72012500D01*
X183860000Y-72662500D02*
X183860000Y-73312500D01*
%TO.C,TP7*%
X175400781Y-79400000D02*
G75*
G02*
X172199219Y-79400000I-1600781J0D01*
G01*
X172199219Y-79400000D02*
G75*
G02*
X175400781Y-79400000I1600781J0D01*
G01*
%TO.C,C24*%
X181988748Y-75115000D02*
X182511252Y-75115000D01*
X181988748Y-76585000D02*
X182511252Y-76585000D01*
%TO.C,R8*%
X144837258Y-86577500D02*
X144362742Y-86577500D01*
X144837258Y-87622500D02*
X144362742Y-87622500D01*
%TO.C,C10*%
X141765580Y-100890000D02*
X141484420Y-100890000D01*
X141765580Y-101910000D02*
X141484420Y-101910000D01*
%TO.C,C3*%
X148809420Y-92290000D02*
X149090580Y-92290000D01*
X148809420Y-93310000D02*
X149090580Y-93310000D01*
%TO.C,TP4*%
X169050781Y-58400000D02*
G75*
G02*
X165849219Y-58400000I-1600781J0D01*
G01*
X165849219Y-58400000D02*
G75*
G02*
X169050781Y-58400000I1600781J0D01*
G01*
%TO.C,R1*%
X133962742Y-93877500D02*
X134437258Y-93877500D01*
X133962742Y-94922500D02*
X134437258Y-94922500D01*
%TO.C,C47*%
X148264999Y-63961252D02*
X148264999Y-63438748D01*
X149734999Y-63961252D02*
X149734999Y-63438748D01*
%TO.C,C32*%
X146465000Y-87738748D02*
X146465000Y-88261252D01*
X147935000Y-87738748D02*
X147935000Y-88261252D01*
%TO.C,R9*%
X149562258Y-70577500D02*
X149087742Y-70577500D01*
X149562258Y-71622500D02*
X149087742Y-71622500D01*
%TO.C,R2*%
X151177500Y-91662742D02*
X151177500Y-92137258D01*
X152222500Y-91662742D02*
X152222500Y-92137258D01*
%TO.C,C13*%
X175339420Y-98490000D02*
X175620580Y-98490000D01*
X175339420Y-99510000D02*
X175620580Y-99510000D01*
%TO.C,C25*%
X175065000Y-72861252D02*
X175065000Y-72338748D01*
X176535000Y-72861252D02*
X176535000Y-72338748D01*
%TO.C,C29*%
X182090000Y-103640580D02*
X182090000Y-103359420D01*
X183110000Y-103640580D02*
X183110000Y-103359420D01*
%TO.C,J5*%
X177870000Y-87730000D02*
X179200000Y-87730000D01*
X177870000Y-89060000D02*
X177870000Y-87730000D01*
X177870000Y-90330000D02*
X177870000Y-92930000D01*
X177870000Y-90330000D02*
X180530000Y-90330000D01*
X177870000Y-92930000D02*
X180530000Y-92930000D01*
X180530000Y-90330000D02*
X180530000Y-92930000D01*
%TO.C,D1*%
X147427500Y-89865000D02*
X147427500Y-91335000D01*
X147427500Y-91335000D02*
X149712500Y-91335000D01*
X149712500Y-89865000D02*
X147427500Y-89865000D01*
%TO.C,U8*%
X171290000Y-72662500D02*
X171290000Y-72012500D01*
X171290000Y-72662500D02*
X171290000Y-74337500D01*
X174410000Y-72662500D02*
X174410000Y-72012500D01*
X174410000Y-72662500D02*
X174410000Y-73312500D01*
%TO.C,D2*%
X157365000Y-63265000D02*
X157365000Y-65550000D01*
X158835000Y-63265000D02*
X157365000Y-63265000D01*
X158835000Y-65550000D02*
X158835000Y-63265000D01*
%TO.C,C15*%
X164740580Y-97490000D02*
X164459420Y-97490000D01*
X164740580Y-98510000D02*
X164459420Y-98510000D01*
%TO.C,C46*%
X154090000Y-64240580D02*
X154090000Y-63959420D01*
X155110000Y-64240580D02*
X155110000Y-63959420D01*
%TO.C,R4*%
X161477500Y-102262258D02*
X161477500Y-101787742D01*
X162522500Y-102262258D02*
X162522500Y-101787742D01*
%TO.C,R16*%
X169077500Y-104662742D02*
X169077500Y-105137258D01*
X170122500Y-104662742D02*
X170122500Y-105137258D01*
%TO.C,R23*%
X174897500Y-103837258D02*
X174897500Y-103362742D01*
X175942500Y-103837258D02*
X175942500Y-103362742D01*
%TO.C,R32*%
X165487258Y-75327500D02*
X165012742Y-75327500D01*
X165487258Y-76372500D02*
X165012742Y-76372500D01*
%TO.C,C19*%
X177738748Y-105065000D02*
X178261252Y-105065000D01*
X177738748Y-106535000D02*
X178261252Y-106535000D01*
%TO.C,TP6*%
X184800781Y-79400000D02*
G75*
G02*
X181599219Y-79400000I-1600781J0D01*
G01*
X181599219Y-79400000D02*
G75*
G02*
X184800781Y-79400000I1600781J0D01*
G01*
%TO.C,U2*%
X159990000Y-72662500D02*
X159990000Y-72012500D01*
X159990000Y-72662500D02*
X159990000Y-74337500D01*
X163110000Y-72662500D02*
X163110000Y-72012500D01*
X163110000Y-72662500D02*
X163110000Y-73312500D01*
%TO.C,TP2*%
X155500781Y-73000000D02*
G75*
G02*
X152299219Y-73000000I-1600781J0D01*
G01*
X152299219Y-73000000D02*
G75*
G02*
X155500781Y-73000000I1600781J0D01*
G01*
%TD*%
M02*
