%TF.GenerationSoftware,KiCad,Pcbnew,8.0.0*%
%TF.CreationDate,2024-03-06T15:24:16+01:00*%
%TF.ProjectId,EffectsPaddleBoard,45666665-6374-4735-9061-64646c65426f,rev?*%
%TF.SameCoordinates,Original*%
%TF.FileFunction,Copper,L3,Inr*%
%TF.FilePolarity,Positive*%
%FSLAX46Y46*%
G04 Gerber Fmt 4.6, Leading zero omitted, Abs format (unit mm)*
G04 Created by KiCad (PCBNEW 8.0.0) date 2024-03-06 15:24:16*
%MOMM*%
%LPD*%
G01*
G04 APERTURE LIST*
%TA.AperFunction,ComponentPad*%
%ADD10C,2.600000*%
%TD*%
%TA.AperFunction,ComponentPad*%
%ADD11R,1.600000X1.600000*%
%TD*%
%TA.AperFunction,ComponentPad*%
%ADD12O,1.600000X1.600000*%
%TD*%
%TA.AperFunction,ComponentPad*%
%ADD13R,1.700000X1.700000*%
%TD*%
%TA.AperFunction,ComponentPad*%
%ADD14O,1.700000X1.700000*%
%TD*%
%TA.AperFunction,ComponentPad*%
%ADD15C,2.340000*%
%TD*%
%TA.AperFunction,ComponentPad*%
%ADD16R,2.020000X5.020000*%
%TD*%
%TA.AperFunction,ComponentPad*%
%ADD17O,2.020000X5.020000*%
%TD*%
%TA.AperFunction,ViaPad*%
%ADD18C,0.600000*%
%TD*%
G04 APERTURE END LIST*
D10*
%TO.N,/Barreljack_in*%
%TO.C,TP5*%
X145100000Y-63300000D03*
%TD*%
D11*
%TO.N,+3.3V*%
%TO.C,SW4*%
X135900000Y-89300000D03*
D12*
%TO.N,Net-(R8-Pad2)*%
X135900000Y-81680000D03*
%TD*%
D10*
%TO.N,+3.3V*%
%TO.C,TP1*%
X162600000Y-79400000D03*
%TD*%
D13*
%TO.N,GND*%
%TO.C,J6*%
X179800000Y-96200000D03*
D14*
%TO.N,Net-(J6-Pin_2)*%
X179800000Y-98740000D03*
%TD*%
D13*
%TO.N,+3.3V*%
%TO.C,J2*%
X139300000Y-110600000D03*
D14*
%TO.N,ADC11*%
X141840000Y-110600000D03*
%TO.N,ADC12*%
X144380000Y-110600000D03*
%TO.N,ADC13*%
X146920000Y-110600000D03*
%TO.N,ADC14*%
X149460000Y-110600000D03*
%TO.N,GND*%
X152000000Y-110600000D03*
%TD*%
D13*
%TO.N,UART_RX*%
%TO.C,J1*%
X152300000Y-87550000D03*
D14*
%TO.N,UART_TX*%
X154840000Y-87550000D03*
%TO.N,GND*%
X157380000Y-87550000D03*
%TD*%
D10*
%TO.N,GND*%
%TO.C,TP3*%
X162950000Y-58500000D03*
%TD*%
D15*
%TO.N,/Codec/VolumeVDiv*%
%TO.C,RV1*%
X174100000Y-112000000D03*
%TO.N,/Codec/Volume*%
X176600000Y-109500000D03*
%TO.N,GND*%
X179100000Y-112000000D03*
%TD*%
D16*
%TO.N,/Barreljack_in*%
%TO.C,J3*%
X141280000Y-67500000D03*
D17*
%TO.N,GND*%
X136100000Y-67500000D03*
%TD*%
D13*
%TO.N,JTAG_TMS*%
%TO.C,J4*%
X161300000Y-87600000D03*
D14*
%TO.N,JTAG_TCK*%
X161300000Y-90140000D03*
%TO.N,JTAG_TDI*%
X161300000Y-92680000D03*
%TO.N,JTAG_TDO*%
X161300000Y-95220000D03*
%TD*%
D10*
%TO.N,+1V8*%
%TO.C,TP7*%
X173800000Y-79400000D03*
%TD*%
%TO.N,GND*%
%TO.C,TP4*%
X167450000Y-58400000D03*
%TD*%
D13*
%TO.N,GND*%
%TO.C,J5*%
X179200000Y-89060000D03*
D14*
%TO.N,/Codec/AudioOutBoard*%
X179200000Y-91600000D03*
%TD*%
D10*
%TO.N,+3.3VA*%
%TO.C,TP6*%
X183200000Y-79400000D03*
%TD*%
%TO.N,+5V*%
%TO.C,TP2*%
X153900000Y-73000000D03*
%TD*%
D18*
%TO.N,+3.3V*%
X160500000Y-102600000D03*
X132300000Y-92300000D03*
X159000000Y-95475000D03*
X149700000Y-107775000D03*
X145100000Y-96600000D03*
X166300000Y-96900000D03*
X147800000Y-94400000D03*
X160400000Y-98200000D03*
X157800000Y-106400000D03*
X143400000Y-104600000D03*
%TO.N,GND*%
X163600000Y-96600000D03*
X148000000Y-84400000D03*
X170300000Y-106900000D03*
X180000000Y-75800000D03*
X149000000Y-61600000D03*
X151700000Y-95900000D03*
X160900000Y-105700000D03*
X167900000Y-93500000D03*
X159400000Y-75800000D03*
X138600000Y-98300000D03*
X156000000Y-66000000D03*
X160200000Y-79400000D03*
X165700000Y-102800000D03*
X165700000Y-101900000D03*
X139800000Y-75000000D03*
X138600000Y-96300000D03*
X163400000Y-99800000D03*
X168800000Y-97500000D03*
X171050000Y-99900000D03*
X156500000Y-99700000D03*
X171050000Y-97500000D03*
X177200000Y-73600000D03*
X165200000Y-106600000D03*
X164800000Y-105100000D03*
X168800000Y-99900000D03*
X138600000Y-100300000D03*
X148600000Y-102300000D03*
X167200000Y-102800000D03*
X145500000Y-89000000D03*
X168800000Y-108900000D03*
X167800000Y-106100000D03*
X143900000Y-92800000D03*
X176000000Y-101500000D03*
X146000000Y-68000000D03*
X180800000Y-79400000D03*
X181000000Y-104200000D03*
X166000000Y-73600000D03*
X147800000Y-75000000D03*
X163000000Y-65500000D03*
X142000000Y-86000000D03*
X150400000Y-91700000D03*
X149200000Y-95800000D03*
X138600000Y-94800000D03*
X147000000Y-90600000D03*
X186800000Y-73600000D03*
X171400000Y-79400000D03*
X143500000Y-103800000D03*
X165000000Y-79400000D03*
X141500000Y-103800000D03*
X140800000Y-91100000D03*
X170600000Y-75800000D03*
X144000000Y-94200000D03*
X154200000Y-62200000D03*
X132100000Y-91300000D03*
X181400000Y-101600000D03*
X154500000Y-65900000D03*
X165600000Y-104800000D03*
X156500000Y-101400000D03*
X185600000Y-79400000D03*
X151000000Y-90000000D03*
X164500000Y-100700000D03*
X176200000Y-79400000D03*
X150900000Y-61400000D03*
%TO.N,+5V*%
X173500000Y-97000000D03*
X173400000Y-98500000D03*
%TO.N,+1V8*%
X166400000Y-98000000D03*
%TO.N,+3.3VA*%
X170200000Y-95200000D03*
X142600000Y-103800000D03*
X173600000Y-101000000D03*
X168800000Y-109800000D03*
%TO.N,I2C_SCL*%
X164800000Y-104200000D03*
X164800000Y-102800000D03*
%TO.N,I2S_ext_SD*%
X156500000Y-98900000D03*
X164000000Y-99300000D03*
%TO.N,I2S_SD*%
X164700000Y-99875000D03*
X156500000Y-100624997D03*
%TO.N,Codec_GPIO*%
X167705288Y-105087660D03*
X167900000Y-94700000D03*
%TO.N,I2S_CK*%
X164200000Y-106700000D03*
X166400000Y-101300000D03*
%TO.N,I2S_WS*%
X165500000Y-100600000D03*
X160866940Y-104833060D03*
%TO.N,I2S_MCK*%
X166400000Y-104800000D03*
X166400000Y-102400000D03*
%TO.N,Codec_Reset*%
X144800000Y-94200000D03*
X144800000Y-92800000D03*
%TO.N,Net-(C19-Pad2)*%
X181200000Y-106500000D03*
X181000000Y-102300000D03*
%TO.N,Net-(C30-Pad2)*%
X181000000Y-103400000D03*
%TD*%
%TA.AperFunction,Conductor*%
%TO.N,GND*%
G36*
X188002702Y-52448619D02*
G01*
X188391303Y-52465586D01*
X188402039Y-52466526D01*
X188784992Y-52516942D01*
X188795630Y-52518817D01*
X189172737Y-52602421D01*
X189183177Y-52605219D01*
X189551549Y-52721365D01*
X189561695Y-52725058D01*
X189918553Y-52872874D01*
X189928345Y-52877440D01*
X190270941Y-53055784D01*
X190280309Y-53061192D01*
X190606069Y-53268724D01*
X190614930Y-53274929D01*
X190921354Y-53510056D01*
X190929641Y-53517010D01*
X191214403Y-53777947D01*
X191222052Y-53785596D01*
X191482989Y-54070358D01*
X191489943Y-54078645D01*
X191725070Y-54385069D01*
X191731275Y-54393930D01*
X191938807Y-54719690D01*
X191944215Y-54729058D01*
X192122556Y-55071648D01*
X192127128Y-55081452D01*
X192274937Y-55438294D01*
X192278637Y-55448460D01*
X192394779Y-55816818D01*
X192397579Y-55827266D01*
X192481180Y-56204361D01*
X192483058Y-56215015D01*
X192533471Y-56597940D01*
X192534414Y-56608717D01*
X192551378Y-56997288D01*
X192551496Y-57002701D01*
X192549502Y-108934549D01*
X192549500Y-108934595D01*
X192549500Y-108997293D01*
X192549382Y-109002702D01*
X192532424Y-109391108D01*
X192531481Y-109401884D01*
X192481090Y-109784639D01*
X192479212Y-109795292D01*
X192395651Y-110172213D01*
X192392851Y-110182663D01*
X192276760Y-110550856D01*
X192273060Y-110561021D01*
X192125317Y-110917703D01*
X192120745Y-110927507D01*
X191942481Y-111269951D01*
X191937072Y-111279319D01*
X191729643Y-111604915D01*
X191723439Y-111613776D01*
X191488412Y-111920069D01*
X191481458Y-111928356D01*
X191220639Y-112212990D01*
X191212990Y-112220639D01*
X190928356Y-112481458D01*
X190920069Y-112488412D01*
X190613776Y-112723439D01*
X190604915Y-112729643D01*
X190279319Y-112937072D01*
X190269951Y-112942481D01*
X189927507Y-113120745D01*
X189917703Y-113125317D01*
X189561021Y-113273060D01*
X189550856Y-113276760D01*
X189182663Y-113392851D01*
X189172213Y-113395651D01*
X188795292Y-113479212D01*
X188784639Y-113481090D01*
X188401884Y-113531481D01*
X188391108Y-113532424D01*
X188002703Y-113549382D01*
X187997294Y-113549500D01*
X180193864Y-113549500D01*
X180126825Y-113529815D01*
X180081070Y-113477011D01*
X180071126Y-113407853D01*
X180089485Y-113367651D01*
X180091595Y-113345148D01*
X179347489Y-112601041D01*
X179407890Y-112576022D01*
X179514351Y-112504888D01*
X179604888Y-112414351D01*
X179676022Y-112307890D01*
X179701041Y-112247488D01*
X180445197Y-112991645D01*
X180445198Y-112991644D01*
X180483690Y-112943379D01*
X180608836Y-112726618D01*
X180700279Y-112493626D01*
X180700285Y-112493607D01*
X180755978Y-112249599D01*
X180755978Y-112249597D01*
X180774683Y-112000004D01*
X180774683Y-111999995D01*
X180755978Y-111750402D01*
X180755978Y-111750400D01*
X180700285Y-111506392D01*
X180700279Y-111506373D01*
X180608836Y-111273381D01*
X180483688Y-111056618D01*
X180483681Y-111056607D01*
X180445199Y-111008354D01*
X180445198Y-111008353D01*
X179701041Y-111752510D01*
X179676022Y-111692110D01*
X179604888Y-111585649D01*
X179514351Y-111495112D01*
X179407890Y-111423978D01*
X179347488Y-111398958D01*
X180091595Y-110654850D01*
X179937335Y-110549678D01*
X179937334Y-110549677D01*
X179711832Y-110441083D01*
X179711834Y-110441083D01*
X179472653Y-110367305D01*
X179472647Y-110367303D01*
X179225156Y-110330000D01*
X178974843Y-110330000D01*
X178727352Y-110367303D01*
X178727346Y-110367305D01*
X178488166Y-110441083D01*
X178262664Y-110549679D01*
X178262651Y-110549686D01*
X178108403Y-110654849D01*
X178852512Y-111398958D01*
X178792110Y-111423978D01*
X178685649Y-111495112D01*
X178595112Y-111585649D01*
X178523978Y-111692110D01*
X178498958Y-111752512D01*
X177754800Y-111008354D01*
X177716311Y-111056617D01*
X177591163Y-111273381D01*
X177499720Y-111506373D01*
X177499714Y-111506392D01*
X177444021Y-111750400D01*
X177444021Y-111750402D01*
X177425317Y-111999995D01*
X177425317Y-112000004D01*
X177444021Y-112249597D01*
X177444021Y-112249599D01*
X177499714Y-112493607D01*
X177499720Y-112493626D01*
X177591163Y-112726618D01*
X177716311Y-112943381D01*
X177716318Y-112943392D01*
X177754799Y-112991645D01*
X177754800Y-112991645D01*
X178498958Y-112247487D01*
X178523978Y-112307890D01*
X178595112Y-112414351D01*
X178685649Y-112504888D01*
X178792110Y-112576022D01*
X178852511Y-112601041D01*
X178108403Y-113345148D01*
X178110249Y-113364834D01*
X178120287Y-113377076D01*
X178128345Y-113446480D01*
X178097602Y-113509222D01*
X178037818Y-113545384D01*
X178006133Y-113549500D01*
X174704366Y-113549500D01*
X174637327Y-113529815D01*
X174591572Y-113477011D01*
X174581628Y-113407853D01*
X174610653Y-113344297D01*
X174664103Y-113308219D01*
X174666771Y-113307302D01*
X174672564Y-113305314D01*
X174879602Y-113193270D01*
X175065375Y-113048677D01*
X175224816Y-112875479D01*
X175353574Y-112678400D01*
X175448138Y-112462816D01*
X175505928Y-112234608D01*
X175525368Y-112000000D01*
X175520063Y-111935981D01*
X175512408Y-111843594D01*
X175505928Y-111765392D01*
X175448138Y-111537184D01*
X175353574Y-111321600D01*
X175325950Y-111279319D01*
X175262252Y-111181821D01*
X175224816Y-111124521D01*
X175224813Y-111124518D01*
X175224809Y-111124512D01*
X175065378Y-110951326D01*
X175065375Y-110951323D01*
X174975989Y-110881751D01*
X174879602Y-110806730D01*
X174879600Y-110806729D01*
X174879599Y-110806728D01*
X174672564Y-110694686D01*
X174672556Y-110694683D01*
X174449909Y-110618248D01*
X174295106Y-110592416D01*
X174217706Y-110579500D01*
X173982294Y-110579500D01*
X173924243Y-110589187D01*
X173750090Y-110618248D01*
X173527443Y-110694683D01*
X173527435Y-110694686D01*
X173320400Y-110806728D01*
X173134624Y-110951323D01*
X173134621Y-110951326D01*
X172975190Y-111124512D01*
X172975182Y-111124523D01*
X172846426Y-111321598D01*
X172751862Y-111537183D01*
X172694071Y-111765395D01*
X172674632Y-111999994D01*
X172674632Y-112000005D01*
X172694071Y-112234604D01*
X172751862Y-112462816D01*
X172846426Y-112678401D01*
X172975182Y-112875476D01*
X172975190Y-112875487D01*
X173134621Y-113048673D01*
X173134625Y-113048677D01*
X173320398Y-113193270D01*
X173527436Y-113305314D01*
X173532002Y-113306881D01*
X173535897Y-113308219D01*
X173592912Y-113348604D01*
X173619043Y-113413404D01*
X173605992Y-113482044D01*
X173557903Y-113532731D01*
X173495634Y-113549500D01*
X131002706Y-113549500D01*
X130997297Y-113549382D01*
X130608891Y-113532424D01*
X130598115Y-113531481D01*
X130215360Y-113481090D01*
X130204707Y-113479212D01*
X129827786Y-113395651D01*
X129817336Y-113392851D01*
X129449143Y-113276760D01*
X129438978Y-113273060D01*
X129082296Y-113125317D01*
X129072492Y-113120745D01*
X128824490Y-112991644D01*
X128730042Y-112942477D01*
X128720687Y-112937076D01*
X128557882Y-112833357D01*
X128395084Y-112729643D01*
X128386223Y-112723439D01*
X128079930Y-112488412D01*
X128071643Y-112481458D01*
X127787009Y-112220639D01*
X127779360Y-112212990D01*
X127518541Y-111928356D01*
X127511587Y-111920069D01*
X127276560Y-111613776D01*
X127270356Y-111604915D01*
X127227206Y-111537183D01*
X127187386Y-111474678D01*
X138199500Y-111474678D01*
X138214032Y-111547735D01*
X138214033Y-111547739D01*
X138214034Y-111547740D01*
X138269399Y-111630601D01*
X138352260Y-111685966D01*
X138352264Y-111685967D01*
X138425321Y-111700499D01*
X138425324Y-111700500D01*
X138425326Y-111700500D01*
X140174676Y-111700500D01*
X140174677Y-111700499D01*
X140247740Y-111685966D01*
X140330601Y-111630601D01*
X140385966Y-111547740D01*
X140400500Y-111474674D01*
X140400500Y-110600000D01*
X140734785Y-110600000D01*
X140753602Y-110803082D01*
X140809417Y-110999247D01*
X140809422Y-110999260D01*
X140900327Y-111181821D01*
X141023237Y-111344581D01*
X141173958Y-111481980D01*
X141173960Y-111481982D01*
X141213384Y-111506392D01*
X141347363Y-111589348D01*
X141537544Y-111663024D01*
X141738024Y-111700500D01*
X141738026Y-111700500D01*
X141941974Y-111700500D01*
X141941976Y-111700500D01*
X142142456Y-111663024D01*
X142332637Y-111589348D01*
X142506041Y-111481981D01*
X142634122Y-111365219D01*
X142656762Y-111344581D01*
X142656764Y-111344579D01*
X142779673Y-111181821D01*
X142870582Y-110999250D01*
X142926397Y-110803083D01*
X142945215Y-110600000D01*
X143274785Y-110600000D01*
X143293602Y-110803082D01*
X143349417Y-110999247D01*
X143349422Y-110999260D01*
X143440327Y-111181821D01*
X143563237Y-111344581D01*
X143713958Y-111481980D01*
X143713960Y-111481982D01*
X143753384Y-111506392D01*
X143887363Y-111589348D01*
X144077544Y-111663024D01*
X144278024Y-111700500D01*
X144278026Y-111700500D01*
X144481974Y-111700500D01*
X144481976Y-111700500D01*
X144682456Y-111663024D01*
X144872637Y-111589348D01*
X145046041Y-111481981D01*
X145174122Y-111365219D01*
X145196762Y-111344581D01*
X145196764Y-111344579D01*
X145319673Y-111181821D01*
X145410582Y-110999250D01*
X145466397Y-110803083D01*
X145485215Y-110600000D01*
X145814785Y-110600000D01*
X145833602Y-110803082D01*
X145889417Y-110999247D01*
X145889422Y-110999260D01*
X145980327Y-111181821D01*
X146103237Y-111344581D01*
X146253958Y-111481980D01*
X146253960Y-111481982D01*
X146293384Y-111506392D01*
X146427363Y-111589348D01*
X146617544Y-111663024D01*
X146818024Y-111700500D01*
X146818026Y-111700500D01*
X147021974Y-111700500D01*
X147021976Y-111700500D01*
X147222456Y-111663024D01*
X147412637Y-111589348D01*
X147586041Y-111481981D01*
X147714122Y-111365219D01*
X147736762Y-111344581D01*
X147736764Y-111344579D01*
X147859673Y-111181821D01*
X147950582Y-110999250D01*
X148006397Y-110803083D01*
X148025215Y-110600000D01*
X148354785Y-110600000D01*
X148373602Y-110803082D01*
X148429417Y-110999247D01*
X148429422Y-110999260D01*
X148520327Y-111181821D01*
X148643237Y-111344581D01*
X148793958Y-111481980D01*
X148793960Y-111481982D01*
X148833384Y-111506392D01*
X148967363Y-111589348D01*
X149157544Y-111663024D01*
X149358024Y-111700500D01*
X149358026Y-111700500D01*
X149561974Y-111700500D01*
X149561976Y-111700500D01*
X149762456Y-111663024D01*
X149952637Y-111589348D01*
X150126041Y-111481981D01*
X150254122Y-111365219D01*
X150276762Y-111344581D01*
X150276764Y-111344579D01*
X150399673Y-111181821D01*
X150486049Y-111008354D01*
X150486817Y-111006812D01*
X150534319Y-110955575D01*
X150601982Y-110938153D01*
X150668323Y-110960078D01*
X150712278Y-111014389D01*
X150717592Y-111029989D01*
X150726567Y-111063485D01*
X150726570Y-111063492D01*
X150826399Y-111277578D01*
X150961894Y-111471082D01*
X151128917Y-111638105D01*
X151322421Y-111773600D01*
X151536507Y-111873429D01*
X151536516Y-111873433D01*
X151750000Y-111930634D01*
X151750000Y-111033012D01*
X151807007Y-111065925D01*
X151934174Y-111100000D01*
X152065826Y-111100000D01*
X152192993Y-111065925D01*
X152250000Y-111033012D01*
X152250000Y-111930633D01*
X152463483Y-111873433D01*
X152463492Y-111873429D01*
X152677578Y-111773600D01*
X152871082Y-111638105D01*
X153038105Y-111471082D01*
X153173600Y-111277578D01*
X153273429Y-111063492D01*
X153273432Y-111063486D01*
X153330636Y-110850000D01*
X152433012Y-110850000D01*
X152465925Y-110792993D01*
X152500000Y-110665826D01*
X152500000Y-110534174D01*
X152465925Y-110407007D01*
X152433012Y-110350000D01*
X153330636Y-110350000D01*
X153330635Y-110349999D01*
X153273432Y-110136513D01*
X153273429Y-110136507D01*
X153173600Y-109922422D01*
X153173599Y-109922420D01*
X153087880Y-109800000D01*
X168244750Y-109800000D01*
X168260867Y-109922422D01*
X168263670Y-109943708D01*
X168263671Y-109943712D01*
X168319137Y-110077622D01*
X168319138Y-110077624D01*
X168319139Y-110077625D01*
X168407379Y-110192621D01*
X168522375Y-110280861D01*
X168656291Y-110336330D01*
X168783280Y-110353048D01*
X168799999Y-110355250D01*
X168800000Y-110355250D01*
X168800001Y-110355250D01*
X168814977Y-110353278D01*
X168943709Y-110336330D01*
X169077625Y-110280861D01*
X169192621Y-110192621D01*
X169280861Y-110077625D01*
X169336330Y-109943709D01*
X169355250Y-109800000D01*
X169336330Y-109656291D01*
X169280861Y-109522375D01*
X169263696Y-109500005D01*
X175174632Y-109500005D01*
X175194071Y-109734604D01*
X175251862Y-109962816D01*
X175346426Y-110178401D01*
X175475182Y-110375476D01*
X175475190Y-110375487D01*
X175628419Y-110541936D01*
X175634625Y-110548677D01*
X175820398Y-110693270D01*
X176027436Y-110805314D01*
X176250093Y-110881752D01*
X176482294Y-110920500D01*
X176482295Y-110920500D01*
X176717705Y-110920500D01*
X176717706Y-110920500D01*
X176949907Y-110881752D01*
X177172564Y-110805314D01*
X177379602Y-110693270D01*
X177565375Y-110548677D01*
X177724816Y-110375479D01*
X177853574Y-110178400D01*
X177948138Y-109962816D01*
X178005928Y-109734608D01*
X178017405Y-109596100D01*
X178025368Y-109500005D01*
X178025368Y-109499994D01*
X178010997Y-109326567D01*
X178005928Y-109265392D01*
X177969436Y-109121288D01*
X186149500Y-109121288D01*
X186181161Y-109361785D01*
X186243947Y-109596104D01*
X186328404Y-109800000D01*
X186336776Y-109820212D01*
X186458064Y-110030289D01*
X186458066Y-110030292D01*
X186458067Y-110030293D01*
X186605733Y-110222736D01*
X186605739Y-110222743D01*
X186777256Y-110394260D01*
X186777263Y-110394266D01*
X186890321Y-110481018D01*
X186969711Y-110541936D01*
X187179788Y-110663224D01*
X187403900Y-110756054D01*
X187638211Y-110818838D01*
X187818586Y-110842584D01*
X187878711Y-110850500D01*
X187878712Y-110850500D01*
X188121289Y-110850500D01*
X188169388Y-110844167D01*
X188361789Y-110818838D01*
X188596100Y-110756054D01*
X188820212Y-110663224D01*
X189030289Y-110541936D01*
X189222738Y-110394265D01*
X189394265Y-110222738D01*
X189541936Y-110030289D01*
X189663224Y-109820212D01*
X189756054Y-109596100D01*
X189818838Y-109361789D01*
X189850500Y-109121288D01*
X189850500Y-108878712D01*
X189818838Y-108638211D01*
X189756054Y-108403900D01*
X189663224Y-108179788D01*
X189541936Y-107969711D01*
X189394265Y-107777262D01*
X189394260Y-107777256D01*
X189222743Y-107605739D01*
X189222736Y-107605733D01*
X189030293Y-107458067D01*
X189030292Y-107458066D01*
X189030289Y-107458064D01*
X188820212Y-107336776D01*
X188820205Y-107336773D01*
X188596104Y-107243947D01*
X188361785Y-107181161D01*
X188121289Y-107149500D01*
X188121288Y-107149500D01*
X187878712Y-107149500D01*
X187878711Y-107149500D01*
X187638214Y-107181161D01*
X187403895Y-107243947D01*
X187179794Y-107336773D01*
X187179785Y-107336777D01*
X186969706Y-107458067D01*
X186777263Y-107605733D01*
X186777256Y-107605739D01*
X186605739Y-107777256D01*
X186605733Y-107777263D01*
X186458067Y-107969706D01*
X186336777Y-108179785D01*
X186336773Y-108179794D01*
X186243947Y-108403895D01*
X186181161Y-108638214D01*
X186149500Y-108878711D01*
X186149500Y-109121288D01*
X177969436Y-109121288D01*
X177948138Y-109037184D01*
X177853574Y-108821600D01*
X177724816Y-108624521D01*
X177724813Y-108624518D01*
X177724809Y-108624512D01*
X177565378Y-108451326D01*
X177565375Y-108451323D01*
X177504446Y-108403900D01*
X177379602Y-108306730D01*
X177379600Y-108306729D01*
X177379599Y-108306728D01*
X177172564Y-108194686D01*
X177172556Y-108194683D01*
X176949909Y-108118248D01*
X176795106Y-108092416D01*
X176717706Y-108079500D01*
X176482294Y-108079500D01*
X176424243Y-108089187D01*
X176250090Y-108118248D01*
X176027443Y-108194683D01*
X176027435Y-108194686D01*
X175820400Y-108306728D01*
X175634624Y-108451323D01*
X175634621Y-108451326D01*
X175475190Y-108624512D01*
X175475182Y-108624523D01*
X175346426Y-108821598D01*
X175251862Y-109037183D01*
X175194071Y-109265395D01*
X175174632Y-109499994D01*
X175174632Y-109500005D01*
X169263696Y-109500005D01*
X169192621Y-109407379D01*
X169077625Y-109319139D01*
X169077624Y-109319138D01*
X169077622Y-109319137D01*
X168943712Y-109263671D01*
X168943710Y-109263670D01*
X168943709Y-109263670D01*
X168871854Y-109254210D01*
X168800001Y-109244750D01*
X168799999Y-109244750D01*
X168656291Y-109263670D01*
X168656287Y-109263671D01*
X168522377Y-109319137D01*
X168407379Y-109407379D01*
X168319137Y-109522377D01*
X168263671Y-109656287D01*
X168263670Y-109656291D01*
X168244750Y-109800000D01*
X153087880Y-109800000D01*
X153038113Y-109728926D01*
X153038108Y-109728920D01*
X152871082Y-109561894D01*
X152677578Y-109426399D01*
X152463492Y-109326570D01*
X152463486Y-109326567D01*
X152250000Y-109269364D01*
X152250000Y-110166988D01*
X152192993Y-110134075D01*
X152065826Y-110100000D01*
X151934174Y-110100000D01*
X151807007Y-110134075D01*
X151750000Y-110166988D01*
X151750000Y-109269364D01*
X151749999Y-109269364D01*
X151536513Y-109326567D01*
X151536507Y-109326570D01*
X151322422Y-109426399D01*
X151322420Y-109426400D01*
X151128926Y-109561886D01*
X151128920Y-109561891D01*
X150961891Y-109728920D01*
X150961886Y-109728926D01*
X150826400Y-109922420D01*
X150826399Y-109922422D01*
X150726570Y-110136507D01*
X150726568Y-110136511D01*
X150717592Y-110170011D01*
X150681226Y-110229671D01*
X150618379Y-110260199D01*
X150549003Y-110251904D01*
X150495126Y-110207418D01*
X150486817Y-110193188D01*
X150405703Y-110030289D01*
X150399673Y-110018179D01*
X150276764Y-109855421D01*
X150276762Y-109855418D01*
X150126041Y-109718019D01*
X150126039Y-109718017D01*
X149952642Y-109610655D01*
X149952635Y-109610651D01*
X149826769Y-109561891D01*
X149762456Y-109536976D01*
X149561976Y-109499500D01*
X149358024Y-109499500D01*
X149157544Y-109536976D01*
X149157541Y-109536976D01*
X149157541Y-109536977D01*
X148967364Y-109610651D01*
X148967357Y-109610655D01*
X148793960Y-109718017D01*
X148793958Y-109718019D01*
X148643237Y-109855418D01*
X148520327Y-110018178D01*
X148429422Y-110200739D01*
X148429417Y-110200752D01*
X148373602Y-110396917D01*
X148354785Y-110599999D01*
X148354785Y-110600000D01*
X148025215Y-110600000D01*
X148023315Y-110579500D01*
X148006397Y-110396917D01*
X148000296Y-110375476D01*
X147950582Y-110200750D01*
X147950159Y-110199901D01*
X147865703Y-110030289D01*
X147859673Y-110018179D01*
X147736764Y-109855421D01*
X147736762Y-109855418D01*
X147586041Y-109718019D01*
X147586039Y-109718017D01*
X147412642Y-109610655D01*
X147412635Y-109610651D01*
X147286769Y-109561891D01*
X147222456Y-109536976D01*
X147021976Y-109499500D01*
X146818024Y-109499500D01*
X146617544Y-109536976D01*
X146617541Y-109536976D01*
X146617541Y-109536977D01*
X146427364Y-109610651D01*
X146427357Y-109610655D01*
X146253960Y-109718017D01*
X146253958Y-109718019D01*
X146103237Y-109855418D01*
X145980327Y-110018178D01*
X145889422Y-110200739D01*
X145889417Y-110200752D01*
X145833602Y-110396917D01*
X145814785Y-110599999D01*
X145814785Y-110600000D01*
X145485215Y-110600000D01*
X145483315Y-110579500D01*
X145466397Y-110396917D01*
X145460296Y-110375476D01*
X145410582Y-110200750D01*
X145410159Y-110199901D01*
X145325703Y-110030289D01*
X145319673Y-110018179D01*
X145196764Y-109855421D01*
X145196762Y-109855418D01*
X145046041Y-109718019D01*
X145046039Y-109718017D01*
X144872642Y-109610655D01*
X144872635Y-109610651D01*
X144746769Y-109561891D01*
X144682456Y-109536976D01*
X144481976Y-109499500D01*
X144278024Y-109499500D01*
X144077544Y-109536976D01*
X144077541Y-109536976D01*
X144077541Y-109536977D01*
X143887364Y-109610651D01*
X143887357Y-109610655D01*
X143713960Y-109718017D01*
X143713958Y-109718019D01*
X143563237Y-109855418D01*
X143440327Y-110018178D01*
X143349422Y-110200739D01*
X143349417Y-110200752D01*
X143293602Y-110396917D01*
X143274785Y-110599999D01*
X143274785Y-110600000D01*
X142945215Y-110600000D01*
X142943315Y-110579500D01*
X142926397Y-110396917D01*
X142920296Y-110375476D01*
X142870582Y-110200750D01*
X142870159Y-110199901D01*
X142785703Y-110030289D01*
X142779673Y-110018179D01*
X142656764Y-109855421D01*
X142656762Y-109855418D01*
X142506041Y-109718019D01*
X142506039Y-109718017D01*
X142332642Y-109610655D01*
X142332635Y-109610651D01*
X142206769Y-109561891D01*
X142142456Y-109536976D01*
X141941976Y-109499500D01*
X141738024Y-109499500D01*
X141537544Y-109536976D01*
X141537541Y-109536976D01*
X141537541Y-109536977D01*
X141347364Y-109610651D01*
X141347357Y-109610655D01*
X141173960Y-109718017D01*
X141173958Y-109718019D01*
X141023237Y-109855418D01*
X140900327Y-110018178D01*
X140809422Y-110200739D01*
X140809417Y-110200752D01*
X140753602Y-110396917D01*
X140734785Y-110599999D01*
X140734785Y-110600000D01*
X140400500Y-110600000D01*
X140400500Y-109725326D01*
X140400500Y-109725323D01*
X140400499Y-109725321D01*
X140385967Y-109652264D01*
X140385966Y-109652260D01*
X140330601Y-109569399D01*
X140275235Y-109532405D01*
X140247739Y-109514033D01*
X140247735Y-109514032D01*
X140174677Y-109499500D01*
X140174674Y-109499500D01*
X138425326Y-109499500D01*
X138425323Y-109499500D01*
X138352264Y-109514032D01*
X138352260Y-109514033D01*
X138269399Y-109569399D01*
X138214033Y-109652260D01*
X138214032Y-109652264D01*
X138199500Y-109725321D01*
X138199500Y-111474678D01*
X127187386Y-111474678D01*
X127062919Y-111279305D01*
X127057526Y-111269965D01*
X126879251Y-110927501D01*
X126874682Y-110917703D01*
X126846638Y-110850000D01*
X126726938Y-110561019D01*
X126723239Y-110550856D01*
X126607143Y-110182645D01*
X126604351Y-110172225D01*
X126520784Y-109795280D01*
X126518911Y-109784653D01*
X126468516Y-109401864D01*
X126467576Y-109391127D01*
X126455795Y-109121288D01*
X129149500Y-109121288D01*
X129181161Y-109361785D01*
X129243947Y-109596104D01*
X129328404Y-109800000D01*
X129336776Y-109820212D01*
X129458064Y-110030289D01*
X129458066Y-110030292D01*
X129458067Y-110030293D01*
X129605733Y-110222736D01*
X129605739Y-110222743D01*
X129777256Y-110394260D01*
X129777263Y-110394266D01*
X129890321Y-110481018D01*
X129969711Y-110541936D01*
X130179788Y-110663224D01*
X130403900Y-110756054D01*
X130638211Y-110818838D01*
X130818586Y-110842584D01*
X130878711Y-110850500D01*
X130878712Y-110850500D01*
X131121289Y-110850500D01*
X131169388Y-110844167D01*
X131361789Y-110818838D01*
X131596100Y-110756054D01*
X131820212Y-110663224D01*
X132030289Y-110541936D01*
X132222738Y-110394265D01*
X132394265Y-110222738D01*
X132541936Y-110030289D01*
X132663224Y-109820212D01*
X132756054Y-109596100D01*
X132818838Y-109361789D01*
X132850500Y-109121288D01*
X132850500Y-108878712D01*
X132818838Y-108638211D01*
X132756054Y-108403900D01*
X132663224Y-108179788D01*
X132541936Y-107969711D01*
X132394265Y-107777262D01*
X132394260Y-107777256D01*
X132392004Y-107775000D01*
X149144750Y-107775000D01*
X149163670Y-107918708D01*
X149163671Y-107918712D01*
X149219137Y-108052622D01*
X149219138Y-108052624D01*
X149219139Y-108052625D01*
X149307379Y-108167621D01*
X149422375Y-108255861D01*
X149556291Y-108311330D01*
X149683280Y-108328048D01*
X149699999Y-108330250D01*
X149700000Y-108330250D01*
X149700001Y-108330250D01*
X149714977Y-108328278D01*
X149843709Y-108311330D01*
X149977625Y-108255861D01*
X150092621Y-108167621D01*
X150180861Y-108052625D01*
X150236330Y-107918709D01*
X150255250Y-107775000D01*
X150236330Y-107631291D01*
X150180861Y-107497375D01*
X150092621Y-107382379D01*
X149977625Y-107294139D01*
X149977624Y-107294138D01*
X149977622Y-107294137D01*
X149843712Y-107238671D01*
X149843710Y-107238670D01*
X149843709Y-107238670D01*
X149771854Y-107229210D01*
X149700001Y-107219750D01*
X149699999Y-107219750D01*
X149556291Y-107238670D01*
X149556287Y-107238671D01*
X149422377Y-107294137D01*
X149307379Y-107382379D01*
X149219137Y-107497377D01*
X149163671Y-107631287D01*
X149163670Y-107631291D01*
X149144750Y-107774999D01*
X149144750Y-107775000D01*
X132392004Y-107775000D01*
X132222743Y-107605739D01*
X132222736Y-107605733D01*
X132030293Y-107458067D01*
X132030292Y-107458066D01*
X132030289Y-107458064D01*
X131820212Y-107336776D01*
X131820205Y-107336773D01*
X131596104Y-107243947D01*
X131361785Y-107181161D01*
X131121289Y-107149500D01*
X131121288Y-107149500D01*
X130878712Y-107149500D01*
X130878711Y-107149500D01*
X130638214Y-107181161D01*
X130403895Y-107243947D01*
X130179794Y-107336773D01*
X130179785Y-107336777D01*
X129969706Y-107458067D01*
X129777263Y-107605733D01*
X129777256Y-107605739D01*
X129605739Y-107777256D01*
X129605733Y-107777263D01*
X129458067Y-107969706D01*
X129336777Y-108179785D01*
X129336773Y-108179794D01*
X129243947Y-108403895D01*
X129181161Y-108638214D01*
X129149500Y-108878711D01*
X129149500Y-109121288D01*
X126455795Y-109121288D01*
X126450617Y-109002701D01*
X126450500Y-108997291D01*
X126450502Y-108940681D01*
X126450599Y-106400000D01*
X157244750Y-106400000D01*
X157257915Y-106500000D01*
X157263670Y-106543708D01*
X157263671Y-106543712D01*
X157319137Y-106677622D01*
X157319138Y-106677624D01*
X157319139Y-106677625D01*
X157407379Y-106792621D01*
X157522375Y-106880861D01*
X157522376Y-106880861D01*
X157522377Y-106880862D01*
X157567013Y-106899350D01*
X157656291Y-106936330D01*
X157783280Y-106953048D01*
X157799999Y-106955250D01*
X157800000Y-106955250D01*
X157800001Y-106955250D01*
X157814977Y-106953278D01*
X157943709Y-106936330D01*
X158077625Y-106880861D01*
X158192621Y-106792621D01*
X158263692Y-106700000D01*
X163644750Y-106700000D01*
X163663670Y-106843708D01*
X163663671Y-106843712D01*
X163719137Y-106977622D01*
X163719138Y-106977624D01*
X163719139Y-106977625D01*
X163807379Y-107092621D01*
X163922375Y-107180861D01*
X163922376Y-107180861D01*
X163922377Y-107180862D01*
X163967013Y-107199350D01*
X164056291Y-107236330D01*
X164183280Y-107253048D01*
X164199999Y-107255250D01*
X164200000Y-107255250D01*
X164200001Y-107255250D01*
X164214977Y-107253278D01*
X164343709Y-107236330D01*
X164477625Y-107180861D01*
X164592621Y-107092621D01*
X164680861Y-106977625D01*
X164736330Y-106843709D01*
X164755250Y-106700000D01*
X164736330Y-106556291D01*
X164713014Y-106500000D01*
X180644750Y-106500000D01*
X180652160Y-106556287D01*
X180663670Y-106643708D01*
X180663671Y-106643712D01*
X180719137Y-106777622D01*
X180719138Y-106777624D01*
X180719139Y-106777625D01*
X180807379Y-106892621D01*
X180922375Y-106980861D01*
X181056291Y-107036330D01*
X181183280Y-107053048D01*
X181199999Y-107055250D01*
X181200000Y-107055250D01*
X181200001Y-107055250D01*
X181214977Y-107053278D01*
X181343709Y-107036330D01*
X181477625Y-106980861D01*
X181592621Y-106892621D01*
X181680861Y-106777625D01*
X181736330Y-106643709D01*
X181755250Y-106500000D01*
X181736330Y-106356291D01*
X181680861Y-106222375D01*
X181592621Y-106107379D01*
X181477625Y-106019139D01*
X181477624Y-106019138D01*
X181477622Y-106019137D01*
X181343712Y-105963671D01*
X181343710Y-105963670D01*
X181343709Y-105963670D01*
X181271854Y-105954210D01*
X181200001Y-105944750D01*
X181199999Y-105944750D01*
X181056291Y-105963670D01*
X181056287Y-105963671D01*
X180922377Y-106019137D01*
X180807379Y-106107379D01*
X180719137Y-106222377D01*
X180663671Y-106356287D01*
X180663670Y-106356291D01*
X180644750Y-106500000D01*
X164713014Y-106500000D01*
X164680861Y-106422375D01*
X164592621Y-106307379D01*
X164477625Y-106219139D01*
X164477624Y-106219138D01*
X164477622Y-106219137D01*
X164343712Y-106163671D01*
X164343710Y-106163670D01*
X164343709Y-106163670D01*
X164271854Y-106154210D01*
X164200001Y-106144750D01*
X164199999Y-106144750D01*
X164056291Y-106163670D01*
X164056287Y-106163671D01*
X163922377Y-106219137D01*
X163807379Y-106307379D01*
X163719137Y-106422377D01*
X163663671Y-106556287D01*
X163663670Y-106556291D01*
X163644750Y-106699999D01*
X163644750Y-106700000D01*
X158263692Y-106700000D01*
X158280861Y-106677625D01*
X158336330Y-106543709D01*
X158355250Y-106400000D01*
X158336330Y-106256291D01*
X158280861Y-106122375D01*
X158192621Y-106007379D01*
X158077625Y-105919139D01*
X158077624Y-105919138D01*
X158077622Y-105919137D01*
X157943712Y-105863671D01*
X157943710Y-105863670D01*
X157943709Y-105863670D01*
X157871854Y-105854210D01*
X157800001Y-105844750D01*
X157799999Y-105844750D01*
X157656291Y-105863670D01*
X157656287Y-105863671D01*
X157522377Y-105919137D01*
X157407379Y-106007379D01*
X157319137Y-106122377D01*
X157263671Y-106256287D01*
X157263670Y-106256291D01*
X157250505Y-106356291D01*
X157244750Y-106400000D01*
X126450599Y-106400000D01*
X126450699Y-103800000D01*
X142044750Y-103800000D01*
X142062698Y-103936329D01*
X142063670Y-103943708D01*
X142063671Y-103943712D01*
X142119137Y-104077622D01*
X142119138Y-104077624D01*
X142119139Y-104077625D01*
X142207379Y-104192621D01*
X142322375Y-104280861D01*
X142456291Y-104336330D01*
X142576811Y-104352197D01*
X142599999Y-104355250D01*
X142600000Y-104355250D01*
X142600001Y-104355250D01*
X142623189Y-104352197D01*
X142721641Y-104339235D01*
X142790674Y-104350000D01*
X142842930Y-104396380D01*
X142861816Y-104463649D01*
X142860764Y-104478359D01*
X142845721Y-104592621D01*
X142844750Y-104600000D01*
X142862698Y-104736329D01*
X142863670Y-104743708D01*
X142863671Y-104743712D01*
X142919137Y-104877622D01*
X142919138Y-104877624D01*
X142919139Y-104877625D01*
X143007379Y-104992621D01*
X143122375Y-105080861D01*
X143256291Y-105136330D01*
X143383280Y-105153048D01*
X143399999Y-105155250D01*
X143400000Y-105155250D01*
X143400001Y-105155250D01*
X143414977Y-105153278D01*
X143543709Y-105136330D01*
X143677625Y-105080861D01*
X143792621Y-104992621D01*
X143880861Y-104877625D01*
X143899320Y-104833060D01*
X160311690Y-104833060D01*
X160326257Y-104943709D01*
X160330610Y-104976768D01*
X160330611Y-104976772D01*
X160386077Y-105110682D01*
X160386078Y-105110684D01*
X160386079Y-105110685D01*
X160474319Y-105225681D01*
X160589315Y-105313921D01*
X160723231Y-105369390D01*
X160850220Y-105386108D01*
X160866939Y-105388310D01*
X160866940Y-105388310D01*
X160866941Y-105388310D01*
X160881917Y-105386338D01*
X161010649Y-105369390D01*
X161144565Y-105313921D01*
X161259561Y-105225681D01*
X161347801Y-105110685D01*
X161403270Y-104976769D01*
X161422190Y-104833060D01*
X161417837Y-104800000D01*
X165844750Y-104800000D01*
X165863670Y-104943708D01*
X165863671Y-104943712D01*
X165919137Y-105077622D01*
X165919138Y-105077623D01*
X165919139Y-105077625D01*
X166007379Y-105192621D01*
X166122375Y-105280861D01*
X166256291Y-105336330D01*
X166383280Y-105353048D01*
X166399999Y-105355250D01*
X166400000Y-105355250D01*
X166400001Y-105355250D01*
X166414977Y-105353278D01*
X166543709Y-105336330D01*
X166677625Y-105280861D01*
X166792621Y-105192621D01*
X166880861Y-105077625D01*
X166916953Y-104990489D01*
X166942001Y-104959406D01*
X167120953Y-104959406D01*
X167142396Y-104982437D01*
X167154803Y-105051196D01*
X167154452Y-105054127D01*
X167150038Y-105087656D01*
X167150038Y-105087660D01*
X167168958Y-105231368D01*
X167168959Y-105231372D01*
X167224425Y-105365282D01*
X167224426Y-105365284D01*
X167224427Y-105365285D01*
X167312667Y-105480281D01*
X167427663Y-105568521D01*
X167561579Y-105623990D01*
X167688568Y-105640708D01*
X167705287Y-105642910D01*
X167705288Y-105642910D01*
X167705289Y-105642910D01*
X167720265Y-105640938D01*
X167848997Y-105623990D01*
X167982913Y-105568521D01*
X168097909Y-105480281D01*
X168186149Y-105365285D01*
X168241618Y-105231369D01*
X168260538Y-105087660D01*
X168260537Y-105087656D01*
X168255737Y-105051196D01*
X168241618Y-104943951D01*
X168186149Y-104810035D01*
X168097909Y-104695039D01*
X167982913Y-104606799D01*
X167982912Y-104606798D01*
X167982910Y-104606797D01*
X167849000Y-104551331D01*
X167848998Y-104551330D01*
X167848997Y-104551330D01*
X167777142Y-104541870D01*
X167705289Y-104532410D01*
X167705287Y-104532410D01*
X167561579Y-104551330D01*
X167561575Y-104551331D01*
X167427665Y-104606797D01*
X167312667Y-104695039D01*
X167224426Y-104810036D01*
X167188335Y-104897169D01*
X167144494Y-104951572D01*
X167120953Y-104959406D01*
X166942001Y-104959406D01*
X166960792Y-104936088D01*
X166984333Y-104928252D01*
X166962890Y-104905221D01*
X166950484Y-104836461D01*
X166950826Y-104833600D01*
X166955250Y-104800000D01*
X166936330Y-104656291D01*
X166880861Y-104522375D01*
X166792621Y-104407379D01*
X166677625Y-104319139D01*
X166677624Y-104319138D01*
X166677622Y-104319137D01*
X166543712Y-104263671D01*
X166543710Y-104263670D01*
X166543709Y-104263670D01*
X166471854Y-104254210D01*
X166400001Y-104244750D01*
X166399999Y-104244750D01*
X166256291Y-104263670D01*
X166256287Y-104263671D01*
X166122377Y-104319137D01*
X166007379Y-104407379D01*
X165919137Y-104522377D01*
X165863671Y-104656287D01*
X165863670Y-104656291D01*
X165844750Y-104799999D01*
X165844750Y-104800000D01*
X161417837Y-104800000D01*
X161403270Y-104689351D01*
X161347801Y-104555435D01*
X161259561Y-104440439D01*
X161144565Y-104352199D01*
X161144564Y-104352198D01*
X161144562Y-104352197D01*
X161010652Y-104296731D01*
X161010650Y-104296730D01*
X161010649Y-104296730D01*
X160890122Y-104280862D01*
X160866941Y-104277810D01*
X160866939Y-104277810D01*
X160723231Y-104296730D01*
X160723227Y-104296731D01*
X160589317Y-104352197D01*
X160474319Y-104440439D01*
X160386077Y-104555437D01*
X160330611Y-104689347D01*
X160330610Y-104689351D01*
X160316043Y-104800000D01*
X160311690Y-104833060D01*
X143899320Y-104833060D01*
X143936330Y-104743709D01*
X143955250Y-104600000D01*
X143936330Y-104456291D01*
X143893214Y-104352199D01*
X143880862Y-104322377D01*
X143880861Y-104322376D01*
X143880861Y-104322375D01*
X143792621Y-104207379D01*
X143783005Y-104200000D01*
X164244750Y-104200000D01*
X164262698Y-104336329D01*
X164263670Y-104343708D01*
X164263671Y-104343712D01*
X164319137Y-104477622D01*
X164319138Y-104477624D01*
X164319139Y-104477625D01*
X164407379Y-104592621D01*
X164522375Y-104680861D01*
X164656291Y-104736330D01*
X164783280Y-104753048D01*
X164799999Y-104755250D01*
X164800000Y-104755250D01*
X164800001Y-104755250D01*
X164814977Y-104753278D01*
X164943709Y-104736330D01*
X165077625Y-104680861D01*
X165192621Y-104592621D01*
X165280861Y-104477625D01*
X165336330Y-104343709D01*
X165355250Y-104200000D01*
X165336330Y-104056291D01*
X165286641Y-103936329D01*
X165280862Y-103922377D01*
X165280861Y-103922376D01*
X165280861Y-103922375D01*
X165192621Y-103807379D01*
X165077625Y-103719139D01*
X165077624Y-103719138D01*
X165077622Y-103719137D01*
X164943712Y-103663671D01*
X164943710Y-103663670D01*
X164943709Y-103663670D01*
X164871854Y-103654210D01*
X164800001Y-103644750D01*
X164799999Y-103644750D01*
X164656291Y-103663670D01*
X164656287Y-103663671D01*
X164522377Y-103719137D01*
X164407379Y-103807379D01*
X164319137Y-103922377D01*
X164263671Y-104056287D01*
X164263670Y-104056291D01*
X164245722Y-104192620D01*
X164244750Y-104200000D01*
X143783005Y-104200000D01*
X143677625Y-104119139D01*
X143677624Y-104119138D01*
X143677622Y-104119137D01*
X143543712Y-104063671D01*
X143543710Y-104063670D01*
X143543709Y-104063670D01*
X143439862Y-104049998D01*
X143400001Y-104044750D01*
X143399998Y-104044750D01*
X143278359Y-104060764D01*
X143209324Y-104049998D01*
X143157068Y-104003618D01*
X143138183Y-103936349D01*
X143139234Y-103921649D01*
X143155250Y-103800000D01*
X143136330Y-103656291D01*
X143080861Y-103522375D01*
X142992621Y-103407379D01*
X142983005Y-103400000D01*
X180444750Y-103400000D01*
X180463670Y-103543708D01*
X180463671Y-103543712D01*
X180519137Y-103677622D01*
X180519138Y-103677624D01*
X180519139Y-103677625D01*
X180607379Y-103792621D01*
X180722375Y-103880861D01*
X180856291Y-103936330D01*
X180983280Y-103953048D01*
X180999999Y-103955250D01*
X181000000Y-103955250D01*
X181000001Y-103955250D01*
X181014977Y-103953278D01*
X181143709Y-103936330D01*
X181277625Y-103880861D01*
X181392621Y-103792621D01*
X181480861Y-103677625D01*
X181536330Y-103543709D01*
X181555250Y-103400000D01*
X181536330Y-103256291D01*
X181486641Y-103136329D01*
X181480862Y-103122377D01*
X181480861Y-103122376D01*
X181480861Y-103122375D01*
X181392621Y-103007379D01*
X181315724Y-102948373D01*
X181274524Y-102891948D01*
X181270369Y-102822202D01*
X181304582Y-102761281D01*
X181315716Y-102751632D01*
X181392621Y-102692621D01*
X181480861Y-102577625D01*
X181536330Y-102443709D01*
X181555250Y-102300000D01*
X181536330Y-102156291D01*
X181480861Y-102022375D01*
X181392621Y-101907379D01*
X181277625Y-101819139D01*
X181277624Y-101819138D01*
X181277622Y-101819137D01*
X181143712Y-101763671D01*
X181143710Y-101763670D01*
X181143709Y-101763670D01*
X181052220Y-101751625D01*
X181000001Y-101744750D01*
X180999999Y-101744750D01*
X180856291Y-101763670D01*
X180856287Y-101763671D01*
X180722377Y-101819137D01*
X180607379Y-101907379D01*
X180519137Y-102022377D01*
X180463671Y-102156287D01*
X180463670Y-102156291D01*
X180450505Y-102256291D01*
X180444750Y-102300000D01*
X180457915Y-102400000D01*
X180463670Y-102443708D01*
X180463671Y-102443712D01*
X180519137Y-102577622D01*
X180519138Y-102577624D01*
X180519139Y-102577625D01*
X180607379Y-102692621D01*
X180637131Y-102715451D01*
X180684273Y-102751625D01*
X180725476Y-102808053D01*
X180729630Y-102877799D01*
X180695417Y-102938719D01*
X180684273Y-102948375D01*
X180607381Y-103007377D01*
X180519137Y-103122377D01*
X180463671Y-103256287D01*
X180463670Y-103256291D01*
X180444750Y-103399999D01*
X180444750Y-103400000D01*
X142983005Y-103400000D01*
X142877625Y-103319139D01*
X142877624Y-103319138D01*
X142877622Y-103319137D01*
X142743712Y-103263671D01*
X142743710Y-103263670D01*
X142743709Y-103263670D01*
X142671854Y-103254210D01*
X142600001Y-103244750D01*
X142599999Y-103244750D01*
X142456291Y-103263670D01*
X142456287Y-103263671D01*
X142322377Y-103319137D01*
X142207379Y-103407379D01*
X142119137Y-103522377D01*
X142063671Y-103656287D01*
X142063670Y-103656291D01*
X142045722Y-103792620D01*
X142044750Y-103800000D01*
X126450699Y-103800000D01*
X126450745Y-102600000D01*
X159944750Y-102600000D01*
X159952160Y-102656287D01*
X159963670Y-102743708D01*
X159963671Y-102743712D01*
X160019137Y-102877622D01*
X160019138Y-102877624D01*
X160019139Y-102877625D01*
X160107379Y-102992621D01*
X160222375Y-103080861D01*
X160356291Y-103136330D01*
X160483280Y-103153048D01*
X160499999Y-103155250D01*
X160500000Y-103155250D01*
X160500001Y-103155250D01*
X160514977Y-103153278D01*
X160643709Y-103136330D01*
X160777625Y-103080861D01*
X160892621Y-102992621D01*
X160980861Y-102877625D01*
X161013014Y-102800000D01*
X164244750Y-102800000D01*
X164262698Y-102936329D01*
X164263670Y-102943708D01*
X164263671Y-102943712D01*
X164319137Y-103077622D01*
X164319138Y-103077624D01*
X164319139Y-103077625D01*
X164407379Y-103192621D01*
X164522375Y-103280861D01*
X164656291Y-103336330D01*
X164783280Y-103353048D01*
X164799999Y-103355250D01*
X164800000Y-103355250D01*
X164800001Y-103355250D01*
X164814977Y-103353278D01*
X164943709Y-103336330D01*
X165077625Y-103280861D01*
X165192621Y-103192621D01*
X165280861Y-103077625D01*
X165336330Y-102943709D01*
X165355250Y-102800000D01*
X165336330Y-102656291D01*
X165280861Y-102522375D01*
X165192621Y-102407379D01*
X165077625Y-102319139D01*
X165077624Y-102319138D01*
X165077622Y-102319137D01*
X164943712Y-102263671D01*
X164943710Y-102263670D01*
X164943709Y-102263670D01*
X164871854Y-102254210D01*
X164800001Y-102244750D01*
X164799999Y-102244750D01*
X164656291Y-102263670D01*
X164656287Y-102263671D01*
X164522377Y-102319137D01*
X164407379Y-102407379D01*
X164319137Y-102522377D01*
X164263671Y-102656287D01*
X164263670Y-102656291D01*
X164245722Y-102792620D01*
X164244750Y-102800000D01*
X161013014Y-102800000D01*
X161036330Y-102743709D01*
X161055250Y-102600000D01*
X161036330Y-102456291D01*
X160980861Y-102322375D01*
X160892621Y-102207379D01*
X160777625Y-102119139D01*
X160777624Y-102119138D01*
X160777622Y-102119137D01*
X160643712Y-102063671D01*
X160643710Y-102063670D01*
X160643709Y-102063670D01*
X160571854Y-102054210D01*
X160500001Y-102044750D01*
X160499999Y-102044750D01*
X160356291Y-102063670D01*
X160356287Y-102063671D01*
X160222377Y-102119137D01*
X160107379Y-102207379D01*
X160019137Y-102322377D01*
X159963671Y-102456287D01*
X159963670Y-102456291D01*
X159944750Y-102600000D01*
X126450745Y-102600000D01*
X126450821Y-100624997D01*
X155944750Y-100624997D01*
X155960379Y-100743712D01*
X155963670Y-100768705D01*
X155963671Y-100768709D01*
X156019137Y-100902619D01*
X156019138Y-100902621D01*
X156019139Y-100902622D01*
X156107379Y-101017618D01*
X156222375Y-101105858D01*
X156356291Y-101161327D01*
X156483280Y-101178045D01*
X156499999Y-101180247D01*
X156500000Y-101180247D01*
X156500001Y-101180247D01*
X156514977Y-101178275D01*
X156643709Y-101161327D01*
X156777625Y-101105858D01*
X156892621Y-101017618D01*
X156980861Y-100902622D01*
X157036330Y-100768706D01*
X157055250Y-100624997D01*
X157036330Y-100481288D01*
X156980861Y-100347372D01*
X156892621Y-100232376D01*
X156777625Y-100144136D01*
X156777624Y-100144135D01*
X156777622Y-100144134D01*
X156643712Y-100088668D01*
X156643710Y-100088667D01*
X156643709Y-100088667D01*
X156571854Y-100079207D01*
X156500001Y-100069747D01*
X156499999Y-100069747D01*
X156356291Y-100088667D01*
X156356287Y-100088668D01*
X156222377Y-100144134D01*
X156107379Y-100232376D01*
X156019137Y-100347374D01*
X155963671Y-100481284D01*
X155963670Y-100481288D01*
X155944750Y-100624997D01*
X126450821Y-100624997D01*
X126450887Y-98900000D01*
X155944750Y-98900000D01*
X155962698Y-99036329D01*
X155963670Y-99043708D01*
X155963671Y-99043712D01*
X156019137Y-99177622D01*
X156019138Y-99177624D01*
X156019139Y-99177625D01*
X156107379Y-99292621D01*
X156222375Y-99380861D01*
X156222376Y-99380861D01*
X156222377Y-99380862D01*
X156254431Y-99394139D01*
X156356291Y-99436330D01*
X156483280Y-99453048D01*
X156499999Y-99455250D01*
X156500000Y-99455250D01*
X156500001Y-99455250D01*
X156514977Y-99453278D01*
X156643709Y-99436330D01*
X156777625Y-99380861D01*
X156883005Y-99300000D01*
X163444750Y-99300000D01*
X163462698Y-99436329D01*
X163463670Y-99443708D01*
X163463671Y-99443712D01*
X163519137Y-99577622D01*
X163519138Y-99577624D01*
X163519139Y-99577625D01*
X163607379Y-99692621D01*
X163722375Y-99780861D01*
X163856291Y-99836330D01*
X164000000Y-99855250D01*
X164016788Y-99853039D01*
X164085820Y-99863803D01*
X164138077Y-99910181D01*
X164155913Y-99959791D01*
X164163670Y-100018708D01*
X164163671Y-100018712D01*
X164219137Y-100152622D01*
X164219138Y-100152624D01*
X164219139Y-100152625D01*
X164307379Y-100267621D01*
X164422375Y-100355861D01*
X164556291Y-100411330D01*
X164683280Y-100428048D01*
X164699999Y-100430250D01*
X164700000Y-100430250D01*
X164700001Y-100430250D01*
X164729828Y-100426323D01*
X164811592Y-100415558D01*
X164880626Y-100426323D01*
X164932882Y-100472703D01*
X164951768Y-100539972D01*
X164950716Y-100554682D01*
X164944750Y-100599997D01*
X164944750Y-100600000D01*
X164963670Y-100743708D01*
X164963671Y-100743712D01*
X165019137Y-100877622D01*
X165019138Y-100877624D01*
X165019139Y-100877625D01*
X165107379Y-100992621D01*
X165222375Y-101080861D01*
X165356291Y-101136330D01*
X165483280Y-101153048D01*
X165499999Y-101155250D01*
X165500000Y-101155250D01*
X165500001Y-101155250D01*
X165535927Y-101150520D01*
X165643709Y-101136330D01*
X165680713Y-101121002D01*
X165750179Y-101113534D01*
X165812658Y-101144809D01*
X165848311Y-101204897D01*
X165851102Y-101251749D01*
X165844750Y-101299997D01*
X165844750Y-101300000D01*
X165863670Y-101443708D01*
X165863671Y-101443712D01*
X165919137Y-101577622D01*
X165919138Y-101577624D01*
X165919139Y-101577625D01*
X166007379Y-101692621D01*
X166037131Y-101715451D01*
X166084273Y-101751625D01*
X166125476Y-101808053D01*
X166129630Y-101877799D01*
X166095417Y-101938719D01*
X166084273Y-101948375D01*
X166007381Y-102007377D01*
X165919137Y-102122377D01*
X165863671Y-102256287D01*
X165863670Y-102256291D01*
X165844750Y-102400000D01*
X165852160Y-102456287D01*
X165863670Y-102543708D01*
X165863671Y-102543712D01*
X165919137Y-102677622D01*
X165919138Y-102677624D01*
X165919139Y-102677625D01*
X166007379Y-102792621D01*
X166122375Y-102880861D01*
X166256291Y-102936330D01*
X166383280Y-102953048D01*
X166399999Y-102955250D01*
X166400000Y-102955250D01*
X166400001Y-102955250D01*
X166414977Y-102953278D01*
X166543709Y-102936330D01*
X166677625Y-102880861D01*
X166792621Y-102792621D01*
X166880861Y-102677625D01*
X166936330Y-102543709D01*
X166955250Y-102400000D01*
X166936330Y-102256291D01*
X166880861Y-102122375D01*
X166792621Y-102007379D01*
X166715724Y-101948373D01*
X166674524Y-101891948D01*
X166670369Y-101822202D01*
X166704582Y-101761281D01*
X166715716Y-101751632D01*
X166792621Y-101692621D01*
X166880861Y-101577625D01*
X166936330Y-101443709D01*
X166955250Y-101300000D01*
X166936330Y-101156291D01*
X166880861Y-101022375D01*
X166863692Y-101000000D01*
X173044750Y-101000000D01*
X173062698Y-101136329D01*
X173063670Y-101143708D01*
X173063671Y-101143712D01*
X173119137Y-101277622D01*
X173119138Y-101277624D01*
X173119139Y-101277625D01*
X173207379Y-101392621D01*
X173322375Y-101480861D01*
X173456291Y-101536330D01*
X173583280Y-101553048D01*
X173599999Y-101555250D01*
X173600000Y-101555250D01*
X173600001Y-101555250D01*
X173614977Y-101553278D01*
X173743709Y-101536330D01*
X173877625Y-101480861D01*
X173992621Y-101392621D01*
X174080861Y-101277625D01*
X174136330Y-101143709D01*
X174155250Y-101000000D01*
X174136330Y-100856291D01*
X174080861Y-100722375D01*
X173992621Y-100607379D01*
X173877625Y-100519139D01*
X173877624Y-100519138D01*
X173877622Y-100519137D01*
X173743712Y-100463671D01*
X173743710Y-100463670D01*
X173743709Y-100463670D01*
X173671854Y-100454210D01*
X173600001Y-100444750D01*
X173599999Y-100444750D01*
X173456291Y-100463670D01*
X173456287Y-100463671D01*
X173322377Y-100519137D01*
X173207379Y-100607379D01*
X173119137Y-100722377D01*
X173063671Y-100856287D01*
X173063670Y-100856291D01*
X173045722Y-100992620D01*
X173044750Y-101000000D01*
X166863692Y-101000000D01*
X166792621Y-100907379D01*
X166677625Y-100819139D01*
X166677624Y-100819138D01*
X166677622Y-100819137D01*
X166543712Y-100763671D01*
X166543710Y-100763670D01*
X166543709Y-100763670D01*
X166471854Y-100754210D01*
X166400001Y-100744750D01*
X166399999Y-100744750D01*
X166256291Y-100763670D01*
X166256287Y-100763671D01*
X166219286Y-100778997D01*
X166149817Y-100786464D01*
X166087338Y-100755188D01*
X166051687Y-100695099D01*
X166048897Y-100648252D01*
X166055250Y-100600000D01*
X166036330Y-100456291D01*
X165980861Y-100322375D01*
X165892621Y-100207379D01*
X165777625Y-100119139D01*
X165777624Y-100119138D01*
X165777622Y-100119137D01*
X165643712Y-100063671D01*
X165643710Y-100063670D01*
X165643709Y-100063670D01*
X165529813Y-100048675D01*
X165500001Y-100044750D01*
X165499998Y-100044750D01*
X165388407Y-100059441D01*
X165319372Y-100048675D01*
X165267116Y-100002295D01*
X165248231Y-99935026D01*
X165249281Y-99920333D01*
X165255250Y-99875000D01*
X165236330Y-99731291D01*
X165180861Y-99597375D01*
X165092621Y-99482379D01*
X164977625Y-99394139D01*
X164977624Y-99394138D01*
X164977622Y-99394137D01*
X164843712Y-99338671D01*
X164843710Y-99338670D01*
X164843709Y-99338670D01*
X164771854Y-99329210D01*
X164700001Y-99319750D01*
X164699996Y-99319750D01*
X164683209Y-99321960D01*
X164614174Y-99311194D01*
X164561919Y-99264814D01*
X164544086Y-99215206D01*
X164539138Y-99177625D01*
X164536330Y-99156291D01*
X164486641Y-99036329D01*
X164480862Y-99022377D01*
X164480861Y-99022376D01*
X164480861Y-99022375D01*
X164392621Y-98907379D01*
X164277625Y-98819139D01*
X164277624Y-98819138D01*
X164277622Y-98819137D01*
X164143712Y-98763671D01*
X164143710Y-98763670D01*
X164143709Y-98763670D01*
X164071854Y-98754210D01*
X164000001Y-98744750D01*
X163999999Y-98744750D01*
X163856291Y-98763670D01*
X163856287Y-98763671D01*
X163722377Y-98819137D01*
X163607379Y-98907379D01*
X163519137Y-99022377D01*
X163463671Y-99156287D01*
X163463670Y-99156291D01*
X163445722Y-99292620D01*
X163444750Y-99300000D01*
X156883005Y-99300000D01*
X156892621Y-99292621D01*
X156980861Y-99177625D01*
X157036330Y-99043709D01*
X157055250Y-98900000D01*
X157036330Y-98756291D01*
X156980861Y-98622375D01*
X156892621Y-98507379D01*
X156777625Y-98419139D01*
X156777624Y-98419138D01*
X156777622Y-98419137D01*
X156643712Y-98363671D01*
X156643710Y-98363670D01*
X156643709Y-98363670D01*
X156571854Y-98354210D01*
X156500001Y-98344750D01*
X156499999Y-98344750D01*
X156356291Y-98363670D01*
X156356287Y-98363671D01*
X156222377Y-98419137D01*
X156107379Y-98507379D01*
X156019137Y-98622377D01*
X155963671Y-98756287D01*
X155963670Y-98756291D01*
X155945722Y-98892620D01*
X155944750Y-98900000D01*
X126450887Y-98900000D01*
X126450914Y-98200000D01*
X159844750Y-98200000D01*
X159863280Y-98340750D01*
X159863670Y-98343708D01*
X159863671Y-98343712D01*
X159919137Y-98477622D01*
X159919138Y-98477624D01*
X159919139Y-98477625D01*
X160007379Y-98592621D01*
X160122375Y-98680861D01*
X160256291Y-98736330D01*
X160383280Y-98753048D01*
X160399999Y-98755250D01*
X160400000Y-98755250D01*
X160400001Y-98755250D01*
X160414977Y-98753278D01*
X160543709Y-98736330D01*
X160677625Y-98680861D01*
X160792621Y-98592621D01*
X160880861Y-98477625D01*
X160936330Y-98343709D01*
X160955250Y-98200000D01*
X160936330Y-98056291D01*
X160880861Y-97922375D01*
X160792621Y-97807379D01*
X160677625Y-97719139D01*
X160677624Y-97719138D01*
X160677622Y-97719137D01*
X160543712Y-97663671D01*
X160543710Y-97663670D01*
X160543709Y-97663670D01*
X160471854Y-97654210D01*
X160400001Y-97644750D01*
X160399999Y-97644750D01*
X160256291Y-97663670D01*
X160256287Y-97663671D01*
X160122377Y-97719137D01*
X160007379Y-97807379D01*
X159919137Y-97922377D01*
X159863671Y-98056287D01*
X159863670Y-98056291D01*
X159844750Y-98200000D01*
X126450914Y-98200000D01*
X126450996Y-96068995D01*
X127769499Y-96068995D01*
X127796418Y-96204322D01*
X127796421Y-96204332D01*
X127849221Y-96331804D01*
X127849228Y-96331817D01*
X127925885Y-96446541D01*
X127925888Y-96446545D01*
X128023454Y-96544111D01*
X128023458Y-96544114D01*
X128138182Y-96620771D01*
X128138195Y-96620778D01*
X128247191Y-96665925D01*
X128265672Y-96673580D01*
X128265676Y-96673580D01*
X128265677Y-96673581D01*
X128401004Y-96700500D01*
X128401007Y-96700500D01*
X128538995Y-96700500D01*
X128630041Y-96682389D01*
X128674328Y-96673580D01*
X128772924Y-96632740D01*
X128801804Y-96620778D01*
X128801804Y-96620777D01*
X128801811Y-96620775D01*
X128832903Y-96600000D01*
X144544750Y-96600000D01*
X144557915Y-96700000D01*
X144563670Y-96743708D01*
X144563671Y-96743712D01*
X144619137Y-96877622D01*
X144619138Y-96877624D01*
X144619139Y-96877625D01*
X144707379Y-96992621D01*
X144822375Y-97080861D01*
X144956291Y-97136330D01*
X145083280Y-97153048D01*
X145099999Y-97155250D01*
X145100000Y-97155250D01*
X145100001Y-97155250D01*
X145114977Y-97153278D01*
X145243709Y-97136330D01*
X145377625Y-97080861D01*
X145492621Y-96992621D01*
X145563692Y-96900000D01*
X165744750Y-96900000D01*
X165757915Y-97000000D01*
X165763670Y-97043708D01*
X165763671Y-97043712D01*
X165819137Y-97177622D01*
X165819138Y-97177624D01*
X165819139Y-97177625D01*
X165907379Y-97292621D01*
X166022375Y-97380861D01*
X166022377Y-97380861D01*
X166028823Y-97385808D01*
X166027886Y-97387029D01*
X166069768Y-97430946D01*
X166082997Y-97499552D01*
X166057034Y-97564419D01*
X166035045Y-97586150D01*
X166007380Y-97607378D01*
X165919137Y-97722377D01*
X165863671Y-97856287D01*
X165863670Y-97856291D01*
X165863443Y-97858019D01*
X165844750Y-98000000D01*
X165852160Y-98056287D01*
X165863670Y-98143708D01*
X165863671Y-98143712D01*
X165919137Y-98277622D01*
X165919138Y-98277624D01*
X165919139Y-98277625D01*
X166007379Y-98392621D01*
X166122375Y-98480861D01*
X166256291Y-98536330D01*
X166383280Y-98553048D01*
X166399999Y-98555250D01*
X166400000Y-98555250D01*
X166400001Y-98555250D01*
X166414977Y-98553278D01*
X166543709Y-98536330D01*
X166631419Y-98500000D01*
X172844750Y-98500000D01*
X172863670Y-98643708D01*
X172863671Y-98643712D01*
X172919137Y-98777622D01*
X172919138Y-98777624D01*
X172919139Y-98777625D01*
X173007379Y-98892621D01*
X173122375Y-98980861D01*
X173256291Y-99036330D01*
X173383280Y-99053048D01*
X173399999Y-99055250D01*
X173400000Y-99055250D01*
X173400001Y-99055250D01*
X173414977Y-99053278D01*
X173543709Y-99036330D01*
X173677625Y-98980861D01*
X173792621Y-98892621D01*
X173880861Y-98777625D01*
X173936330Y-98643709D01*
X173955250Y-98500000D01*
X173936330Y-98356291D01*
X173880861Y-98222375D01*
X173792621Y-98107379D01*
X173677625Y-98019139D01*
X173677624Y-98019138D01*
X173677622Y-98019137D01*
X173543712Y-97963671D01*
X173543710Y-97963670D01*
X173543709Y-97963670D01*
X173471854Y-97954210D01*
X173400001Y-97944750D01*
X173399999Y-97944750D01*
X173256291Y-97963670D01*
X173256287Y-97963671D01*
X173122377Y-98019137D01*
X173007379Y-98107379D01*
X172919137Y-98222377D01*
X172863671Y-98356287D01*
X172863670Y-98356291D01*
X172844750Y-98499999D01*
X172844750Y-98500000D01*
X166631419Y-98500000D01*
X166677625Y-98480861D01*
X166792621Y-98392621D01*
X166880861Y-98277625D01*
X166936330Y-98143709D01*
X166955250Y-98000000D01*
X166936330Y-97856291D01*
X166880861Y-97722375D01*
X166792621Y-97607379D01*
X166677625Y-97519139D01*
X166677622Y-97519138D01*
X166671177Y-97514192D01*
X166672113Y-97512971D01*
X166630228Y-97469048D01*
X166617003Y-97400441D01*
X166642969Y-97335575D01*
X166664950Y-97313853D01*
X166692621Y-97292621D01*
X166780861Y-97177625D01*
X166836330Y-97043709D01*
X166842085Y-97000000D01*
X172944750Y-97000000D01*
X172962698Y-97136329D01*
X172963670Y-97143708D01*
X172963671Y-97143712D01*
X173019137Y-97277622D01*
X173019138Y-97277624D01*
X173019139Y-97277625D01*
X173107379Y-97392621D01*
X173222375Y-97480861D01*
X173222376Y-97480861D01*
X173222377Y-97480862D01*
X173252536Y-97493354D01*
X173356291Y-97536330D01*
X173483280Y-97553048D01*
X173499999Y-97555250D01*
X173500000Y-97555250D01*
X173500001Y-97555250D01*
X173514977Y-97553278D01*
X173643709Y-97536330D01*
X173777625Y-97480861D01*
X173892621Y-97392621D01*
X173980861Y-97277625D01*
X174036330Y-97143709D01*
X174042368Y-97097844D01*
X178450000Y-97097844D01*
X178456401Y-97157372D01*
X178456403Y-97157379D01*
X178506645Y-97292086D01*
X178506649Y-97292093D01*
X178592809Y-97407187D01*
X178592812Y-97407190D01*
X178707906Y-97493350D01*
X178707913Y-97493354D01*
X178842620Y-97543596D01*
X178842627Y-97543598D01*
X178902155Y-97549999D01*
X178902172Y-97550000D01*
X179195612Y-97550000D01*
X179262651Y-97569685D01*
X179308406Y-97622489D01*
X179318350Y-97691647D01*
X179289325Y-97755203D01*
X179260889Y-97779427D01*
X179133960Y-97858017D01*
X179133958Y-97858019D01*
X178983237Y-97995418D01*
X178860327Y-98158178D01*
X178769422Y-98340739D01*
X178769417Y-98340752D01*
X178713602Y-98536917D01*
X178694785Y-98739999D01*
X178694785Y-98740000D01*
X178713602Y-98943082D01*
X178769417Y-99139247D01*
X178769422Y-99139260D01*
X178860327Y-99321821D01*
X178983237Y-99484581D01*
X179133958Y-99621980D01*
X179133960Y-99621982D01*
X179233141Y-99683392D01*
X179307363Y-99729348D01*
X179497544Y-99803024D01*
X179698024Y-99840500D01*
X179698026Y-99840500D01*
X179901974Y-99840500D01*
X179901976Y-99840500D01*
X180102456Y-99803024D01*
X180292637Y-99729348D01*
X180466041Y-99621981D01*
X180616764Y-99484579D01*
X180739673Y-99321821D01*
X180830582Y-99139250D01*
X180886397Y-98943083D01*
X180905215Y-98740000D01*
X180886397Y-98536917D01*
X180830582Y-98340750D01*
X180739673Y-98158179D01*
X180634675Y-98019139D01*
X180616762Y-97995418D01*
X180466041Y-97858019D01*
X180466039Y-97858017D01*
X180339111Y-97779427D01*
X180292475Y-97727399D01*
X180281371Y-97658417D01*
X180309324Y-97594383D01*
X180367459Y-97555627D01*
X180404388Y-97550000D01*
X180697828Y-97550000D01*
X180697844Y-97549999D01*
X180757372Y-97543598D01*
X180757379Y-97543596D01*
X180892086Y-97493354D01*
X180892093Y-97493350D01*
X181007187Y-97407190D01*
X181007190Y-97407187D01*
X181093350Y-97292093D01*
X181093354Y-97292086D01*
X181143596Y-97157379D01*
X181143598Y-97157372D01*
X181149999Y-97097844D01*
X181150000Y-97097827D01*
X181150000Y-96450000D01*
X180233012Y-96450000D01*
X180265925Y-96392993D01*
X180300000Y-96265826D01*
X180300000Y-96134174D01*
X180265925Y-96007007D01*
X180233012Y-95950000D01*
X181150000Y-95950000D01*
X181150000Y-95302172D01*
X181149999Y-95302155D01*
X181143598Y-95242627D01*
X181143596Y-95242620D01*
X181093354Y-95107913D01*
X181093350Y-95107906D01*
X181007190Y-94992812D01*
X181007187Y-94992809D01*
X180892093Y-94906649D01*
X180892086Y-94906645D01*
X180757379Y-94856403D01*
X180757372Y-94856401D01*
X180697844Y-94850000D01*
X180050000Y-94850000D01*
X180050000Y-95766988D01*
X179992993Y-95734075D01*
X179865826Y-95700000D01*
X179734174Y-95700000D01*
X179607007Y-95734075D01*
X179550000Y-95766988D01*
X179550000Y-94850000D01*
X178902155Y-94850000D01*
X178842627Y-94856401D01*
X178842620Y-94856403D01*
X178707913Y-94906645D01*
X178707906Y-94906649D01*
X178592812Y-94992809D01*
X178592809Y-94992812D01*
X178506649Y-95107906D01*
X178506645Y-95107913D01*
X178456403Y-95242620D01*
X178456401Y-95242627D01*
X178450000Y-95302155D01*
X178450000Y-95950000D01*
X179366988Y-95950000D01*
X179334075Y-96007007D01*
X179300000Y-96134174D01*
X179300000Y-96265826D01*
X179334075Y-96392993D01*
X179366988Y-96450000D01*
X178450000Y-96450000D01*
X178450000Y-97097844D01*
X174042368Y-97097844D01*
X174055250Y-97000000D01*
X174036330Y-96856291D01*
X173980861Y-96722375D01*
X173892621Y-96607379D01*
X173777625Y-96519139D01*
X173777624Y-96519138D01*
X173777622Y-96519137D01*
X173643712Y-96463671D01*
X173643710Y-96463670D01*
X173643709Y-96463670D01*
X173539877Y-96450000D01*
X173500001Y-96444750D01*
X173499999Y-96444750D01*
X173356291Y-96463670D01*
X173356287Y-96463671D01*
X173222377Y-96519137D01*
X173107379Y-96607379D01*
X173019137Y-96722377D01*
X172963671Y-96856287D01*
X172963670Y-96856291D01*
X172945722Y-96992620D01*
X172944750Y-97000000D01*
X166842085Y-97000000D01*
X166855250Y-96900000D01*
X166836330Y-96756291D01*
X166780861Y-96622375D01*
X166692621Y-96507379D01*
X166577625Y-96419139D01*
X166577624Y-96419138D01*
X166577622Y-96419137D01*
X166443712Y-96363671D01*
X166443710Y-96363670D01*
X166443709Y-96363670D01*
X166371854Y-96354210D01*
X166300001Y-96344750D01*
X166299999Y-96344750D01*
X166156291Y-96363670D01*
X166156287Y-96363671D01*
X166022377Y-96419137D01*
X165907379Y-96507379D01*
X165819137Y-96622377D01*
X165763671Y-96756287D01*
X165763670Y-96756291D01*
X165750505Y-96856291D01*
X165744750Y-96900000D01*
X145563692Y-96900000D01*
X145580861Y-96877625D01*
X145636330Y-96743709D01*
X145655250Y-96600000D01*
X145636330Y-96456291D01*
X145584772Y-96331817D01*
X145580862Y-96322377D01*
X145580861Y-96322376D01*
X145580861Y-96322375D01*
X145492621Y-96207379D01*
X145377625Y-96119139D01*
X145377624Y-96119138D01*
X145377622Y-96119137D01*
X145243712Y-96063671D01*
X145243710Y-96063670D01*
X145243709Y-96063670D01*
X145171854Y-96054210D01*
X145100001Y-96044750D01*
X145099999Y-96044750D01*
X144956291Y-96063670D01*
X144956287Y-96063671D01*
X144822377Y-96119137D01*
X144707379Y-96207379D01*
X144619137Y-96322377D01*
X144563671Y-96456287D01*
X144563670Y-96456291D01*
X144544750Y-96600000D01*
X128832903Y-96600000D01*
X128916542Y-96544114D01*
X129014114Y-96446542D01*
X129090775Y-96331811D01*
X129143580Y-96204328D01*
X129163938Y-96101981D01*
X129170500Y-96068995D01*
X129170500Y-95931004D01*
X129143581Y-95795677D01*
X129143580Y-95795676D01*
X129143580Y-95795672D01*
X129126837Y-95755250D01*
X129090778Y-95668195D01*
X129090771Y-95668182D01*
X129014114Y-95553458D01*
X129014111Y-95553454D01*
X128935657Y-95475000D01*
X158444750Y-95475000D01*
X158463670Y-95618708D01*
X158463671Y-95618712D01*
X158519137Y-95752622D01*
X158519138Y-95752624D01*
X158519139Y-95752625D01*
X158607379Y-95867621D01*
X158722375Y-95955861D01*
X158856291Y-96011330D01*
X158983280Y-96028048D01*
X158999999Y-96030250D01*
X159000000Y-96030250D01*
X159000001Y-96030250D01*
X159014977Y-96028278D01*
X159143709Y-96011330D01*
X159277625Y-95955861D01*
X159392621Y-95867621D01*
X159480861Y-95752625D01*
X159536330Y-95618709D01*
X159555250Y-95475000D01*
X159536330Y-95331291D01*
X159496996Y-95236328D01*
X159490233Y-95220000D01*
X160194785Y-95220000D01*
X160213602Y-95423082D01*
X160269417Y-95619247D01*
X160269422Y-95619260D01*
X160360327Y-95801821D01*
X160483237Y-95964581D01*
X160633958Y-96101980D01*
X160633960Y-96101982D01*
X160733141Y-96163392D01*
X160807363Y-96209348D01*
X160997544Y-96283024D01*
X161198024Y-96320500D01*
X161198026Y-96320500D01*
X161401974Y-96320500D01*
X161401976Y-96320500D01*
X161602456Y-96283024D01*
X161792637Y-96209348D01*
X161966041Y-96101981D01*
X162116764Y-95964579D01*
X162239673Y-95801821D01*
X162330582Y-95619250D01*
X162386397Y-95423083D01*
X162405215Y-95220000D01*
X162386397Y-95016917D01*
X162330582Y-94820750D01*
X162270456Y-94700000D01*
X167344750Y-94700000D01*
X167363670Y-94843708D01*
X167363671Y-94843712D01*
X167419137Y-94977622D01*
X167419138Y-94977624D01*
X167419139Y-94977625D01*
X167507379Y-95092621D01*
X167622375Y-95180861D01*
X167756291Y-95236330D01*
X167883280Y-95253048D01*
X167899999Y-95255250D01*
X167900000Y-95255250D01*
X167900001Y-95255250D01*
X167914977Y-95253278D01*
X168043709Y-95236330D01*
X168131419Y-95200000D01*
X169644750Y-95200000D01*
X169658201Y-95302172D01*
X169663670Y-95343708D01*
X169663671Y-95343712D01*
X169719137Y-95477622D01*
X169719138Y-95477624D01*
X169719139Y-95477625D01*
X169807379Y-95592621D01*
X169922375Y-95680861D01*
X170056291Y-95736330D01*
X170180039Y-95752622D01*
X170199999Y-95755250D01*
X170200000Y-95755250D01*
X170200001Y-95755250D01*
X170219961Y-95752622D01*
X170343709Y-95736330D01*
X170477625Y-95680861D01*
X170592621Y-95592621D01*
X170680861Y-95477625D01*
X170736330Y-95343709D01*
X170755250Y-95200000D01*
X170754904Y-95197375D01*
X170743125Y-95107906D01*
X170736330Y-95056291D01*
X170686641Y-94936329D01*
X170680862Y-94922377D01*
X170680861Y-94922376D01*
X170680861Y-94922375D01*
X170592621Y-94807379D01*
X170477625Y-94719139D01*
X170477624Y-94719138D01*
X170477622Y-94719137D01*
X170343712Y-94663671D01*
X170343710Y-94663670D01*
X170343709Y-94663670D01*
X170271854Y-94654210D01*
X170200001Y-94644750D01*
X170199999Y-94644750D01*
X170056291Y-94663670D01*
X170056287Y-94663671D01*
X169922377Y-94719137D01*
X169807379Y-94807379D01*
X169719137Y-94922377D01*
X169663671Y-95056287D01*
X169663670Y-95056291D01*
X169645096Y-95197375D01*
X169644750Y-95200000D01*
X168131419Y-95200000D01*
X168177625Y-95180861D01*
X168292621Y-95092621D01*
X168380861Y-94977625D01*
X168436330Y-94843709D01*
X168455250Y-94700000D01*
X168436330Y-94556291D01*
X168380861Y-94422375D01*
X168292621Y-94307379D01*
X168177625Y-94219139D01*
X168177624Y-94219138D01*
X168177622Y-94219137D01*
X168043712Y-94163671D01*
X168043710Y-94163670D01*
X168043709Y-94163670D01*
X167971854Y-94154210D01*
X167900001Y-94144750D01*
X167899999Y-94144750D01*
X167756291Y-94163670D01*
X167756287Y-94163671D01*
X167622377Y-94219137D01*
X167507379Y-94307379D01*
X167419137Y-94422377D01*
X167363671Y-94556287D01*
X167363670Y-94556291D01*
X167344750Y-94699999D01*
X167344750Y-94700000D01*
X162270456Y-94700000D01*
X162239673Y-94638179D01*
X162168332Y-94543708D01*
X162116762Y-94475418D01*
X161966041Y-94338019D01*
X161966039Y-94338017D01*
X161792642Y-94230655D01*
X161792635Y-94230651D01*
X161697546Y-94193814D01*
X161602456Y-94156976D01*
X161401976Y-94119500D01*
X161198024Y-94119500D01*
X160997544Y-94156976D01*
X160997541Y-94156976D01*
X160997541Y-94156977D01*
X160807364Y-94230651D01*
X160807357Y-94230655D01*
X160633960Y-94338017D01*
X160633958Y-94338019D01*
X160483237Y-94475418D01*
X160360327Y-94638178D01*
X160269422Y-94820739D01*
X160269417Y-94820752D01*
X160213602Y-95016917D01*
X160194785Y-95219999D01*
X160194785Y-95220000D01*
X159490233Y-95220000D01*
X159480862Y-95197377D01*
X159480861Y-95197376D01*
X159480861Y-95197375D01*
X159392621Y-95082379D01*
X159277625Y-94994139D01*
X159277624Y-94994138D01*
X159277622Y-94994137D01*
X159143712Y-94938671D01*
X159143710Y-94938670D01*
X159143709Y-94938670D01*
X159019954Y-94922377D01*
X159000001Y-94919750D01*
X158999999Y-94919750D01*
X158856291Y-94938670D01*
X158856287Y-94938671D01*
X158722377Y-94994137D01*
X158607379Y-95082379D01*
X158519137Y-95197377D01*
X158463671Y-95331287D01*
X158463670Y-95331291D01*
X158444750Y-95474999D01*
X158444750Y-95475000D01*
X128935657Y-95475000D01*
X128916545Y-95455888D01*
X128916541Y-95455885D01*
X128801817Y-95379228D01*
X128801804Y-95379221D01*
X128674332Y-95326421D01*
X128674322Y-95326418D01*
X128538995Y-95299500D01*
X128538993Y-95299500D01*
X128401007Y-95299500D01*
X128401005Y-95299500D01*
X128265677Y-95326418D01*
X128265667Y-95326421D01*
X128138195Y-95379221D01*
X128138182Y-95379228D01*
X128023458Y-95455885D01*
X128023454Y-95455888D01*
X127925888Y-95553454D01*
X127925885Y-95553458D01*
X127849228Y-95668182D01*
X127849221Y-95668195D01*
X127796421Y-95795667D01*
X127796418Y-95795677D01*
X127769500Y-95931004D01*
X127769500Y-95931007D01*
X127769500Y-96068993D01*
X127769500Y-96068995D01*
X127769499Y-96068995D01*
X126450996Y-96068995D01*
X126451068Y-94200000D01*
X144244750Y-94200000D01*
X144252160Y-94256287D01*
X144263670Y-94343708D01*
X144263671Y-94343712D01*
X144319137Y-94477622D01*
X144319138Y-94477624D01*
X144319139Y-94477625D01*
X144407379Y-94592621D01*
X144522375Y-94680861D01*
X144656291Y-94736330D01*
X144783280Y-94753048D01*
X144799999Y-94755250D01*
X144800000Y-94755250D01*
X144800001Y-94755250D01*
X144814977Y-94753278D01*
X144943709Y-94736330D01*
X145077625Y-94680861D01*
X145192621Y-94592621D01*
X145280861Y-94477625D01*
X145313014Y-94400000D01*
X147244750Y-94400000D01*
X147263670Y-94543708D01*
X147263671Y-94543712D01*
X147319137Y-94677622D01*
X147319138Y-94677624D01*
X147319139Y-94677625D01*
X147407379Y-94792621D01*
X147522375Y-94880861D01*
X147656291Y-94936330D01*
X147783280Y-94953048D01*
X147799999Y-94955250D01*
X147800000Y-94955250D01*
X147800001Y-94955250D01*
X147814977Y-94953278D01*
X147943709Y-94936330D01*
X148077625Y-94880861D01*
X148192621Y-94792621D01*
X148280861Y-94677625D01*
X148336330Y-94543709D01*
X148355250Y-94400000D01*
X148336330Y-94256291D01*
X148280861Y-94122375D01*
X148192621Y-94007379D01*
X148077625Y-93919139D01*
X148077624Y-93919138D01*
X148077622Y-93919137D01*
X147943712Y-93863671D01*
X147943710Y-93863670D01*
X147943709Y-93863670D01*
X147871854Y-93854210D01*
X147800001Y-93844750D01*
X147799999Y-93844750D01*
X147656291Y-93863670D01*
X147656287Y-93863671D01*
X147522377Y-93919137D01*
X147407379Y-94007379D01*
X147319137Y-94122377D01*
X147263671Y-94256287D01*
X147263670Y-94256291D01*
X147244750Y-94399999D01*
X147244750Y-94400000D01*
X145313014Y-94400000D01*
X145336330Y-94343709D01*
X145355250Y-94200000D01*
X145336330Y-94056291D01*
X145280861Y-93922375D01*
X145192621Y-93807379D01*
X145077625Y-93719139D01*
X145077624Y-93719138D01*
X145077622Y-93719137D01*
X144943712Y-93663671D01*
X144943710Y-93663670D01*
X144943709Y-93663670D01*
X144871854Y-93654210D01*
X144800001Y-93644750D01*
X144799999Y-93644750D01*
X144656291Y-93663670D01*
X144656287Y-93663671D01*
X144522377Y-93719137D01*
X144407379Y-93807379D01*
X144319137Y-93922377D01*
X144263671Y-94056287D01*
X144263670Y-94056291D01*
X144244750Y-94200000D01*
X126451068Y-94200000D01*
X126451111Y-93068995D01*
X127769499Y-93068995D01*
X127796418Y-93204322D01*
X127796421Y-93204332D01*
X127849221Y-93331804D01*
X127849228Y-93331817D01*
X127925885Y-93446541D01*
X127925888Y-93446545D01*
X128023454Y-93544111D01*
X128023458Y-93544114D01*
X128138182Y-93620771D01*
X128138195Y-93620778D01*
X128241747Y-93663670D01*
X128265672Y-93673580D01*
X128265676Y-93673580D01*
X128265677Y-93673581D01*
X128401004Y-93700500D01*
X128401007Y-93700500D01*
X128538995Y-93700500D01*
X128630041Y-93682389D01*
X128674328Y-93673580D01*
X128801811Y-93620775D01*
X128916542Y-93544114D01*
X129014114Y-93446542D01*
X129090775Y-93331811D01*
X129143580Y-93204328D01*
X129168460Y-93079250D01*
X129170500Y-93068995D01*
X129170500Y-92931004D01*
X129143581Y-92795677D01*
X129143580Y-92795676D01*
X129143580Y-92795672D01*
X129100895Y-92692620D01*
X129090778Y-92668195D01*
X129090771Y-92668182D01*
X129014114Y-92553458D01*
X129014111Y-92553454D01*
X128916545Y-92455888D01*
X128916541Y-92455885D01*
X128801817Y-92379228D01*
X128801804Y-92379221D01*
X128674332Y-92326421D01*
X128674322Y-92326418D01*
X128541509Y-92300000D01*
X131744750Y-92300000D01*
X131763670Y-92443708D01*
X131763671Y-92443712D01*
X131819137Y-92577622D01*
X131819138Y-92577624D01*
X131819139Y-92577625D01*
X131907379Y-92692621D01*
X132022375Y-92780861D01*
X132022376Y-92780861D01*
X132022377Y-92780862D01*
X132067013Y-92799350D01*
X132156291Y-92836330D01*
X132283280Y-92853048D01*
X132299999Y-92855250D01*
X132300000Y-92855250D01*
X132300001Y-92855250D01*
X132314977Y-92853278D01*
X132443709Y-92836330D01*
X132531419Y-92800000D01*
X144244750Y-92800000D01*
X144263670Y-92943708D01*
X144263671Y-92943712D01*
X144319137Y-93077622D01*
X144319138Y-93077624D01*
X144319139Y-93077625D01*
X144407379Y-93192621D01*
X144522375Y-93280861D01*
X144656291Y-93336330D01*
X144783280Y-93353048D01*
X144799999Y-93355250D01*
X144800000Y-93355250D01*
X144800001Y-93355250D01*
X144814977Y-93353278D01*
X144943709Y-93336330D01*
X145077625Y-93280861D01*
X145192621Y-93192621D01*
X145280861Y-93077625D01*
X145336330Y-92943709D01*
X145355250Y-92800000D01*
X145339451Y-92680000D01*
X160194785Y-92680000D01*
X160213602Y-92883082D01*
X160269417Y-93079247D01*
X160269422Y-93079260D01*
X160360327Y-93261821D01*
X160483237Y-93424581D01*
X160633958Y-93561980D01*
X160633960Y-93561982D01*
X160728908Y-93620771D01*
X160807363Y-93669348D01*
X160997544Y-93743024D01*
X161198024Y-93780500D01*
X161198026Y-93780500D01*
X161401974Y-93780500D01*
X161401976Y-93780500D01*
X161602456Y-93743024D01*
X161792637Y-93669348D01*
X161966041Y-93561981D01*
X162116764Y-93424579D01*
X162239673Y-93261821D01*
X162330582Y-93079250D01*
X162386397Y-92883083D01*
X162405215Y-92680000D01*
X162395728Y-92577622D01*
X162386397Y-92476917D01*
X162366611Y-92407379D01*
X162330582Y-92280750D01*
X162322077Y-92263670D01*
X162286272Y-92191764D01*
X162239673Y-92098179D01*
X162116764Y-91935421D01*
X162116762Y-91935418D01*
X161966041Y-91798019D01*
X161966039Y-91798017D01*
X161792642Y-91690655D01*
X161792635Y-91690651D01*
X161697546Y-91653814D01*
X161602456Y-91616976D01*
X161401976Y-91579500D01*
X161198024Y-91579500D01*
X160997544Y-91616976D01*
X160997541Y-91616976D01*
X160997541Y-91616977D01*
X160807364Y-91690651D01*
X160807357Y-91690655D01*
X160633960Y-91798017D01*
X160633958Y-91798019D01*
X160483237Y-91935418D01*
X160360327Y-92098178D01*
X160269422Y-92280739D01*
X160269417Y-92280752D01*
X160213602Y-92476917D01*
X160194785Y-92679999D01*
X160194785Y-92680000D01*
X145339451Y-92680000D01*
X145336330Y-92656291D01*
X145280861Y-92522375D01*
X145192621Y-92407379D01*
X145077625Y-92319139D01*
X145077624Y-92319138D01*
X145077622Y-92319137D01*
X144943712Y-92263671D01*
X144943710Y-92263670D01*
X144943709Y-92263670D01*
X144871854Y-92254210D01*
X144800001Y-92244750D01*
X144799999Y-92244750D01*
X144656291Y-92263670D01*
X144656287Y-92263671D01*
X144522377Y-92319137D01*
X144407379Y-92407379D01*
X144319137Y-92522377D01*
X144263671Y-92656287D01*
X144263670Y-92656291D01*
X144244750Y-92799999D01*
X144244750Y-92800000D01*
X132531419Y-92800000D01*
X132577625Y-92780861D01*
X132692621Y-92692621D01*
X132780861Y-92577625D01*
X132836330Y-92443709D01*
X132855250Y-92300000D01*
X132836330Y-92156291D01*
X132780861Y-92022375D01*
X132692621Y-91907379D01*
X132577625Y-91819139D01*
X132577624Y-91819138D01*
X132577622Y-91819137D01*
X132443712Y-91763671D01*
X132443710Y-91763670D01*
X132443709Y-91763670D01*
X132371854Y-91754210D01*
X132300001Y-91744750D01*
X132299999Y-91744750D01*
X132156291Y-91763670D01*
X132156287Y-91763671D01*
X132022377Y-91819137D01*
X131907379Y-91907379D01*
X131819137Y-92022377D01*
X131763671Y-92156287D01*
X131763670Y-92156291D01*
X131744750Y-92299999D01*
X131744750Y-92300000D01*
X128541509Y-92300000D01*
X128538995Y-92299500D01*
X128538993Y-92299500D01*
X128401007Y-92299500D01*
X128401005Y-92299500D01*
X128265677Y-92326418D01*
X128265667Y-92326421D01*
X128138195Y-92379221D01*
X128138182Y-92379228D01*
X128023458Y-92455885D01*
X128023454Y-92455888D01*
X127925888Y-92553454D01*
X127925885Y-92553458D01*
X127849228Y-92668182D01*
X127849221Y-92668195D01*
X127796421Y-92795667D01*
X127796418Y-92795677D01*
X127769500Y-92931004D01*
X127769500Y-92931007D01*
X127769500Y-93068993D01*
X127769500Y-93068995D01*
X127769499Y-93068995D01*
X126451111Y-93068995D01*
X126451224Y-90124678D01*
X134849500Y-90124678D01*
X134864032Y-90197735D01*
X134864033Y-90197739D01*
X134864034Y-90197740D01*
X134919399Y-90280601D01*
X135002260Y-90335966D01*
X135002264Y-90335967D01*
X135075321Y-90350499D01*
X135075324Y-90350500D01*
X135075326Y-90350500D01*
X136724676Y-90350500D01*
X136724677Y-90350499D01*
X136797740Y-90335966D01*
X136880601Y-90280601D01*
X136935966Y-90197740D01*
X136947451Y-90140000D01*
X160194785Y-90140000D01*
X160213602Y-90343082D01*
X160269417Y-90539247D01*
X160269422Y-90539260D01*
X160360327Y-90721821D01*
X160483237Y-90884581D01*
X160633958Y-91021980D01*
X160633960Y-91021982D01*
X160733141Y-91083392D01*
X160807363Y-91129348D01*
X160997544Y-91203024D01*
X161198024Y-91240500D01*
X161198026Y-91240500D01*
X161401974Y-91240500D01*
X161401976Y-91240500D01*
X161602456Y-91203024D01*
X161792637Y-91129348D01*
X161966041Y-91021981D01*
X162116764Y-90884579D01*
X162239673Y-90721821D01*
X162330582Y-90539250D01*
X162386397Y-90343083D01*
X162405215Y-90140000D01*
X162388336Y-89957844D01*
X177850000Y-89957844D01*
X177856401Y-90017372D01*
X177856403Y-90017379D01*
X177906645Y-90152086D01*
X177906649Y-90152093D01*
X177992809Y-90267187D01*
X177992812Y-90267190D01*
X178107906Y-90353350D01*
X178107913Y-90353354D01*
X178242620Y-90403596D01*
X178242627Y-90403598D01*
X178302155Y-90409999D01*
X178302172Y-90410000D01*
X178595612Y-90410000D01*
X178662651Y-90429685D01*
X178708406Y-90482489D01*
X178718350Y-90551647D01*
X178689325Y-90615203D01*
X178660889Y-90639427D01*
X178533960Y-90718017D01*
X178533958Y-90718019D01*
X178383237Y-90855418D01*
X178260327Y-91018178D01*
X178169422Y-91200739D01*
X178169417Y-91200752D01*
X178113602Y-91396917D01*
X178094785Y-91599999D01*
X178094785Y-91600000D01*
X178113602Y-91803082D01*
X178169417Y-91999247D01*
X178169422Y-91999260D01*
X178260327Y-92181821D01*
X178383237Y-92344581D01*
X178533958Y-92481980D01*
X178533960Y-92481982D01*
X178599201Y-92522377D01*
X178707363Y-92589348D01*
X178897544Y-92663024D01*
X179098024Y-92700500D01*
X179098026Y-92700500D01*
X179301974Y-92700500D01*
X179301976Y-92700500D01*
X179502456Y-92663024D01*
X179692637Y-92589348D01*
X179866041Y-92481981D01*
X180016764Y-92344579D01*
X180139673Y-92181821D01*
X180230582Y-91999250D01*
X180286397Y-91803083D01*
X180305215Y-91600000D01*
X180303315Y-91579500D01*
X180286397Y-91396917D01*
X180241892Y-91240500D01*
X180230582Y-91200750D01*
X180139673Y-91018179D01*
X180016764Y-90855421D01*
X180016762Y-90855418D01*
X179866041Y-90718019D01*
X179866039Y-90718017D01*
X179739111Y-90639427D01*
X179692475Y-90587399D01*
X179681371Y-90518417D01*
X179709324Y-90454383D01*
X179767459Y-90415627D01*
X179804388Y-90410000D01*
X180097828Y-90410000D01*
X180097844Y-90409999D01*
X180157372Y-90403598D01*
X180157379Y-90403596D01*
X180292086Y-90353354D01*
X180292093Y-90353350D01*
X180407187Y-90267190D01*
X180407190Y-90267187D01*
X180493350Y-90152093D01*
X180493354Y-90152086D01*
X180543596Y-90017379D01*
X180543598Y-90017372D01*
X180549999Y-89957844D01*
X180550000Y-89957827D01*
X180550000Y-89310000D01*
X179633012Y-89310000D01*
X179665925Y-89252993D01*
X179700000Y-89125826D01*
X179700000Y-88994174D01*
X179665925Y-88867007D01*
X179633012Y-88810000D01*
X180550000Y-88810000D01*
X180550000Y-88162172D01*
X180549999Y-88162155D01*
X180543598Y-88102627D01*
X180543596Y-88102620D01*
X180493354Y-87967913D01*
X180493350Y-87967906D01*
X180407190Y-87852812D01*
X180407187Y-87852809D01*
X180292093Y-87766649D01*
X180292086Y-87766645D01*
X180157379Y-87716403D01*
X180157372Y-87716401D01*
X180097844Y-87710000D01*
X179450000Y-87710000D01*
X179450000Y-88626988D01*
X179392993Y-88594075D01*
X179265826Y-88560000D01*
X179134174Y-88560000D01*
X179007007Y-88594075D01*
X178950000Y-88626988D01*
X178950000Y-87710000D01*
X178302155Y-87710000D01*
X178242627Y-87716401D01*
X178242620Y-87716403D01*
X178107913Y-87766645D01*
X178107906Y-87766649D01*
X177992812Y-87852809D01*
X177992809Y-87852812D01*
X177906649Y-87967906D01*
X177906645Y-87967913D01*
X177856403Y-88102620D01*
X177856401Y-88102627D01*
X177850000Y-88162155D01*
X177850000Y-88810000D01*
X178766988Y-88810000D01*
X178734075Y-88867007D01*
X178700000Y-88994174D01*
X178700000Y-89125826D01*
X178734075Y-89252993D01*
X178766988Y-89310000D01*
X177850000Y-89310000D01*
X177850000Y-89957844D01*
X162388336Y-89957844D01*
X162386397Y-89936917D01*
X162330582Y-89740750D01*
X162239673Y-89558179D01*
X162116764Y-89395421D01*
X162116762Y-89395418D01*
X161966041Y-89258019D01*
X161966039Y-89258017D01*
X161792642Y-89150655D01*
X161792635Y-89150651D01*
X161697546Y-89113814D01*
X161602456Y-89076976D01*
X161401976Y-89039500D01*
X161198024Y-89039500D01*
X160997544Y-89076976D01*
X160997541Y-89076976D01*
X160997541Y-89076977D01*
X160807364Y-89150651D01*
X160807357Y-89150655D01*
X160633960Y-89258017D01*
X160633958Y-89258019D01*
X160483237Y-89395418D01*
X160360327Y-89558178D01*
X160269422Y-89740739D01*
X160269417Y-89740752D01*
X160213602Y-89936917D01*
X160194785Y-90139999D01*
X160194785Y-90140000D01*
X136947451Y-90140000D01*
X136950500Y-90124674D01*
X136950500Y-88475326D01*
X136950500Y-88475323D01*
X136950499Y-88475321D01*
X136940425Y-88424678D01*
X151199500Y-88424678D01*
X151214032Y-88497735D01*
X151214033Y-88497739D01*
X151214034Y-88497740D01*
X151269399Y-88580601D01*
X151344229Y-88630600D01*
X151352260Y-88635966D01*
X151352264Y-88635967D01*
X151425321Y-88650499D01*
X151425324Y-88650500D01*
X151425326Y-88650500D01*
X153174676Y-88650500D01*
X153174677Y-88650499D01*
X153247740Y-88635966D01*
X153330601Y-88580601D01*
X153385966Y-88497740D01*
X153400500Y-88424674D01*
X153400500Y-87550000D01*
X153734785Y-87550000D01*
X153753602Y-87753082D01*
X153809417Y-87949247D01*
X153809422Y-87949260D01*
X153900327Y-88131821D01*
X154023237Y-88294581D01*
X154173958Y-88431980D01*
X154173960Y-88431982D01*
X154243959Y-88475323D01*
X154347363Y-88539348D01*
X154537544Y-88613024D01*
X154738024Y-88650500D01*
X154738026Y-88650500D01*
X154941974Y-88650500D01*
X154941976Y-88650500D01*
X155142456Y-88613024D01*
X155332637Y-88539348D01*
X155506041Y-88431981D01*
X155656764Y-88294579D01*
X155779673Y-88131821D01*
X155861289Y-87967913D01*
X155866817Y-87956812D01*
X155914319Y-87905575D01*
X155981982Y-87888153D01*
X156048323Y-87910078D01*
X156092278Y-87964389D01*
X156097592Y-87979989D01*
X156106567Y-88013485D01*
X156106570Y-88013492D01*
X156206399Y-88227578D01*
X156341894Y-88421082D01*
X156508917Y-88588105D01*
X156702421Y-88723600D01*
X156916507Y-88823429D01*
X156916516Y-88823433D01*
X157130000Y-88880634D01*
X157130000Y-87983012D01*
X157187007Y-88015925D01*
X157314174Y-88050000D01*
X157445826Y-88050000D01*
X157572993Y-88015925D01*
X157630000Y-87983012D01*
X157630000Y-88880633D01*
X157843483Y-88823433D01*
X157843492Y-88823429D01*
X158057578Y-88723600D01*
X158251082Y-88588105D01*
X158364509Y-88474678D01*
X160199500Y-88474678D01*
X160214032Y-88547735D01*
X160214033Y-88547739D01*
X160214034Y-88547740D01*
X160269399Y-88630601D01*
X160352260Y-88685966D01*
X160352264Y-88685967D01*
X160425321Y-88700499D01*
X160425324Y-88700500D01*
X160425326Y-88700500D01*
X162174676Y-88700500D01*
X162174677Y-88700499D01*
X162247740Y-88685966D01*
X162330601Y-88630601D01*
X162385966Y-88547740D01*
X162400500Y-88474674D01*
X162400500Y-86725326D01*
X162400500Y-86725323D01*
X162400499Y-86725321D01*
X162385967Y-86652264D01*
X162385966Y-86652260D01*
X162352560Y-86602264D01*
X162330601Y-86569399D01*
X162275235Y-86532405D01*
X162247739Y-86514033D01*
X162247735Y-86514032D01*
X162174677Y-86499500D01*
X162174674Y-86499500D01*
X160425326Y-86499500D01*
X160425323Y-86499500D01*
X160352264Y-86514032D01*
X160352260Y-86514033D01*
X160269399Y-86569399D01*
X160214033Y-86652260D01*
X160214032Y-86652264D01*
X160199500Y-86725321D01*
X160199500Y-88474678D01*
X158364509Y-88474678D01*
X158418105Y-88421082D01*
X158553600Y-88227578D01*
X158653429Y-88013492D01*
X158653432Y-88013486D01*
X158710636Y-87800000D01*
X157813012Y-87800000D01*
X157845925Y-87742993D01*
X157880000Y-87615826D01*
X157880000Y-87484174D01*
X157845925Y-87357007D01*
X157813012Y-87300000D01*
X158710636Y-87300000D01*
X158710635Y-87299999D01*
X158653432Y-87086513D01*
X158653429Y-87086507D01*
X158553600Y-86872422D01*
X158553599Y-86872420D01*
X158418113Y-86678926D01*
X158418108Y-86678920D01*
X158251082Y-86511894D01*
X158057578Y-86376399D01*
X157843492Y-86276570D01*
X157843486Y-86276567D01*
X157630000Y-86219364D01*
X157630000Y-87116988D01*
X157572993Y-87084075D01*
X157445826Y-87050000D01*
X157314174Y-87050000D01*
X157187007Y-87084075D01*
X157130000Y-87116988D01*
X157130000Y-86219364D01*
X157129999Y-86219364D01*
X156916513Y-86276567D01*
X156916507Y-86276570D01*
X156702422Y-86376399D01*
X156702420Y-86376400D01*
X156508926Y-86511886D01*
X156508920Y-86511891D01*
X156341891Y-86678920D01*
X156341886Y-86678926D01*
X156206400Y-86872420D01*
X156206399Y-86872422D01*
X156106570Y-87086507D01*
X156106568Y-87086511D01*
X156097592Y-87120011D01*
X156061226Y-87179671D01*
X155998379Y-87210199D01*
X155929003Y-87201904D01*
X155875126Y-87157418D01*
X155866817Y-87143188D01*
X155820415Y-87050000D01*
X155779673Y-86968179D01*
X155656764Y-86805421D01*
X155656762Y-86805418D01*
X155506041Y-86668019D01*
X155506039Y-86668017D01*
X155332642Y-86560655D01*
X155332635Y-86560651D01*
X155212301Y-86514034D01*
X155142456Y-86486976D01*
X154941976Y-86449500D01*
X154738024Y-86449500D01*
X154537544Y-86486976D01*
X154537541Y-86486976D01*
X154537541Y-86486977D01*
X154347364Y-86560651D01*
X154347357Y-86560655D01*
X154173960Y-86668017D01*
X154173958Y-86668019D01*
X154023237Y-86805418D01*
X153900327Y-86968178D01*
X153809422Y-87150739D01*
X153809417Y-87150752D01*
X153753602Y-87346917D01*
X153734785Y-87549999D01*
X153734785Y-87550000D01*
X153400500Y-87550000D01*
X153400500Y-86675326D01*
X153400500Y-86675323D01*
X153400499Y-86675321D01*
X153385967Y-86602264D01*
X153385966Y-86602260D01*
X153364009Y-86569399D01*
X153330601Y-86519399D01*
X153247740Y-86464034D01*
X153247739Y-86464033D01*
X153247735Y-86464032D01*
X153174677Y-86449500D01*
X153174674Y-86449500D01*
X151425326Y-86449500D01*
X151425323Y-86449500D01*
X151352264Y-86464032D01*
X151352260Y-86464033D01*
X151269399Y-86519399D01*
X151214033Y-86602260D01*
X151214032Y-86602264D01*
X151199500Y-86675321D01*
X151199500Y-88424678D01*
X136940425Y-88424678D01*
X136935967Y-88402264D01*
X136935966Y-88402260D01*
X136880601Y-88319399D01*
X136797740Y-88264034D01*
X136797739Y-88264033D01*
X136797735Y-88264032D01*
X136724677Y-88249500D01*
X136724674Y-88249500D01*
X135075326Y-88249500D01*
X135075323Y-88249500D01*
X135002264Y-88264032D01*
X135002260Y-88264033D01*
X134919399Y-88319399D01*
X134864033Y-88402260D01*
X134864032Y-88402264D01*
X134849500Y-88475321D01*
X134849500Y-90124678D01*
X126451224Y-90124678D01*
X126451548Y-81680000D01*
X134844417Y-81680000D01*
X134864699Y-81885932D01*
X134864700Y-81885934D01*
X134924768Y-82083954D01*
X135022315Y-82266450D01*
X135022317Y-82266452D01*
X135153589Y-82426410D01*
X135250209Y-82505702D01*
X135313550Y-82557685D01*
X135496046Y-82655232D01*
X135694066Y-82715300D01*
X135694065Y-82715300D01*
X135712529Y-82717118D01*
X135900000Y-82735583D01*
X136105934Y-82715300D01*
X136303954Y-82655232D01*
X136486450Y-82557685D01*
X136646410Y-82426410D01*
X136777685Y-82266450D01*
X136875232Y-82083954D01*
X136935300Y-81885934D01*
X136955583Y-81680000D01*
X136935300Y-81474066D01*
X136875232Y-81276046D01*
X136777685Y-81093550D01*
X136725702Y-81030209D01*
X136646410Y-80933589D01*
X136486452Y-80802317D01*
X136486453Y-80802317D01*
X136486450Y-80802315D01*
X136303954Y-80704768D01*
X136105934Y-80644700D01*
X136105932Y-80644699D01*
X136105934Y-80644699D01*
X135900000Y-80624417D01*
X135694067Y-80644699D01*
X135496043Y-80704769D01*
X135385898Y-80763643D01*
X135313550Y-80802315D01*
X135313548Y-80802316D01*
X135313547Y-80802317D01*
X135153589Y-80933589D01*
X135022317Y-81093547D01*
X134924769Y-81276043D01*
X134864699Y-81474067D01*
X134844417Y-81680000D01*
X126451548Y-81680000D01*
X126451635Y-79400000D01*
X161044706Y-79400000D01*
X161063853Y-79643297D01*
X161120830Y-79880619D01*
X161214222Y-80106089D01*
X161341737Y-80314173D01*
X161341738Y-80314176D01*
X161341741Y-80314179D01*
X161500241Y-80499759D01*
X161643897Y-80622453D01*
X161685823Y-80658261D01*
X161685826Y-80658262D01*
X161893910Y-80785777D01*
X162119381Y-80879169D01*
X162119378Y-80879169D01*
X162119384Y-80879170D01*
X162119388Y-80879172D01*
X162356698Y-80936146D01*
X162600000Y-80955294D01*
X162843302Y-80936146D01*
X163080612Y-80879172D01*
X163306089Y-80785777D01*
X163514179Y-80658259D01*
X163699759Y-80499759D01*
X163858259Y-80314179D01*
X163985777Y-80106089D01*
X164079172Y-79880612D01*
X164136146Y-79643302D01*
X164155294Y-79400000D01*
X172244706Y-79400000D01*
X172263853Y-79643297D01*
X172320830Y-79880619D01*
X172414222Y-80106089D01*
X172541737Y-80314173D01*
X172541738Y-80314176D01*
X172541741Y-80314179D01*
X172700241Y-80499759D01*
X172843897Y-80622453D01*
X172885823Y-80658261D01*
X172885826Y-80658262D01*
X173093910Y-80785777D01*
X173319381Y-80879169D01*
X173319378Y-80879169D01*
X173319384Y-80879170D01*
X173319388Y-80879172D01*
X173556698Y-80936146D01*
X173800000Y-80955294D01*
X174043302Y-80936146D01*
X174280612Y-80879172D01*
X174506089Y-80785777D01*
X174714179Y-80658259D01*
X174899759Y-80499759D01*
X175058259Y-80314179D01*
X175185777Y-80106089D01*
X175279172Y-79880612D01*
X175336146Y-79643302D01*
X175355294Y-79400000D01*
X181644706Y-79400000D01*
X181663853Y-79643297D01*
X181720830Y-79880619D01*
X181814222Y-80106089D01*
X181941737Y-80314173D01*
X181941738Y-80314176D01*
X181941741Y-80314179D01*
X182100241Y-80499759D01*
X182243897Y-80622453D01*
X182285823Y-80658261D01*
X182285826Y-80658262D01*
X182493910Y-80785777D01*
X182719381Y-80879169D01*
X182719378Y-80879169D01*
X182719384Y-80879170D01*
X182719388Y-80879172D01*
X182956698Y-80936146D01*
X183200000Y-80955294D01*
X183443302Y-80936146D01*
X183680612Y-80879172D01*
X183906089Y-80785777D01*
X184114179Y-80658259D01*
X184299759Y-80499759D01*
X184458259Y-80314179D01*
X184585777Y-80106089D01*
X184679172Y-79880612D01*
X184736146Y-79643302D01*
X184755294Y-79400000D01*
X184736146Y-79156698D01*
X184679172Y-78919388D01*
X184585777Y-78693911D01*
X184585777Y-78693910D01*
X184458262Y-78485826D01*
X184458261Y-78485823D01*
X184422453Y-78443897D01*
X184299759Y-78300241D01*
X184177063Y-78195449D01*
X184114176Y-78141738D01*
X184114173Y-78141737D01*
X183906089Y-78014222D01*
X183680618Y-77920830D01*
X183680621Y-77920830D01*
X183574992Y-77895470D01*
X183443302Y-77863854D01*
X183443300Y-77863853D01*
X183443297Y-77863853D01*
X183200000Y-77844706D01*
X182956702Y-77863853D01*
X182719380Y-77920830D01*
X182493910Y-78014222D01*
X182285826Y-78141737D01*
X182285823Y-78141738D01*
X182100241Y-78300241D01*
X181941738Y-78485823D01*
X181941737Y-78485826D01*
X181814222Y-78693910D01*
X181720830Y-78919380D01*
X181663853Y-79156702D01*
X181644706Y-79400000D01*
X175355294Y-79400000D01*
X175336146Y-79156698D01*
X175279172Y-78919388D01*
X175185777Y-78693911D01*
X175185777Y-78693910D01*
X175058262Y-78485826D01*
X175058261Y-78485823D01*
X175022453Y-78443897D01*
X174899759Y-78300241D01*
X174777063Y-78195449D01*
X174714176Y-78141738D01*
X174714173Y-78141737D01*
X174506089Y-78014222D01*
X174280618Y-77920830D01*
X174280621Y-77920830D01*
X174174992Y-77895470D01*
X174043302Y-77863854D01*
X174043300Y-77863853D01*
X174043297Y-77863853D01*
X173800000Y-77844706D01*
X173556702Y-77863853D01*
X173319380Y-77920830D01*
X173093910Y-78014222D01*
X172885826Y-78141737D01*
X172885823Y-78141738D01*
X172700241Y-78300241D01*
X172541738Y-78485823D01*
X172541737Y-78485826D01*
X172414222Y-78693910D01*
X172320830Y-78919380D01*
X172263853Y-79156702D01*
X172244706Y-79400000D01*
X164155294Y-79400000D01*
X164136146Y-79156698D01*
X164079172Y-78919388D01*
X163985777Y-78693911D01*
X163985777Y-78693910D01*
X163858262Y-78485826D01*
X163858261Y-78485823D01*
X163822453Y-78443897D01*
X163699759Y-78300241D01*
X163577063Y-78195449D01*
X163514176Y-78141738D01*
X163514173Y-78141737D01*
X163306089Y-78014222D01*
X163080618Y-77920830D01*
X163080621Y-77920830D01*
X162974992Y-77895470D01*
X162843302Y-77863854D01*
X162843300Y-77863853D01*
X162843297Y-77863853D01*
X162600000Y-77844706D01*
X162356702Y-77863853D01*
X162119380Y-77920830D01*
X161893910Y-78014222D01*
X161685826Y-78141737D01*
X161685823Y-78141738D01*
X161500241Y-78300241D01*
X161341738Y-78485823D01*
X161341737Y-78485826D01*
X161214222Y-78693910D01*
X161120830Y-78919380D01*
X161063853Y-79156702D01*
X161044706Y-79400000D01*
X126451635Y-79400000D01*
X126451881Y-73000000D01*
X152344706Y-73000000D01*
X152363853Y-73243297D01*
X152420830Y-73480619D01*
X152514222Y-73706089D01*
X152641737Y-73914173D01*
X152641738Y-73914176D01*
X152641741Y-73914179D01*
X152800241Y-74099759D01*
X152943897Y-74222453D01*
X152985823Y-74258261D01*
X152985826Y-74258262D01*
X153193910Y-74385777D01*
X153419381Y-74479169D01*
X153419378Y-74479169D01*
X153419384Y-74479170D01*
X153419388Y-74479172D01*
X153656698Y-74536146D01*
X153900000Y-74555294D01*
X154143302Y-74536146D01*
X154380612Y-74479172D01*
X154606089Y-74385777D01*
X154814179Y-74258259D01*
X154999759Y-74099759D01*
X155158259Y-73914179D01*
X155285777Y-73706089D01*
X155379172Y-73480612D01*
X155436146Y-73243302D01*
X155455294Y-73000000D01*
X155436146Y-72756698D01*
X155379172Y-72519388D01*
X155285777Y-72293911D01*
X155285777Y-72293910D01*
X155158262Y-72085826D01*
X155158261Y-72085823D01*
X155122453Y-72043897D01*
X154999759Y-71900241D01*
X154877063Y-71795449D01*
X154814176Y-71741738D01*
X154814173Y-71741737D01*
X154606089Y-71614222D01*
X154380618Y-71520830D01*
X154380621Y-71520830D01*
X154274992Y-71495470D01*
X154143302Y-71463854D01*
X154143300Y-71463853D01*
X154143297Y-71463853D01*
X153900000Y-71444706D01*
X153656702Y-71463853D01*
X153419380Y-71520830D01*
X153193910Y-71614222D01*
X152985826Y-71741737D01*
X152985823Y-71741738D01*
X152800241Y-71900241D01*
X152641738Y-72085823D01*
X152641737Y-72085826D01*
X152514222Y-72293910D01*
X152420830Y-72519380D01*
X152363853Y-72756702D01*
X152344706Y-73000000D01*
X126451881Y-73000000D01*
X126452030Y-69118845D01*
X134590000Y-69118845D01*
X134627181Y-69353593D01*
X134627181Y-69353596D01*
X134700629Y-69579641D01*
X134808532Y-69791412D01*
X134948239Y-69983700D01*
X134948239Y-69983701D01*
X135116298Y-70151760D01*
X135308587Y-70291467D01*
X135520358Y-70399370D01*
X135746406Y-70472818D01*
X135850000Y-70489226D01*
X135850000Y-69444560D01*
X135903147Y-69475245D01*
X136032857Y-69510000D01*
X136167143Y-69510000D01*
X136296853Y-69475245D01*
X136350000Y-69444560D01*
X136350000Y-70489225D01*
X136453593Y-70472818D01*
X136679641Y-70399370D01*
X136891412Y-70291467D01*
X137083700Y-70151760D01*
X137083701Y-70151760D01*
X137200783Y-70034678D01*
X140019500Y-70034678D01*
X140034032Y-70107735D01*
X140034033Y-70107739D01*
X140034034Y-70107740D01*
X140089399Y-70190601D01*
X140172260Y-70245966D01*
X140172264Y-70245967D01*
X140245321Y-70260499D01*
X140245324Y-70260500D01*
X140245326Y-70260500D01*
X142314676Y-70260500D01*
X142314677Y-70260499D01*
X142387740Y-70245966D01*
X142470601Y-70190601D01*
X142525966Y-70107740D01*
X142540500Y-70034674D01*
X142540500Y-64965326D01*
X142540500Y-64965323D01*
X142540499Y-64965321D01*
X142525967Y-64892264D01*
X142525966Y-64892260D01*
X142470601Y-64809399D01*
X142387740Y-64754034D01*
X142387739Y-64754033D01*
X142387735Y-64754032D01*
X142314677Y-64739500D01*
X142314674Y-64739500D01*
X140245326Y-64739500D01*
X140245323Y-64739500D01*
X140172264Y-64754032D01*
X140172260Y-64754033D01*
X140089399Y-64809399D01*
X140034033Y-64892260D01*
X140034032Y-64892264D01*
X140019500Y-64965321D01*
X140019500Y-70034678D01*
X137200783Y-70034678D01*
X137251760Y-69983701D01*
X137251760Y-69983700D01*
X137391467Y-69791412D01*
X137499370Y-69579641D01*
X137572818Y-69353596D01*
X137572818Y-69353593D01*
X137610000Y-69118845D01*
X137610000Y-67750000D01*
X136610000Y-67750000D01*
X136610000Y-67250000D01*
X137610000Y-67250000D01*
X137610000Y-65881154D01*
X137572818Y-65646406D01*
X137572818Y-65646403D01*
X137499370Y-65420358D01*
X137391467Y-65208587D01*
X137251760Y-65016299D01*
X137251760Y-65016298D01*
X137083701Y-64848239D01*
X136891412Y-64708532D01*
X136679641Y-64600629D01*
X136453589Y-64527180D01*
X136453590Y-64527180D01*
X136350000Y-64510773D01*
X136350000Y-65555439D01*
X136296853Y-65524755D01*
X136167143Y-65490000D01*
X136032857Y-65490000D01*
X135903147Y-65524755D01*
X135850000Y-65555439D01*
X135850000Y-64510773D01*
X135746410Y-64527180D01*
X135520358Y-64600629D01*
X135308587Y-64708532D01*
X135116299Y-64848239D01*
X135116298Y-64848239D01*
X134948239Y-65016298D01*
X134948239Y-65016299D01*
X134808532Y-65208587D01*
X134700629Y-65420358D01*
X134627181Y-65646403D01*
X134627181Y-65646406D01*
X134590000Y-65881154D01*
X134590000Y-67250000D01*
X135590000Y-67250000D01*
X135590000Y-67750000D01*
X134590000Y-67750000D01*
X134590000Y-69118845D01*
X126452030Y-69118845D01*
X126452254Y-63300000D01*
X143544706Y-63300000D01*
X143563853Y-63543297D01*
X143620830Y-63780619D01*
X143714222Y-64006089D01*
X143841737Y-64214173D01*
X143841738Y-64214176D01*
X143841741Y-64214179D01*
X144000241Y-64399759D01*
X144130222Y-64510773D01*
X144185823Y-64558261D01*
X144185826Y-64558262D01*
X144393910Y-64685777D01*
X144619381Y-64779169D01*
X144619378Y-64779169D01*
X144619384Y-64779170D01*
X144619388Y-64779172D01*
X144856698Y-64836146D01*
X145100000Y-64855294D01*
X145343302Y-64836146D01*
X145580612Y-64779172D01*
X145806089Y-64685777D01*
X146014179Y-64558259D01*
X146199759Y-64399759D01*
X146358259Y-64214179D01*
X146485777Y-64006089D01*
X146579172Y-63780612D01*
X146636146Y-63543302D01*
X146655294Y-63300000D01*
X146636146Y-63056698D01*
X146579172Y-62819388D01*
X146485777Y-62593911D01*
X146485777Y-62593910D01*
X146358262Y-62385826D01*
X146358261Y-62385823D01*
X146322453Y-62343897D01*
X146199759Y-62200241D01*
X146077063Y-62095449D01*
X146014176Y-62041738D01*
X146014173Y-62041737D01*
X145806089Y-61914222D01*
X145580618Y-61820830D01*
X145580621Y-61820830D01*
X145474992Y-61795470D01*
X145343302Y-61763854D01*
X145343300Y-61763853D01*
X145343297Y-61763853D01*
X145100000Y-61744706D01*
X144856702Y-61763853D01*
X144619380Y-61820830D01*
X144393910Y-61914222D01*
X144185826Y-62041737D01*
X144185823Y-62041738D01*
X144000241Y-62200241D01*
X143841738Y-62385823D01*
X143841737Y-62385826D01*
X143714222Y-62593910D01*
X143620830Y-62819380D01*
X143563853Y-63056702D01*
X143544706Y-63300000D01*
X126452254Y-63300000D01*
X126452491Y-57121288D01*
X129149500Y-57121288D01*
X129181161Y-57361785D01*
X129243947Y-57596104D01*
X129293949Y-57716818D01*
X129336776Y-57820212D01*
X129458064Y-58030289D01*
X129458066Y-58030292D01*
X129458067Y-58030293D01*
X129605733Y-58222736D01*
X129605739Y-58222743D01*
X129777256Y-58394260D01*
X129777263Y-58394266D01*
X129784736Y-58400000D01*
X129969711Y-58541936D01*
X130179788Y-58663224D01*
X130403900Y-58756054D01*
X130638211Y-58818838D01*
X130818586Y-58842584D01*
X130878711Y-58850500D01*
X130878712Y-58850500D01*
X131121289Y-58850500D01*
X131169388Y-58844167D01*
X131361789Y-58818838D01*
X131596100Y-58756054D01*
X131820212Y-58663224D01*
X132030289Y-58541936D01*
X132084936Y-58500004D01*
X161144953Y-58500004D01*
X161165113Y-58769026D01*
X161165113Y-58769028D01*
X161225142Y-59032033D01*
X161225148Y-59032052D01*
X161323709Y-59283181D01*
X161323708Y-59283181D01*
X161458602Y-59516822D01*
X161512294Y-59584151D01*
X161512295Y-59584151D01*
X162348958Y-58747488D01*
X162373978Y-58807890D01*
X162445112Y-58914351D01*
X162535649Y-59004888D01*
X162642110Y-59076022D01*
X162702510Y-59101041D01*
X161864848Y-59938702D01*
X162047483Y-60063220D01*
X162047485Y-60063221D01*
X162290539Y-60180269D01*
X162290537Y-60180269D01*
X162548337Y-60259790D01*
X162548343Y-60259792D01*
X162815101Y-60299999D01*
X162815110Y-60300000D01*
X163084890Y-60300000D01*
X163084898Y-60299999D01*
X163351656Y-60259792D01*
X163351662Y-60259790D01*
X163609461Y-60180269D01*
X163852521Y-60063218D01*
X164035150Y-59938702D01*
X163197488Y-59101041D01*
X163257890Y-59076022D01*
X163364351Y-59004888D01*
X163454888Y-58914351D01*
X163526022Y-58807890D01*
X163551041Y-58747488D01*
X164387703Y-59584151D01*
X164387704Y-59584150D01*
X164441393Y-59516828D01*
X164441400Y-59516817D01*
X164576290Y-59283181D01*
X164674851Y-59032052D01*
X164674857Y-59032033D01*
X164734886Y-58769028D01*
X164734886Y-58769026D01*
X164755047Y-58500004D01*
X164755047Y-58499995D01*
X164747553Y-58400004D01*
X165644953Y-58400004D01*
X165665113Y-58669026D01*
X165665113Y-58669028D01*
X165725142Y-58932033D01*
X165725148Y-58932052D01*
X165823709Y-59183181D01*
X165823708Y-59183181D01*
X165958602Y-59416822D01*
X166012294Y-59484151D01*
X166012295Y-59484151D01*
X166848958Y-58647488D01*
X166873978Y-58707890D01*
X166945112Y-58814351D01*
X167035649Y-58904888D01*
X167142110Y-58976022D01*
X167202510Y-59001041D01*
X166364848Y-59838702D01*
X166547483Y-59963220D01*
X166547485Y-59963221D01*
X166790539Y-60080269D01*
X166790537Y-60080269D01*
X167048337Y-60159790D01*
X167048343Y-60159792D01*
X167315101Y-60199999D01*
X167315110Y-60200000D01*
X167584890Y-60200000D01*
X167584898Y-60199999D01*
X167851656Y-60159792D01*
X167851662Y-60159790D01*
X168109461Y-60080269D01*
X168352521Y-59963218D01*
X168535150Y-59838702D01*
X167697488Y-59001041D01*
X167757890Y-58976022D01*
X167864351Y-58904888D01*
X167954888Y-58814351D01*
X168026022Y-58707890D01*
X168051041Y-58647488D01*
X168887703Y-59484151D01*
X168887704Y-59484150D01*
X168941393Y-59416828D01*
X168941400Y-59416817D01*
X169076290Y-59183181D01*
X169174851Y-58932052D01*
X169174857Y-58932033D01*
X169234886Y-58669028D01*
X169234886Y-58669026D01*
X169255047Y-58400004D01*
X169255047Y-58399995D01*
X169234886Y-58130973D01*
X169234886Y-58130971D01*
X169174857Y-57867966D01*
X169174851Y-57867947D01*
X169076290Y-57616818D01*
X169076291Y-57616818D01*
X168941397Y-57383177D01*
X168887704Y-57315847D01*
X168051041Y-58152510D01*
X168026022Y-58092110D01*
X167954888Y-57985649D01*
X167864351Y-57895112D01*
X167757890Y-57823978D01*
X167697488Y-57798958D01*
X168375158Y-57121288D01*
X186149500Y-57121288D01*
X186181161Y-57361785D01*
X186243947Y-57596104D01*
X186293949Y-57716818D01*
X186336776Y-57820212D01*
X186458064Y-58030289D01*
X186458066Y-58030292D01*
X186458067Y-58030293D01*
X186605733Y-58222736D01*
X186605739Y-58222743D01*
X186777256Y-58394260D01*
X186777263Y-58394266D01*
X186784736Y-58400000D01*
X186969711Y-58541936D01*
X187179788Y-58663224D01*
X187403900Y-58756054D01*
X187638211Y-58818838D01*
X187818586Y-58842584D01*
X187878711Y-58850500D01*
X187878712Y-58850500D01*
X188121289Y-58850500D01*
X188169388Y-58844167D01*
X188361789Y-58818838D01*
X188596100Y-58756054D01*
X188820212Y-58663224D01*
X189030289Y-58541936D01*
X189222738Y-58394265D01*
X189394265Y-58222738D01*
X189541936Y-58030289D01*
X189663224Y-57820212D01*
X189756054Y-57596100D01*
X189818838Y-57361789D01*
X189850500Y-57121288D01*
X189850500Y-56878712D01*
X189818838Y-56638211D01*
X189756054Y-56403900D01*
X189663224Y-56179788D01*
X189541936Y-55969711D01*
X189473181Y-55880107D01*
X189394266Y-55777263D01*
X189394260Y-55777256D01*
X189222743Y-55605739D01*
X189222736Y-55605733D01*
X189030293Y-55458067D01*
X189030292Y-55458066D01*
X189030289Y-55458064D01*
X188820212Y-55336776D01*
X188820205Y-55336773D01*
X188596104Y-55243947D01*
X188361785Y-55181161D01*
X188121289Y-55149500D01*
X188121288Y-55149500D01*
X187878712Y-55149500D01*
X187878711Y-55149500D01*
X187638214Y-55181161D01*
X187403895Y-55243947D01*
X187179794Y-55336773D01*
X187179785Y-55336777D01*
X186969706Y-55458067D01*
X186777263Y-55605733D01*
X186777256Y-55605739D01*
X186605739Y-55777256D01*
X186605733Y-55777263D01*
X186458067Y-55969706D01*
X186336777Y-56179785D01*
X186336773Y-56179794D01*
X186243947Y-56403895D01*
X186181161Y-56638214D01*
X186149500Y-56878711D01*
X186149500Y-57121288D01*
X168375158Y-57121288D01*
X168535150Y-56961296D01*
X168352517Y-56836779D01*
X168352516Y-56836778D01*
X168109460Y-56719730D01*
X168109462Y-56719730D01*
X167851662Y-56640209D01*
X167851656Y-56640207D01*
X167584898Y-56600000D01*
X167315101Y-56600000D01*
X167048343Y-56640207D01*
X167048337Y-56640209D01*
X166790538Y-56719730D01*
X166547485Y-56836778D01*
X166547476Y-56836783D01*
X166364848Y-56961296D01*
X167202511Y-57798958D01*
X167142110Y-57823978D01*
X167035649Y-57895112D01*
X166945112Y-57985649D01*
X166873978Y-58092110D01*
X166848958Y-58152511D01*
X166012295Y-57315848D01*
X165958600Y-57383180D01*
X165823709Y-57616818D01*
X165725148Y-57867947D01*
X165725142Y-57867966D01*
X165665113Y-58130971D01*
X165665113Y-58130973D01*
X165644953Y-58399995D01*
X165644953Y-58400004D01*
X164747553Y-58400004D01*
X164734886Y-58230973D01*
X164734886Y-58230971D01*
X164674857Y-57967966D01*
X164674851Y-57967947D01*
X164576290Y-57716818D01*
X164576291Y-57716818D01*
X164441397Y-57483177D01*
X164387704Y-57415847D01*
X163551041Y-58252510D01*
X163526022Y-58192110D01*
X163454888Y-58085649D01*
X163364351Y-57995112D01*
X163257890Y-57923978D01*
X163197488Y-57898958D01*
X164035150Y-57061296D01*
X163852517Y-56936779D01*
X163852516Y-56936778D01*
X163609460Y-56819730D01*
X163609462Y-56819730D01*
X163351662Y-56740209D01*
X163351656Y-56740207D01*
X163084898Y-56700000D01*
X162815101Y-56700000D01*
X162548343Y-56740207D01*
X162548337Y-56740209D01*
X162290538Y-56819730D01*
X162047485Y-56936778D01*
X162047476Y-56936783D01*
X161864848Y-57061296D01*
X162702511Y-57898958D01*
X162642110Y-57923978D01*
X162535649Y-57995112D01*
X162445112Y-58085649D01*
X162373978Y-58192110D01*
X162348958Y-58252511D01*
X161512295Y-57415848D01*
X161458600Y-57483180D01*
X161323709Y-57716818D01*
X161225148Y-57967947D01*
X161225142Y-57967966D01*
X161165113Y-58230971D01*
X161165113Y-58230973D01*
X161144953Y-58499995D01*
X161144953Y-58500004D01*
X132084936Y-58500004D01*
X132222738Y-58394265D01*
X132394265Y-58222738D01*
X132541936Y-58030289D01*
X132663224Y-57820212D01*
X132756054Y-57596100D01*
X132818838Y-57361789D01*
X132850500Y-57121288D01*
X132850500Y-56878712D01*
X132818838Y-56638211D01*
X132756054Y-56403900D01*
X132663224Y-56179788D01*
X132541936Y-55969711D01*
X132473181Y-55880107D01*
X132394266Y-55777263D01*
X132394260Y-55777256D01*
X132222743Y-55605739D01*
X132222736Y-55605733D01*
X132030293Y-55458067D01*
X132030292Y-55458066D01*
X132030289Y-55458064D01*
X131820212Y-55336776D01*
X131820205Y-55336773D01*
X131596104Y-55243947D01*
X131361785Y-55181161D01*
X131121289Y-55149500D01*
X131121288Y-55149500D01*
X130878712Y-55149500D01*
X130878711Y-55149500D01*
X130638214Y-55181161D01*
X130403895Y-55243947D01*
X130179794Y-55336773D01*
X130179785Y-55336777D01*
X129969706Y-55458067D01*
X129777263Y-55605733D01*
X129777256Y-55605739D01*
X129605739Y-55777256D01*
X129605733Y-55777263D01*
X129458067Y-55969706D01*
X129336777Y-56179785D01*
X129336773Y-56179794D01*
X129243947Y-56403895D01*
X129181161Y-56638214D01*
X129149500Y-56878711D01*
X129149500Y-57121288D01*
X126452491Y-57121288D01*
X126452493Y-57069313D01*
X126452497Y-57069279D01*
X126452497Y-57002706D01*
X126452615Y-56997297D01*
X126455257Y-56936778D01*
X126469566Y-56609036D01*
X126470506Y-56598303D01*
X126520881Y-56215673D01*
X126522753Y-56205054D01*
X126606287Y-55828268D01*
X126609080Y-55817842D01*
X126725130Y-55449787D01*
X126728823Y-55439641D01*
X126876519Y-55083080D01*
X126881068Y-55073326D01*
X127059279Y-54730991D01*
X127064672Y-54721651D01*
X127272036Y-54396163D01*
X127278216Y-54387338D01*
X127513177Y-54081139D01*
X127520088Y-54072903D01*
X127780832Y-53788359D01*
X127788459Y-53780732D01*
X128073006Y-53520002D01*
X128081281Y-53513061D01*
X128085198Y-53510056D01*
X128159323Y-53453179D01*
X128387437Y-53278149D01*
X128396298Y-53271944D01*
X128721772Y-53064603D01*
X128731134Y-53059199D01*
X128785321Y-53030991D01*
X129073447Y-52881010D01*
X129083222Y-52876452D01*
X129439776Y-52728773D01*
X129449919Y-52725082D01*
X129817988Y-52609041D01*
X129828418Y-52606247D01*
X130205182Y-52522731D01*
X130215802Y-52520858D01*
X130598454Y-52470492D01*
X130609190Y-52469554D01*
X130997443Y-52452614D01*
X131002843Y-52452497D01*
X131059455Y-52452499D01*
X131059458Y-52452497D01*
X131068566Y-52452498D01*
X131068663Y-52452491D01*
X187997299Y-52448502D01*
X188002702Y-52448619D01*
G37*
%TD.AperFunction*%
%TD*%
M02*
