M48
; DRILL file {KiCad 8.0.0} date 2024-03-06T15:24:08+0100
; FORMAT={-:-/ absolute / inch / decimal}
; #@! TF.CreationDate,2024-03-06T15:24:08+01:00
; #@! TF.GenerationSoftware,Kicad,Pcbnew,8.0.0
; #@! TF.FileFunction,Plated,1,4,PTH
FMAT,2
INCH
; #@! TA.AperFunction,Plated,PTH,ViaDrill
T1C0.0118
; #@! TA.AperFunction,Plated,PTH,ComponentDrill
T2C0.0315
; #@! TA.AperFunction,Plated,PTH,ComponentDrill
T3C0.0394
; #@! TA.AperFunction,Plated,PTH,ComponentDrill
T4C0.0402
; #@! TA.AperFunction,Plated,PTH,ComponentDrill
T5C0.0512
%
G90
G05
T1
X5.2008Y-3.5945
X5.2087Y-3.6339
X5.4567Y-3.7323
X5.4567Y-3.7913
X5.4567Y-3.8701
X5.4567Y-3.9488
X5.5039Y-2.9528
X5.5433Y-3.5866
X5.5709Y-4.0866
X5.5906Y-3.3858
X5.6142Y-4.0866
X5.6457Y-4.1181
X5.6496Y-4.0866
X5.6654Y-3.6535
X5.6693Y-3.7087
X5.7008Y-3.6535
X5.7008Y-3.7087
X5.7126Y-3.8031
X5.7283Y-3.5039
X5.748Y-2.6772
X5.7874Y-3.5669
X5.8189Y-2.9528
X5.8189Y-3.7165
X5.8268Y-3.3228
X5.8504Y-4.0276
X5.8661Y-2.4252
X5.874Y-3.7717
X5.8937Y-4.2431
X5.9213Y-3.6102
X5.9409Y-2.4173
X5.9449Y-3.5433
X5.9724Y-3.7756
X6.0709Y-2.4488
X6.0827Y-2.5945
X6.1417Y-2.5984
X6.1614Y-3.8937
X6.1614Y-3.9252
X6.1614Y-3.9616
X6.1614Y-3.9921
X6.2126Y-4.189
X6.2598Y-3.7589
X6.2756Y-2.9843
X6.3071Y-3.126
X6.315Y-3.8661
X6.3189Y-4.0394
X6.3333Y-4.1273
X6.3346Y-4.1614
X6.4173Y-2.5787
X6.4331Y-3.9291
X6.4409Y-3.8031
X6.4567Y-3.9094
X6.4646Y-4.2008
X6.4764Y-3.9646
X6.4843Y-3.9321
X6.4882Y-4.0472
X6.4882Y-4.1024
X6.4882Y-4.1378
X6.4961Y-3.126
X6.5039Y-4.1969
X6.5157Y-3.9606
X6.5197Y-4.126
X6.5236Y-4.0118
X6.5236Y-4.0472
X6.5354Y-2.8976
X6.5472Y-3.815
X6.5512Y-3.8583
X6.5512Y-3.9882
X6.5512Y-4.0315
X6.5512Y-4.126
X6.5827Y-4.0472
X6.6026Y-4.1373
X6.6063Y-4.1772
X6.6102Y-3.6811
X6.6102Y-3.7283
X6.6457Y-3.8386
X6.6457Y-3.9331
X6.6457Y-4.2874
X6.6457Y-4.3228
X6.7008Y-3.748
X6.7047Y-4.2087
X6.7165Y-2.9843
X6.7343Y-3.8386
X6.7343Y-3.9331
X6.748Y-3.126
X6.8268Y-3.878
X6.8307Y-3.8189
X6.8346Y-3.9764
X6.9291Y-3.9961
X6.937Y-3.126
X6.9764Y-2.8976
X7.0866Y-2.9843
X7.1181Y-3.126
X7.126Y-4.0276
X7.126Y-4.0709
X7.126Y-4.1024
X7.1339Y-4.1929
X7.1417Y-4.0
X7.3071Y-3.126
X7.3543Y-2.8976
T2
X5.3504Y-3.2157
X5.3504Y-3.5157
T3
X5.4843Y-4.3543
X5.5843Y-4.3543
X5.6843Y-4.3543
X5.7843Y-4.3543
X5.8843Y-4.3543
X5.9843Y-4.3543
X5.9961Y-3.4469
X6.0961Y-3.4469
X6.1961Y-3.4469
X6.3504Y-3.4488
X6.3504Y-3.5488
X6.3504Y-3.6488
X6.3504Y-3.7488
X7.0551Y-3.5063
X7.0551Y-3.6063
X7.0787Y-3.7874
X7.0787Y-3.8874
T5
X5.7126Y-2.4921
X6.0591Y-2.874
X6.4016Y-3.126
X6.4154Y-2.3031
X6.5925Y-2.2992
X6.8425Y-3.126
X6.8543Y-4.4094
X6.9528Y-4.311
X7.0512Y-4.4094
X7.2126Y-3.126
T4
G00X5.3583Y-2.5984
M15
G01X5.3583Y-2.7165
M16
G05
G00X5.5622Y-2.5984
M15
G01X5.5622Y-2.7165
M16
G05
M30
